<?xml version="1.0" encoding="UTF-8"?>
<svg width="45px" height="45px" viewBox="0 0 45 45" version="1.1" xmlns="http://www.w3.org/2000/svg" xmlns:xlink="http://www.w3.org/1999/xlink">
    <!-- Generator: Sketch 53 (72520) - https://sketchapp.com -->
    <title>ICON/MARKETING</title>
    <desc>Created with Sketch.</desc>
    <defs>
        <linearGradient x1="100%" y1="50%" x2="0%" y2="50%" id="linearGradient-1">
            <stop stop-color="#FB40E5" offset="0%"></stop>
            <stop stop-color="#0089F4" offset="100%"></stop>
        </linearGradient>
    </defs>
    <g id="MISSIONS-+-PROJECTS" stroke="none" stroke-width="1" fill="none" fill-rule="evenodd">
        <g id="MISSIONS/SINGLE_PROJECT/LOGGED_IN" transform="translate(-1017.000000, -2657.000000)">
            <g id="SKILLS-NEEDED" transform="translate(0.000000, 1336.000000)">
                <g id="AUDIO-&amp;-VIDEO" transform="translate(345.000000, 1279.000000)">
                    <g id="ICON/AUDIO" transform="translate(672.000000, 42.000000)">
                        <g id="audio">
                            <path d="M4.42982456,0.877192982 L40.5701754,0.877192982 C42.5078811,0.877192982 44.0786047,2.4482593 44.0786047,4.38596491 L44.0786047,21.754386 C44.0786047,23.6920916 42.5078811,25.2631579 40.5701754,25.2631579 L4.42982456,25.2631579 C2.49211895,25.2631579 0.921052632,23.6920916 0.921052632,21.754386 L0.921052632,4.38596491 C0.921052632,2.4482593 2.49211895,0.877192982 4.42982456,0.877192982 Z" id="Path" fill="#FFFFFF"></path>
                            <g id="Group" transform="translate(4.385965, 5.350877)">
                                <polygon id="Path" fill="#FFFFFF" points="0.0438596491 0 5.65789474 0 5.65789474 5.61403509 0.0438596491 5.61403509"></polygon>
                                <polygon id="Path" fill="#0089F4" points="9.86842105 0 15.4824561 0 15.4824561 5.61403509 9.86842105 5.61403509"></polygon>
                                <polygon id="Path" fill="#FB40E5" points="0.0438596491 9.8245614 5.65789474 9.8245614 5.65789474 15.4385965 0.0438596491 15.4385965"></polygon>
                                <polygon id="Path" fill="#5037F7" points="9.86842105 9.8245614 15.4824561 9.8245614 15.4824561 15.4385965 9.86842105 15.4385965"></polygon>
                            </g>
                            <polygon id="Path" fill="url(#linearGradient-1)" points="24.0789474 5.35087719 40.5701754 5.35087719 40.5701754 20.7894737 24.0789474 20.7894737"></polygon>
                            <path d="M34.5072642,13.7304688 L30.9882127,15.9861568 C30.4663514,16.3205867 29.7807018,15.9457237 29.7807018,15.3255209 L29.7807018,10.81483 C29.7807018,10.1946272 30.4663514,9.81976421 30.9882127,10.154194 L34.5072642,12.4098821 C34.9886925,12.7182703 34.9886925,13.4217379 34.5072642,13.7304688 Z" id="Path" fill="#FFFFFF"></path>
                            <path d="M30.154194,29.2033306 C28.9545641,29.2033306 27.9821135,30.1761239 27.9821135,31.3757539 L27.9821135,29.6480948 C27.9821135,28.4484649 27.0096628,27.4756716 25.8100329,27.4756716 C24.610403,27.4756716 23.6379523,28.4484649 23.6379523,29.6480948 C23.6379523,28.4484649 22.6651589,27.4756716 21.465529,27.4756716 C20.2658991,27.4756716 19.2934484,28.4484649 19.2934484,29.6480948 L19.2934484,20.7894737 C19.2934484,19.5898438 18.3209978,18.6170504 17.1213679,18.6170504 C15.9217379,18.6170504 14.9489446,19.5898438 14.9489446,20.7894737 L14.9489446,36.6433662 L12.3279879,32.3430647 C11.6837993,31.285636 10.313528,30.9357868 9.24102246,31.5549616 C8.20723684,32.151864 7.80873079,33.4457237 8.32819351,34.5209704 L12.9858826,44.0347451 L32.3266174,44.0347451 L32.3266174,31.3757539 C32.3266174,30.1761239 31.3541667,29.2033306 30.154194,29.2033306 Z" id="Path" fill="#FFFFFF"></path>
                            <path d="M34.9804688,11.6711211 L31.4617598,9.41577579 C30.9498355,9.08785632 30.3008498,9.06524123 29.7676809,9.35683939 C29.2345121,9.64843754 28.9035088,10.2069627 28.9035088,10.8144874 L28.9035088,15.3255209 C28.9035088,15.9333882 29.2345121,16.4919133 29.7676809,16.7835115 C30.01679,16.9195449 30.2912554,16.9873904 30.5650356,16.9873904 C30.877193,16.9873904 31.1890077,16.8993284 31.4617598,16.7245751 L34.9804688,14.468887 C35.4594983,14.1618695 35.745614,13.6389803 35.745614,13.0701754 C35.745614,12.501028 35.4594983,11.9781387 34.9804688,11.6711211 L34.9804688,11.6711211 Z M30.6578947,15.1559074 L30.6578947,10.9841009 L33.9117325,13.0701754 L30.6578947,15.1559074 Z" id="Shape" fill="#000000" fill-rule="nonzero"></path>
                            <path d="M10.9210526,5.35087719 C10.9210526,4.86636509 10.5283718,4.47368421 10.0438596,4.47368421 L4.42982456,4.47368421 C3.94531246,4.47368421 3.55263158,4.86636509 3.55263158,5.35087719 L3.55263158,10.9649123 C3.55263158,11.4494244 3.94531246,11.8421053 4.42982456,11.8421053 L10.0438596,11.8421053 C10.5283718,11.8421053 10.9210526,11.4494244 10.9210526,10.9649123 L10.9210526,5.35087719 Z M9.16666667,10.0877193 L5.30701754,10.0877193 L5.30701754,6.22807018 L9.16666667,6.22807018 L9.16666667,10.0877193 Z" id="Shape" fill="#000000" fill-rule="nonzero"></path>
                            <path d="M14.254386,11.8421053 L19.8684211,11.8421053 C20.3529332,11.8421053 20.745614,11.4494244 20.745614,10.9649123 L20.745614,5.35087719 C20.745614,4.86636509 20.3529332,4.47368421 19.8684211,4.47368421 L14.254386,4.47368421 C13.7698739,4.47368421 13.377193,4.86636509 13.377193,5.35087719 L13.377193,10.9649123 C13.377193,11.4494244 13.7698739,11.8421053 14.254386,11.8421053 Z M15.1315789,6.22807018 L18.9912281,6.22807018 L18.9912281,10.0877193 L15.1315789,10.0877193 L15.1315789,6.22807018 Z" id="Shape" fill="#000000" fill-rule="nonzero"></path>
                            <path d="M10.0438596,14.2982456 L4.42982456,14.2982456 C3.94531246,14.2982456 3.55263158,14.6909265 3.55263158,15.1754386 L3.55263158,20.7894737 C3.55263158,21.2736431 3.94531246,21.6666667 4.42982456,21.6666667 L10.0438596,21.6666667 C10.5283718,21.6666667 10.9210526,21.2736431 10.9210526,20.7894737 L10.9210526,15.1754386 C10.9210526,14.6909265 10.5283718,14.2982456 10.0438596,14.2982456 Z M9.16666667,19.9122807 L5.30701754,19.9122807 L5.30701754,16.0526316 L9.16666667,16.0526316 L9.16666667,19.9122807 Z" id="Shape" fill="#000000" fill-rule="nonzero"></path>
                            <path d="M40.5701754,21.6666667 C41.0543448,21.6666667 41.4473684,21.2736431 41.4473684,20.7894737 L41.4473684,5.35087719 C41.4473684,4.86636509 41.0543448,4.47368421 40.5701754,4.47368421 L24.0789474,4.47368421 C23.5944353,4.47368421 23.2017544,4.86636509 23.2017544,5.35087719 L23.2017544,20.7894737 C23.2017544,21.2736431 23.5944353,21.6666667 24.0789474,21.6666667 L40.5701754,21.6666667 Z M24.9561404,6.22807018 L39.6929825,6.22807018 L39.6929825,19.9122807 L24.9561404,19.9122807 L24.9561404,6.22807018 Z" id="Shape" fill="#000000" fill-rule="nonzero"></path>
                            <path d="M40.5701754,-5.1857154e-14 L17.8947368,-5.1857154e-14 C17.4102247,-5.1857154e-14 17.0175439,0.392680877 17.0175439,0.877192982 C17.0175439,1.36170509 17.4102247,1.75438596 17.8947368,1.75438596 L40.5701754,1.75438596 C42.0209704,1.75438596 43.2017544,2.93482728 43.2017544,4.38596491 L43.2017544,21.754386 C43.2017544,23.2051809 42.0209704,24.3859649 40.5701754,24.3859649 L20.1706414,24.3859649 L20.1706414,21.6121847 C20.5057566,21.4888295 20.745614,21.1674205 20.745614,20.7894737 L20.745614,15.1754386 C20.745614,14.6909265 20.3529332,14.2982456 19.8684211,14.2982456 L14.254386,14.2982456 C13.7698739,14.2982456 13.377193,14.6909265 13.377193,15.1754386 L13.377193,20.7894737 C13.377193,21.2112802 13.6749589,21.5631853 14.0717517,21.6471354 L14.0717517,24.3859649 L4.42982456,24.3859649 C2.97868693,24.3859649 1.79824561,23.2051809 1.79824561,21.754386 L1.79824561,4.38596491 C1.79824561,2.93482728 2.97868693,1.75438596 4.42982456,1.75438596 L10.4238624,1.75438596 C10.9083745,1.75438596 11.3010554,1.36170509 11.3010554,0.877192982 C11.3010554,0.392680877 10.9083745,-5.1857154e-14 10.4238624,-5.1857154e-14 L4.42982456,-5.1857154e-14 C2.01137614,-5.1857154e-14 0.0438596491,1.96751649 0.0438596491,4.38596491 L0.0438596491,21.754386 C0.0438596491,24.1728344 2.01137614,26.1403509 4.42982456,26.1403509 L14.0717517,26.1403509 L14.0717517,33.5187089 L13.0770285,31.8866502 C12.1772204,30.4101562 10.2998218,29.9311267 8.80242596,30.7952988 C7.37835798,31.6176672 6.82291667,33.4217379 7.54009044,34.9067982 L12.1981223,44.4205729 C12.3502604,44.7317023 12.6620751,44.9122807 12.986568,44.9122807 C13.1160911,44.9122807 13.24767,44.8834978 13.3717105,44.8228482 C13.8068805,44.6097176 13.9867736,44.0844298 13.7736431,43.6492598 L9.11800982,34.139597 C8.80002737,33.4817023 9.04673789,32.6798931 9.67961895,32.3146245 C10.3450521,31.9305098 11.1790707,32.1436404 11.5789474,32.7994791 L14.199904,37.0997807 C14.4044682,37.4355811 14.8077714,37.5942297 15.1860609,37.4880071 C15.564693,37.3814419 15.8261376,37.0363898 15.8261376,36.6433662 L15.8261376,20.7894737 C15.8261376,20.0753838 16.407278,19.4942434 17.1210253,19.4942434 C17.8351151,19.4942434 18.4162554,20.0753838 18.4162554,20.7894737 L18.4162554,34.9119381 C18.4162554,35.3964501 18.8089364,35.7891311 19.2934484,35.7891311 C19.7779605,35.7891311 20.1706414,35.3964501 20.1706414,34.9119381 L20.1706414,29.6480948 C20.1706414,28.9340049 20.7514391,28.3528646 21.465529,28.3528646 C22.1796189,28.3528646 22.7604167,28.9340049 22.7604167,29.6480948 L22.7604167,34.9119381 C22.7604167,35.3964501 23.1530975,35.7891311 23.6376096,35.7891311 C24.1221218,35.7891311 24.5148026,35.3964501 24.5148026,34.9119381 L24.5148026,29.6480948 C24.5148026,28.9340049 25.095943,28.3528646 25.8100329,28.3528646 C26.5237802,28.3528646 27.1049205,28.9340049 27.1049205,29.6480948 L27.1049205,34.9119381 C27.1049205,35.3961075 27.4976014,35.7891311 27.9821135,35.7891311 C28.4666255,35.7891311 28.8593065,35.3961075 28.8593065,34.9119381 L28.8593065,31.3757539 C28.8593065,30.6616639 29.4401042,30.0805236 30.154194,30.0805236 C30.868284,30.0805236 31.4494244,30.6616639 31.4494244,31.3757539 L31.4494244,40.4824561 C31.4494244,40.9666255 31.8421053,41.3596491 32.3266174,41.3596491 C32.8107868,41.3596491 33.2038104,40.9666255 33.2038104,40.4824561 L33.2038104,31.3757539 C33.2038104,29.6943531 31.8355948,28.3261376 30.154194,28.3261376 C29.6302768,28.3261376 29.1365132,28.4594298 28.7054551,28.6931195 C28.3035225,27.4780702 27.1580318,26.5984786 25.8100329,26.5984786 C24.9602522,26.5984786 24.1913377,26.9479852 23.6376096,27.5106223 C23.0842242,26.9479852 22.3149671,26.5984786 21.465529,26.5984786 C21.0026042,26.5984786 20.5640077,26.7026453 20.1706414,26.8880209 L20.1706414,26.1403509 L40.5701754,26.1403509 C42.9882812,26.1403509 44.9557977,24.1728344 44.9557977,21.754386 L44.9557977,4.38596491 C44.9557977,1.96751649 42.9882812,-5.68434189e-14 40.5701754,-5.1857154e-14 Z M17.1210253,17.7398575 C16.3613624,17.7398575 15.6661184,18.0201481 15.1315789,18.4813596 L15.1315789,16.0526316 L18.9912281,16.0526316 L18.9912281,18.3833607 C18.4741639,17.9807429 17.8255209,17.7398575 17.1210253,17.7398575 Z" id="Shape" fill="#000000" fill-rule="nonzero"></path>
                            <path d="M14.254386,1.75438596 C14.4849918,1.75438596 14.7114858,1.66049895 14.8745888,1.49739579 C15.0376919,1.33429281 15.1315789,1.10779877 15.1315789,0.877192982 C15.1315789,0.646587193 15.0376919,0.420093158 14.8745888,0.256990175 C14.7114858,0.0938870175 14.4849918,0 14.254386,0 C14.0237802,0 13.7972861,0.0938870175 13.6341832,0.256990175 C13.47108,0.420093158 13.377193,0.646587193 13.377193,0.877192982 C13.377193,1.10779877 13.47108,1.33429281 13.6341832,1.49739579 C13.7972861,1.66049895 14.0237802,1.75438596 14.254386,1.75438596 Z" id="Path" fill="#000000"></path>
                            <path d="M32.3262746,43.1578947 C32.0953262,43.1578947 31.8691749,43.2514391 31.7060718,43.4148849 C31.5429688,43.5779879 31.4490817,43.8041393 31.4490817,44.0347451 C31.4490817,44.2656935 31.5429688,44.4918448 31.7060718,44.6549479 C31.8691749,44.818051 32.0953262,44.9119381 32.3262746,44.9119381 C32.5579084,44.9119381 32.7833745,44.8183937 32.9471628,44.6549479 C33.1102659,44.4918448 33.2034676,44.2656935 33.2034676,44.0347451 C33.2034676,43.8041393 33.1102659,43.5779879 32.9471628,43.4148849 C32.7833745,43.2514391 32.5579084,43.1578947 32.3262746,43.1578947 Z" id="Path" fill="#000000"></path>
                        </g>
                    </g>
                </g>
            </g>
        </g>
    </g>
</svg>