<?xml version="1.0" encoding="UTF-8"?>
<svg width="39px" height="53px" viewBox="0 0 39 53" version="1.1" xmlns="http://www.w3.org/2000/svg" xmlns:xlink="http://www.w3.org/1999/xlink">
    <!-- Generator: Sketch 53 (72520) - https://sketchapp.com -->
    <title>ICON/MARKETING</title>
    <desc>Created with Sketch.</desc>
    <g id="MISSIONS-+-PROJECTS" stroke="none" stroke-width="1" fill="none" fill-rule="evenodd">
        <g id="MISSIONS/SINGLE_PROJECT/LOGGED_IN" transform="translate(-1021.000000, -2434.000000)">
            <g id="SKILLS-NEEDED" transform="translate(0.000000, 1336.000000)">
                <g id="DATA-SOURCING" transform="translate(345.000000, 1065.000000)">
                    <g id="ICON/DATA" transform="translate(669.000000, 33.000000)">
                        <g id="cloud-computing" transform="translate(7.420000, 0.000000)">
                            <circle id="Oval" fill="#5037F7" cx="3.74468303" cy="42.204908" r="2.63374233"></circle>
                            <circle id="Oval" fill="#FB40E5" cx="34.6992843" cy="42.204908" r="2.63374233"></circle>
                            <path d="M10.4428425,41.2186094 L7.21298569,41.2186094 C6.77944785,39.701227 5.39212679,38.5848671 3.73384458,38.5848671 C1.73957055,38.5848671 0.124642127,40.2106339 0.124642127,42.1940695 C0.124642127,44.1883436 1.750409,45.803272 3.73384458,45.803272 C5.38128834,45.803272 6.77944785,44.6869121 7.21298569,43.1695297 L10.4428425,43.1695297 C12.6105317,43.1695297 14.3771984,41.402863 14.3771984,39.2351738 L14.3771984,33.208998 C14.3771984,32.6670757 13.9328221,32.2226994 13.3908998,32.2226994 C12.8489775,32.2226994 12.4046012,32.6670757 12.4046012,33.208998 L12.4046012,39.2351738 C12.4154397,40.3298569 11.5375256,41.2186094 10.4428425,41.2186094 Z M3.74468303,43.8523517 C2.83425358,43.8523517 2.09723926,43.1153374 2.09723926,42.204908 C2.09723926,41.2944785 2.83425358,40.5574642 3.74468303,40.5574642 C4.65511247,40.5574642 5.39212679,41.2944785 5.39212679,42.204908 C5.39212679,43.104499 4.64427403,43.8523517 3.74468303,43.8523517 Z" id="Shape" fill="#000000" fill-rule="nonzero"></path>
                            <path d="M25.042229,32.2443763 C24.5003067,32.2443763 24.0559305,32.6887526 24.0559305,33.2306748 L24.0559305,39.2568507 C24.0559305,41.4245399 25.8225971,43.1912065 27.9902863,43.1912065 L31.2201431,43.1912065 C31.653681,44.708589 33.041002,45.8249489 34.6992843,45.8249489 C36.6935583,45.8249489 38.3084867,44.199182 38.3084867,42.2157464 C38.3084867,40.2214724 36.6827198,38.606544 34.6992843,38.606544 C33.0518405,38.606544 31.653681,39.7229039 31.2201431,41.2402863 L28.0011247,41.2402863 C26.9172802,41.2402863 26.0285276,40.3515337 26.0285276,39.2676892 L26.0285276,33.2415133 C26.0285276,32.6779141 25.5841513,32.2443763 25.042229,32.2443763 Z M34.6992843,40.5466258 C35.6097137,40.5466258 36.346728,41.2836401 36.346728,42.1940695 C36.346728,43.104499 35.6097137,43.8415133 34.6992843,43.8415133 C33.7888548,43.8415133 33.0518405,43.104499 33.0518405,42.1940695 C33.0518405,41.2944785 33.7996933,40.5466258 34.6992843,40.5466258 Z" id="Shape" fill="#000000" fill-rule="nonzero"></path>
                            <circle id="Oval" fill="#0089F4" cx="19.2219836" cy="49.3474438" r="2.63374233"></circle>
                            <path d="M20.2949898,0 C16.3064417,0 12.6105317,2.17852761 10.6596115,5.61431493 C10.258589,5.52760736 9.85756646,5.49509202 9.43486708,5.49509202 C6.11830266,5.49509202 3.40869121,8.19386503 3.40869121,11.5212679 C3.40869121,11.9656442 3.45204499,12.399182 3.549591,12.8327198 C1.37106339,14.3717791 0.0379345603,16.9188139 0.0379345603,19.6284254 C0.0379345603,24.1588957 3.66881391,28.1907975 7.97167689,28.4292434 C7.99335378,28.4292434 8.00419223,28.4292434 8.02586912,28.4292434 L29.4643149,28.4292434 C29.4859918,28.4292434 29.5076687,28.4292434 29.5293456,28.4292434 C34.5041922,28.0824131 38.3951943,23.8120654 38.3951943,18.7288344 C38.3951943,14.2850716 35.3604294,10.3507157 31.2201431,9.28854806 C30.3747444,3.94519427 25.7900818,0 20.2949898,0 Z M35.3842745,18.6149166 C35.3842745,22.3242134 32.4345802,25.5496888 28.8135761,25.8117587 L8.74548335,25.8117587 C5.66356135,25.6303257 3.05969325,22.7173182 3.05969325,19.4515243 C3.05969325,17.334806 4.2090569,15.3592023 6.05007302,14.3008432 C6.43658469,14.0790917 6.6094978,13.60535 6.44675605,13.192086 C6.29418565,12.7889015 6.22298613,12.3554783 6.22298613,11.9018958 C6.22298613,9.81541636 7.93177457,8.12204175 10.037246,8.12204175 C10.4847859,8.12204175 10.9221543,8.20267864 11.3391801,8.34379319 C11.7867199,8.50506696 12.2851165,8.30347475 12.4987151,7.88013109 C13.9023627,4.92680513 16.9435993,3.02175869 20.2391199,3.02175869 C24.6738327,3.02175869 28.3355222,6.30771181 28.752548,10.6721833 C28.7932334,11.0854473 29.1085456,11.4180745 29.5154,11.4886318 C32.851606,12.05309 35.3842745,15.1172916 35.3842745,18.6149166 Z" id="Shape" fill="#000000" fill-rule="nonzero"></path>
                            <path d="M19.2219836,32.2443763 C18.6800613,32.2443763 18.2356851,32.6887526 18.2356851,33.2306748 L18.2356851,45.8791411 C16.750818,46.3018405 15.6452965,47.6566462 15.6019427,49.2607362 C15.5802658,50.2253579 15.9379346,51.1466258 16.5990798,51.8402863 C17.2602249,52.5339468 18.159816,52.9349693 19.1244376,52.9566462 L19.2111452,52.9566462 L19.2111452,52.9566462 C21.151227,52.9566462 22.7769939,51.3742331 22.8203476,49.4341513 C22.8420245,48.4695297 22.4843558,47.5482618 21.8232106,46.8546012 C21.3679959,46.3777096 20.8043967,46.0417178 20.1866053,45.8683027 L20.1866053,33.2198364 C20.2082822,32.6779141 19.7639059,32.2443763 19.2219836,32.2443763 Z M20.8694274,49.3907975 C20.8477505,50.2795501 20.1107362,50.9948875 19.2219836,50.9948875 L19.1786299,50.9948875 C18.7342536,50.9840491 18.3332311,50.7997955 18.0297546,50.4854806 C17.7262781,50.1711656 17.5637014,49.7484663 17.5745399,49.30409 C17.5962168,48.4153374 18.3332311,47.7 19.2219836,47.7 L19.2653374,47.7 C19.7097137,47.7108384 20.1107362,47.895092 20.4142127,48.209407 C20.7176892,48.5237219 20.8802658,48.9464213 20.8694274,49.3907975 Z" id="Shape" fill="#000000" fill-rule="nonzero"></path>
                        </g>
                    </g>
                </g>
            </g>
        </g>
    </g>
</svg>