<?xml version="1.0" encoding="UTF-8"?>
<svg width="45px" height="40px" viewBox="0 0 45 40" version="1.1" xmlns="http://www.w3.org/2000/svg" xmlns:xlink="http://www.w3.org/1999/xlink">
    <!-- Generator: Sketch 53 (72520) - https://sketchapp.com -->
    <title>ICON/MARKETING</title>
    <desc>Created with Sketch.</desc>
    <g id="MISSIONS-+-PROJECTS" stroke="none" stroke-width="1" fill="none" fill-rule="evenodd">
        <g id="MISSIONS/SINGLE_PROJECT/LOGGED_IN" transform="translate(-1018.000000, -1801.000000)">
            <g id="SKILLS-NEEDED" transform="translate(0.000000, 1336.000000)">
                <g id="DESIGN" transform="translate(345.000000, 423.000000)">
                    <g id="ICON/UX" transform="translate(673.000000, 39.000000)">
                        <g id="settings-2" stroke-width="1" fill-rule="evenodd" transform="translate(0.000000, 3.600000)" fill="#000000">
                            <path d="M41.484375,15.8203125 L41.484375,7.03125 C41.484375,5.09284969 39.9071503,3.515625 37.96875,3.515625 L7.03125,3.515625 C5.09284969,3.515625 3.515625,5.09284969 3.515625,7.03125 L3.515625,24.609375 C3.515625,26.5477753 5.09284969,28.125 7.03125,28.125 L37.96875,28.125 C39.9071503,28.125 41.484375,26.5477753 41.484375,24.609375 C41.484375,23.6384583 42.2712708,22.8515625 43.2421875,22.8515625 C44.2131042,22.8515625 45,23.6384583 45,24.609375 C45,28.4865188 41.8458938,31.640625 37.96875,31.640625 L24.2578125,31.640625 L24.2578125,35.145607 L30.4101562,35.145607 C31.381073,35.145607 32.1679688,35.9325027 32.1679688,36.9034195 C32.1679688,37.8743362 31.381073,38.661232 30.4101562,38.661232 L14.5898438,38.661232 C13.618927,38.661232 12.8320312,37.8743362 12.8320312,36.9034195 C12.8320312,35.9325027 13.618927,35.145607 14.5898438,35.145607 L20.7421875,35.145607 L20.7421875,31.640625 L7.03125,31.640625 C3.15410616,31.640625 0,28.4865188 0,24.609375 L0,7.03125 C0,3.15410616 3.15410616,0 7.03125,0 L37.96875,0 C41.8458938,0 45,3.15410616 45,7.03125 L45,15.8203125 C45,16.7912292 44.2131042,17.578125 43.2421875,17.578125 C42.2712708,17.578125 41.484375,16.7912292 41.484375,15.8203125 Z" id="Shape" fill-rule="nonzero"></path>
                        </g>
                        <path d="M35.473019,15.6847975 C35.47272,15.6737357 35.47272,15.6629729 35.472122,15.6522101 C35.4703283,15.6223134 35.4676375,15.5924168 35.463751,15.5631181 C35.4622562,15.5523553 35.4601634,15.5415925 35.4583696,15.5305307 C35.4544831,15.5084072 35.4502975,15.4862836 35.4452151,15.464459 C35.4428234,15.4533973 35.4407306,15.4426345 35.4377409,15.4318717 C35.4302667,15.402274 35.4215967,15.3732742 35.4117308,15.3445734 C35.4084422,15.3353055 35.4048546,15.3260375 35.4015659,15.3170685 C35.3917,15.2907594 35.3809372,15.2650483 35.3692775,15.2396361 C35.3668858,15.2342548 35.364793,15.2288733 35.3621023,15.223492 C35.347453,15.1926984 35.3310098,15.1628017 35.3136698,15.133503 C35.3118759,15.1302144 35.3103811,15.1269257 35.3085873,15.1239361 C35.3064946,15.1206474 35.3044018,15.1176577 35.302309,15.1143691 C35.284371,15.0853693 35.2652371,15.0566685 35.2446084,15.0291636 C35.2419178,15.025277 35.2386291,15.0216894 35.2359384,15.0181018 C35.2180004,14.9950814 35.1994645,14.9726589 35.1800316,14.9511333 C35.1734543,14.9439581 35.1671761,14.9367829 35.1605988,14.9296077 C35.1396711,14.9074841 35.1178466,14.8856596 35.0948262,14.8650309 C35.087053,14.8581547 35.0789809,14.8515774 35.0712078,14.8447012 C35.0535687,14.8297529 35.0356307,14.8154025 35.0170948,14.801351 C35.0084247,14.7947737 34.9997547,14.7881965 34.9907858,14.7816192 C34.9683632,14.765774 34.9453428,14.7502277 34.9214255,14.7358773 L34.9088689,14.7284032 C34.9079719,14.7278052 34.9070751,14.7272073 34.9058792,14.7266093 L29.2001006,11.2669672 C28.8353612,11.0457319 28.3779423,11.045134 28.012605,11.2651734 L22.2670639,14.7257124 C22.2649711,14.7272073 22.2628783,14.7284032 22.2607856,14.729599 L22.2533114,14.7340836 C22.2290951,14.7487329 22.2054767,14.7645781 22.1827553,14.7807223 C22.1728893,14.7875985 22.1636214,14.7947737 22.1540545,14.8019489 C22.1361164,14.8154025 22.1187764,14.8294539 22.1017353,14.8438043 C22.0936632,14.8509795 22.0852921,14.8575568 22.077519,14.864732 C22.0544985,14.8850617 22.0329729,14.9065873 22.0120453,14.9287108 C22.0051691,14.9361849 21.9982928,14.9439581 21.9914166,14.9514323 C21.9719837,14.9732569 21.9534479,14.9953804 21.9358088,15.0184008 C21.9331181,15.0219884 21.9301284,15.025277 21.9274377,15.0288646 C21.9068091,15.0560706 21.8879741,15.0847714 21.8700361,15.1137712 C21.8679434,15.1173588 21.8652527,15.1203484 21.8631599,15.1239361 C21.8613661,15.1269257 21.8598713,15.1302144 21.8580775,15.133503 C21.8407374,15.1625028 21.8245932,15.1921004 21.8102428,15.222595 C21.8072532,15.2285744 21.8048614,15.2348527 21.8021707,15.240832 C21.79081,15.2656462 21.7800472,15.2910584 21.7704803,15.3167696 C21.7671916,15.3260375 21.763604,15.3350065 21.7603154,15.3442745 C21.7504495,15.3729753 21.7417795,15.401975 21.7343052,15.4312737 C21.7313156,15.4423356 21.7292228,15.4533973 21.7265321,15.464459 C21.7217487,15.4862836 21.7175631,15.5084072 21.7136766,15.5305307 C21.7118828,15.5412935 21.70979,15.5520563 21.7082952,15.5631181 C21.7044086,15.5924168 21.7017179,15.6220145 21.6999241,15.6519112 C21.6993262,15.6629729 21.6993262,15.6737357 21.6990272,15.6847975 C21.6987283,15.6955603 21.6978313,15.7066221 21.6978313,15.7173849 L21.6978313,22.655205 C21.6978313,23.0570162 21.9080049,23.4298277 22.2521156,23.6376095 L27.9922753,27.1065196 C28.0012443,27.111901 28.0105123,27.1166845 28.0197802,27.1217669 C28.0302441,27.1277462 28.040409,27.1337255 28.0511718,27.1394059 C28.0783777,27.1537563 28.1055837,27.1672098 28.1336866,27.1791685 C28.1426555,27.1830551 28.1519235,27.1863437 28.1608925,27.1899313 C28.1824181,27.1986013 28.2042427,27.2066734 28.2260672,27.2138486 C28.2380259,27.2177352 28.2499846,27.2216218 28.2619432,27.2252094 C28.2879534,27.2326835 28.3136644,27.2392608 28.3399735,27.2452402 C28.3480456,27.2470339 28.3561177,27.2488277 28.3641898,27.2503226 C28.3940865,27.2563019 28.4242821,27.2607864 28.4544778,27.264075 C28.4640447,27.2652709 28.4733127,27.2661678 28.4831786,27.2670647 C28.5172607,27.2700543 28.5516419,27.2724461 28.5860231,27.2724461 C28.6201052,27.2724461 28.6544864,27.2700543 28.6888676,27.2670647 C28.6984345,27.2661678 28.7080015,27.2652709 28.7175684,27.264075 C28.747764,27.2607864 28.7776607,27.2563019 28.8075574,27.2503226 C28.8159284,27.2488277 28.8240005,27.2470339 28.8320727,27.2452402 C28.8580828,27.2392608 28.8840928,27.2326835 28.909804,27.2252094 C28.9220616,27.2216218 28.9340203,27.2177352 28.94568,27.2138486 C28.9675045,27.2066734 28.9893291,27.1986013 29.0108547,27.1899313 C29.0201227,27.1863437 29.0293907,27.1830551 29.0383596,27.1791685 C29.0661636,27.1672098 29.0936684,27.1537563 29.1205755,27.1394059 C29.1313383,27.1340245 29.1418021,27.1277462 29.152266,27.1217669 C29.1612349,27.1166845 29.1705029,27.111901 29.1797708,27.1065196 L34.9199306,23.6376095 C35.2637423,23.4298277 35.4739159,23.0570162 35.4739159,22.655205 L35.4739159,15.7173849 C35.4742148,15.7066221 35.4733179,15.6955603 35.473019,15.6847975 Z M28.6030642,13.5899382 L32.1093451,15.71589 L28.5860231,17.8451305 L25.0680824,15.7191786 L28.6030642,13.5899382 Z M23.9938953,17.7527499 L27.4379911,19.8338567 L27.4379911,24.0890491 L23.9938953,22.0076433 L23.9938953,17.7527499 Z M29.734055,24.0890491 L29.734055,19.8338567 L33.1781509,17.7527499 L33.1781509,22.0076433 L29.734055,24.0890491 Z" id="Shape" fill="#FB40E5" fill-rule="nonzero"></path>
                        <g id="Group" stroke-width="1" fill-rule="evenodd" transform="translate(9.900000, 13.182561)">
                            <path d="M5.81669525,2.29606391 L1.14803196,2.29606391 C0.5139237,2.29606391 0,1.78214021 0,1.14803196 C0,0.5139237 0.5139237,0 1.14803196,0 L5.81669525,0 C6.45080351,0 6.96472721,0.5139237 6.96472721,1.14803196 C6.96472721,1.78214021 6.45080351,2.29606391 5.81669525,2.29606391 Z" id="Path" fill="#0089F4"></path>
                            <path d="M5.81669525,6.88819174 L1.14803196,6.88819174 C0.5139237,6.88819174 0,6.37426804 0,5.74015979 C0,5.10605153 0.5139237,4.59212783 1.14803196,4.59212783 L5.81669525,4.59212783 C6.45080351,4.59212783 6.96472721,5.10605153 6.96472721,5.74015979 C6.96472721,6.37426804 6.45080351,6.88819174 5.81669525,6.88819174 Z" id="Path" fill="#5037F7"></path>
                            <path d="M5.81669525,11.4803196 L1.14803196,11.4803196 C0.5139237,11.4803196 0,10.9663959 0,10.3322876 C0,9.69817936 0.5139237,9.18425566 1.14803196,9.18425566 L5.81669525,9.18425566 C6.45080351,9.18425566 6.96472721,9.69817936 6.96472721,10.3322876 C6.96472721,10.9663959 6.45080351,11.4803196 5.81669525,11.4803196 Z" id="Path" fill="#3A3A3A"></path>
                        </g>
                    </g>
                </g>
            </g>
        </g>
    </g>
</svg>