<?xml version="1.0" encoding="utf-8"?>
<!-- Generator: Adobe Illustrator 19.0.0, SVG Export Plug-In . SVG Version: 6.00 Build 0)  -->
<svg version="1.1" id="Layer_1" xmlns="http://www.w3.org/2000/svg" xmlns:xlink="http://www.w3.org/1999/xlink" x="0px" y="0px"
	 viewBox="0 0 1782.5 1531" style="enable-background:new 0 0 1782.5 1531;" xml:space="preserve">
<style type="text/css">
	.st0{fill:#3B5A79;}
	.st1{fill:#231F20;}
	.st2{fill:url(#XMLID_63_);}
	.st3{clip-path:url(#XMLID_64_);}
</style>
<g id="XMLID_6_">
	<circle id="XMLID_4_" class="st0" cx="890.7" cy="629.5" r="3.2"/>
	<path id="XMLID_8_" class="st1" d="M819.7,218.9c9.2-9.5,29.7-10.3,70.9-10.3c62.9,0,77.5,1.8,77.5,33.7c0,14.8,0,29.7,0,44.5
		c0,8.8,7.2,15.3,15.1,17.6c12.3,3.6,24.3,8.1,36.2,13c12.2,5,24.1,10.5,35.6,16.8c7.2,4,17,4.4,23.2-1.8l31.5-31.5
		c22.6-22.6,34.1-13.5,78.6,31c2.8,2.8,5.4,5.4,7.9,7.9c37.5,38,44.2,49.5,23,70.6l-31.5,31.5c-6.2,6.2-5.7,15.9-1.8,23.2
		c6.3,11.5,11.8,23.4,16.8,35.6c4.9,11.9,9.4,24,13,36.2c2.3,7.9,8.8,15.1,17.6,15.1c14.8,0,29.7,0,44.5,0
		c31.9,0,33.7,14.6,33.7,77.5c0,62.9-1.8,77.5-33.7,77.5h-44.5c-8.8,0-15.3,7.2-17.6,15.1c-2.3,7.9-5,15.8-8,23.6
		c-22.6-3.9-46.1-2-67.5,6.8c-11.5-11.2-22.9-22.4-34.4-33.6c35-84.5,18.2-185.4-50.5-254.1c-68.8-68.8-169.9-85.5-254.5-50.3
		c-10.9-11.1-21.9-22.1-32.8-33.2c8.3-22.1,10.4-46,7-69.1c7.6-2.9,15.2-5.5,22.9-7.8c7.9-2.3,15.1-8.8,15.1-17.6v-44.5
		C813.2,231.3,814.9,223.9,819.7,218.9L819.7,218.9z M480,558.6c5-4.8,12.4-6.6,23.4-6.6c14.8,0,29.7,0,44.5,0
		c8.8,0,15.3-7.3,17.6-15.2c2.3-7.9,5-15.7,7.9-23.5c22.5,4,45.9,2.1,67.3-6.9c11.5,11.2,23,22.5,34.5,33.8
		c-34.9,84.5-18.1,185.3,50.6,253.9c68.7,68.7,169.7,85.6,254.2,50.5c11,11,22,22,33,33c-7.9,22.1-10.3,46-7,69.1
		c-7.5,2.8-15.1,5.4-22.8,7.7c-7.9,2.3-15.2,8.9-15.2,17.6c0,14.8,0,29.7,0,44.5c0,31.9-14.6,33.7-77.5,33.7s-77.5-1.8-77.5-33.7
		v-44.5c0-8.8-7.2-15.3-15.1-17.6c-12.5-3.7-24.9-8.2-37-13.2c-11.9-5-23.6-10.4-34.9-16.5c-7.2-4-17-4.4-23.2,1.8L671.6,958
		c-22.6,22.6-34.2,13.5-78.6-30.9c-44.5-44.5-53.5-56-30.9-78.6l31.5-31.5c6.2-6.2,5.7-15.9,1.8-23.2c-6.2-11.3-11.6-23-16.6-35
		c-5-12.1-9.5-24.4-13.2-36.8c-2.3-7.9-8.8-15.1-17.6-15.1l-44.5,0c-31.9,0-33.7-14.6-33.7-77.5C469.7,588.2,470.5,567.8,480,558.6z
		"/>
	
		<linearGradient id="XMLID_63_" gradientUnits="userSpaceOnUse" x1="1950.5718" y1="691.6392" x2="2780.2993" y2="691.6392" gradientTransform="matrix(4.489659e-11 -1 1 4.489659e-11 199.0133 2994.9375)">
		<stop  offset="0" style="stop-color:#FB40E5"/>
		<stop  offset="0.2457" style="stop-color:#C151E8"/>
		<stop  offset="0.8084" style="stop-color:#327AF1"/>
		<stop  offset="1" style="stop-color:#0089F4"/>
	</linearGradient>
	<path id="XMLID_1_" class="st2" d="M721.4,249.4c29.1,30.4,40.6,79.9,27.5,117.4c-2.4,7-8.5,18.2-4,22.8
		c126,128.5,260.3,261.5,385.7,385.7c6,6,13.8-0.7,25.9-4.4c45.3-13.9,83.6,4.9,108.2,28.8c9.6,9.4,17.1,19.5,22.1,28.9
		c26.8,49.7,28.6,98.5,2.3,135c-1.6,2.2-3.8,3.6-6.1,4.4c-1.6,0.5-3.3-0.3-4-1.4c-14-21.8-28.4-42.4-42-65.5
		c-8.8-14.9-34.4-35-80.3-3.7c-37,25.2-37.6,49.3-25.3,69.9c12.7,21.3,27.4,44,41.1,66.1c0.7,1.1,0.7,3-0.5,4.2
		c-1.7,1.7-3.9,3.2-6.6,3.6c-36.5,6.6-67.3,5.3-102.6-28.7c-31.2-30.1-43.9-81.6-30.4-120.3c2.4-7,8.5-18.2,4-22.8
		C908.3,740.6,768.9,601.2,650.7,483.7c-6-6-13.8,0.7-25.9,4.4c-45.3,13.9-83.6-4.9-108.2-28.8c-9.6-9.4-17.1-19.5-22.1-28.9
		c-26.8-49.7-28.6-98.5-2.3-135c1.6-2.2,3.8-3.6,6.1-4.4c1.6-0.5,3.3,0.3,4,1.4c14,21.8,28.4,42.4,42,65.5
		c8.8,14.9,34.4,35,80.3,3.7c37-25.2,37.6-49.3,25.3-69.9c-12.7-21.3-27.4-44-41.1-66.1c-0.7-1.1-0.7-3,0.5-4.2
		c1.7-1.7,3.9-3.2,6.6-3.6c36.5-6.6,67.3-5.3,102.6,28.7C719.4,247.4,720.4,248.4,721.4,249.4L721.4,249.4z"/>
</g>
<g id="XMLID_10_">
	<defs>
		<path id="XMLID_5_" d="M1636.1,625.4V279.6c0-76.3-62-138.3-138.3-138.3H280.6c-76.3,0-138.3,62-138.3,138.3v691.5
			c0,76.3,62,138.3,138.3,138.3h1217.1c76.3,0,138.3-62,138.3-138.3c0-38.2,31-69.2,69.2-69.2c38.2,0,69.2,31,69.2,69.2
			c0,152.5-124.1,276.6-276.6,276.6H958.4v137.9h242c38.2,0,69.2,31,69.2,69.2c0,38.2-31,69.2-69.2,69.2H578
			c-38.2,0-69.2-31-69.2-69.2c0-38.2,31-69.2,69.2-69.2h242v-137.9H280.6C128.1,1247.8,4,1123.7,4,971.1V279.6
			C4,127.1,128.1,3,280.6,3h1217.1c152.5,0,276.6,124.1,276.6,276.6v345.8c0,38.2-31,69.2-69.2,69.2
			C1667,694.5,1636.1,663.6,1636.1,625.4z"/>
	</defs>
	<clipPath id="XMLID_64_">
		<use xlink:href="#XMLID_5_"  style="overflow:visible;"/>
	</clipPath>
	<rect id="XMLID_7_" x="-173" y="-174" class="st3" width="2124.4" height="1875"/>
</g>
</svg>
