<?xml version="1.0" encoding="UTF-8"?>
<svg width="42px" height="42px" viewBox="0 0 42 42" version="1.1" xmlns="http://www.w3.org/2000/svg" xmlns:xlink="http://www.w3.org/1999/xlink">
    <!-- Generator: Sketch 53 (72520) - https://sketchapp.com -->
    <title>ICON/MARKETING</title>
    <desc>Created with Sketch.</desc>
    <g id="MISSIONS-+-PROJECTS" stroke="none" stroke-width="1" fill="none" fill-rule="evenodd">
        <g id="MISSIONS/SINGLE_PROJECT/LOGGED_IN" transform="translate(-1019.000000, -2011.000000)">
            <g id="SKILLS-NEEDED" transform="translate(0.000000, 1336.000000)">
                <g id="RESEARCH" transform="translate(345.000000, 637.000000)">
                    <g id="ICON/RESEARCH" transform="translate(674.000000, 38.000000)">
                        <g id="tools-and-utensils">
                            <path d="M23.9381133,9.79461328 L33.0883711,9.79461328 C33.768082,9.79461328 34.3190859,9.24360938 34.3190859,8.56389844 C34.3190859,7.8841875 33.768082,7.33318359 33.0883711,7.33318359 L23.9381133,7.33318359 C23.2584023,7.33318359 22.7073984,7.8841875 22.7073984,8.56389844 C22.7073984,9.24360938 23.2584023,9.79461328 23.9381133,9.79461328 Z" id="Path" fill="#000000"></path>
                            <path d="M35.5498008,12.256043 L21.4766836,12.256043 C20.7969727,12.256043 20.2459687,12.8070469 20.2459687,13.4867578 C20.2459687,14.1664687 20.7969727,14.7174727 21.4766836,14.7174727 L35.5497187,14.7174727 C36.2294297,14.7174727 36.7804336,14.1664687 36.7804336,13.4867578 C36.7805156,12.8070469 36.2294297,12.256043 35.5498008,12.256043 Z" id="Path" fill="#0089F4"></path>
                            <path d="M33.0883711,17.1789023 L23.9381133,17.1789023 C23.2584023,17.1789023 22.7073984,17.7299063 22.7073984,18.4096172 C22.7073984,19.0893281 23.2584023,19.640332 23.9381133,19.640332 L33.0883711,19.640332 C33.768082,19.640332 34.3190859,19.0893281 34.3190859,18.4096172 C34.3190859,17.7299062 33.768082,17.1789023 33.0883711,17.1789023 Z" id="Path" fill="#FB40E5"></path>
                            <path d="M38.0542969,3.94570312 C32.7935508,-1.315125 24.2333437,-1.31528906 18.9721875,3.94570312 C14.0046211,8.91326953 13.7285859,16.8218203 18.1420313,22.1175117 L15.0770977,25.1824453 C14.4795,24.8646562 13.8094688,24.695918 13.1135156,24.695918 C11.9941992,24.695918 10.9417383,25.131832 10.1503008,25.9233516 L8.8396875,27.2339648 L14.7660352,33.1603125 L16.0766484,31.8496992 C16.868168,31.0582617 17.304082,30.0058008 17.304082,28.8864023 C17.304082,28.1904492 17.1353438,27.520418 16.8175547,26.9228203 L19.8819141,23.8584609 C22.3014258,25.8791367 25.3225547,26.979832 28.5131602,26.979832 C32.1172852,26.979832 35.50575,25.5762773 38.0542148,23.0277305 C43.315207,17.7668203 43.315207,9.20661328 38.0542969,3.94570312 Z M36.3138398,21.2873555 C34.2302461,23.3709492 31.4599688,24.5184844 28.5132422,24.5184844 C25.5665977,24.5184844 22.7963203,23.3709492 20.7126445,21.2873555 C16.411418,16.9860469 16.411418,9.98746875 20.7126445,5.68616016 C22.8632578,3.53554688 25.68825,2.46011719 28.5132422,2.46011719 C31.3382344,2.46011719 34.1632266,3.53546484 36.3138398,5.68607812 C40.6150664,9.98746875 40.6150664,16.9860469 36.3138398,21.2873555 Z" id="Shape" fill="#000000" fill-rule="nonzero"></path>
                            <path d="M1.22546484,34.8481875 C-0.408433594,36.4820039 -0.408433594,39.1406367 1.22538281,40.7746172 C1.22546484,40.7746172 1.22546484,40.7746992 1.22546484,40.7746992 C2.04241406,41.5915664 3.11554688,42 4.18867969,42 C5.2618125,42 6.33494531,41.5914844 7.15189453,40.7745352 L13.0256602,34.9007695 L7.09923047,28.9743398 L1.22546484,34.8481875 Z" id="Path" fill="#000000"></path>
                        </g>
                    </g>
                </g>
            </g>
        </g>
    </g>
</svg>