<?xml version="1.0" encoding="UTF-8"?>
<svg width="36px" height="36px" viewBox="0 0 36 36" version="1.1" xmlns="http://www.w3.org/2000/svg" xmlns:xlink="http://www.w3.org/1999/xlink">
    <!-- Generator: Sketch 53 (72520) - https://sketchapp.com -->
    <title>ICON/MARKETING</title>
    <desc>Created with Sketch.</desc>
    <g id="MISSIONS-+-PROJECTS" stroke="none" stroke-width="1" fill="none" fill-rule="evenodd">
        <g id="MISSIONS/SINGLE_PROJECT/LOGGED_IN" transform="translate(-1020.000000, -2882.000000)">
            <g id="SKILLS-NEEDED" transform="translate(0.000000, 1336.000000)">
                <g id="WRITING" transform="translate(345.000000, 1505.000000)">
                    <g id="ICON/WRITING" transform="translate(675.000000, 41.000000)">
                        <g id="pen" transform="translate(0.720000, 0.000000)">
                            <g id="Group" transform="translate(22.220441, 0.000000)">
                                <polygon id="Path" fill="#292929" points="12.2356713 7.8492986 4.27094188 7.6761523 4.38637275 0 12.2356713 0"></polygon>
                                <polygon id="Path" fill="#1C1C1C" points="5.77154309 12.2356713 0.0577154309 6.46412826 4.38637275 0 12.2356713 7.8492986"></polygon>
                            </g>
                            <path d="M27.1839679,13.9094188 L20.5466934,7.27214429 L10.6773547,10.5042084 L4.32865731,27.4725451 L4.79038076,27.9342685 L12.0625251,20.6621242 C11.658517,19.6809619 11.8893788,18.4689379 12.6973948,17.6609218 C13.793988,16.5643287 15.5831663,16.5643287 16.6797595,17.6609218 C17.7763527,18.757515 17.7763527,20.5466934 16.6797595,21.6432866 C15.8717435,22.4513026 14.7174349,22.6821643 13.6785571,22.2781563 L6.52184369,29.608016 L6.98356713,30.0697395 L23.9519038,23.7210421 L27.1839679,13.9094188 Z" id="Path" fill="#FB40E5"></path>
                            <path d="M12.8128257,17.7186373 C13.9094188,16.6220441 15.6985972,16.6220441 16.7951904,17.7186373 C17.8917836,18.8152305 17.8917836,20.6044088 16.7951904,21.701002 C15.9871743,22.509018 14.8328657,22.7398798 13.793988,22.3358717 L6.52184369,29.608016 L6.98356713,30.0697395 L23.9519038,23.7210421 L27.1839679,13.8517034 L20.5466934,7.27214429" id="Path" fill="#0089F4"></path>
                            <polyline id="Path" fill="#5037F7" points="23.9519038 23.7787575 27.1839679 13.9094188 20.5466934 7.27214429"></polyline>
                            <path d="M30.1851703,14.2557114 C29.204008,15.2368737 27.6456914,15.2368737 26.6645291,14.2557114 L20.2581162,7.8492986 C19.2769539,6.86813627 19.2769539,5.30981964 20.2581162,4.32865731 L20.2581162,4.32865731 C21.2392786,3.34749499 22.7975952,3.34749499 23.7787575,4.32865731 L30.1851703,10.7350701 C31.1663327,11.658517 31.1663327,13.2745491 30.1851703,14.2557114 L30.1851703,14.2557114 Z" id="Path" fill="#A2A2A2"></path>
                            <path d="M30.1851703,14.2557114 L30.1851703,14.2557114 C29.204008,15.2368737 27.6456914,15.2368737 26.6645291,14.2557114 L20.2581162,7.8492986 C19.2769539,6.86813627 19.2769539,5.30981964 20.2581162,4.32865731 L20.2581162,4.32865731" id="Path" fill="#313131"></path>
                            <g id="Group" transform="translate(0.000000, 28.857715)" fill="#000000">
                                <path d="M33.2440882,7.098998 L3.52064128,7.098998 C1.61603206,7.098998 0.0577154309,5.65611222 0.0577154309,3.75150301 C0.0577154309,1.84689379 1.61603206,0.346292585 3.52064128,0.346292585 C3.98236473,0.346292585 4.38637275,0.750300601 4.38637275,1.21202405 C4.38637275,1.67374749 3.98236473,2.07775551 3.52064128,2.07775551 C2.53947896,2.07775551 1.78917836,2.77034068 1.78917836,3.69378758 C1.78917836,4.61723447 2.53947896,5.30981964 3.52064128,5.30981964 L33.2440882,5.30981964 C33.7058116,5.30981964 34.1098196,5.71382766 34.1098196,6.1755511 C34.1098196,6.63727455 33.7058116,7.098998 33.2440882,7.098998 Z" id="Path"></path>
                                <circle id="Oval" cx="4.21322645" cy="1.26973948" r="1.21202405"></circle>
                            </g>
                        </g>
                    </g>
                </g>
            </g>
        </g>
    </g>
</svg>