<?xml version="1.0" encoding="UTF-8"?>
<svg width="17px" height="15px" viewBox="0 0 17 15" version="1.1" xmlns="http://www.w3.org/2000/svg" xmlns:xlink="http://www.w3.org/1999/xlink">
    <!-- Generator: Sketch 52.4 (67378) - http://www.bohemiancoding.com/sketch -->
    <title>ICON/ALERT</title>
    <desc>Created with Sketch.</desc>
    <g id="Symbols" stroke="none" stroke-width="1" fill="none" fill-rule="evenodd">
        <g id="INPUT_FIELD/ERROR" transform="translate(0.000000, -68.000000)" fill="#D0021B">
            <g id="INPUT_FIELD_FILLED" transform="translate(0.000000, 2.000000)">
                <g id="ERROR_FIELD" transform="translate(0.000000, 66.000000)">
                    <g id="ICON/ALERT">
                        <g id="Shape">
                            <path d="M16.8494612,13.3316921 L9.46406867,0.555233737 C9.03598042,-0.185077912 7.96401958,-0.185077912 7.53593133,0.555233737 L0.15053881,13.3316921 C-0.277549446,14.0720037 0.258430973,15 1.11460748,15 L15.8853925,15 C16.741569,15 17.2775494,14.0720037 16.8494612,13.3316921 Z M8.51044118,4.48965997 C8.98377453,4.48965997 9.36661769,4.88240746 9.35269612,5.35509471 L9.21348043,10.2070903 C9.20303925,10.5894109 8.88980394,10.8917917 8.50696078,10.8917917 C8.12411763,10.8917917 7.81088232,10.5859352 7.80044114,10.2070903 L7.66470584,5.35509471 C7.65426466,4.88240746 8.03362743,4.48965997 8.51044118,4.48965997 Z M8.5,13.2656549 C8.01622547,13.2656549 7.62294113,12.8729074 7.62294113,12.3897932 C7.62294113,11.906679 8.01622547,11.5139315 8.5,11.5139315 C8.98377453,11.5139315 9.37705887,11.906679 9.37705887,12.3897932 C9.37705887,12.8729074 8.98377453,13.2656549 8.5,13.2656549 Z" fill-rule="nonzero"></path>
                        </g>
                    </g>
                </g>
            </g>
        </g>
    </g>
</svg>