<?xml version="1.0" encoding="UTF-8"?>
<svg width="60px" height="70px" viewBox="0 0 60 70" version="1.1" xmlns="http://www.w3.org/2000/svg" xmlns:xlink="http://www.w3.org/1999/xlink">
    <!-- Generator: Sketch 52.4 (67378) - http://www.bohemiancoding.com/sketch -->
    <title>ICON/BATCH/GREY</title>
    <desc>Created with Sketch.</desc>
    <g id="Symbols" stroke="none" stroke-width="1" fill="none" fill-rule="evenodd">
        <g id="ICON/BATCH/GREY" transform="translate(-8.000000, -3.000000)" fill="#3A3A3A" fill-rule="nonzero">
            <g transform="translate(8.000000, 3.000000)" id="Combined-Shape">
                <path d="M29.838785,35.2702703 L29.838785,69.6772255 L0.301401869,52.4737479 L29.838785,35.2702703 Z M8.24229573e-13,17.8106808 L29.2359813,34.8386128 L-2.26840768e-12,51.8665447 L8.24229573e-13,17.8106808 Z M30.2406542,4.4408921e-14 L59.7780374,17.2034776 L30.2406542,34.4069552 L30.2406542,4.4408921e-14 Z M30.2406542,35.2702703 L59.7780374,52.4737479 L30.2406542,69.6772255 L30.2406542,35.2702703 Z M29.838785,1.24344979e-12 L29.838785,34.4069552 L0.301401869,17.2034776 L29.838785,1.24344979e-12 Z M30.8434579,34.8386128 L59.4766355,18.1617722 L59.4766355,51.5154533 L30.8434579,34.8386128 Z"></path>
            </g>
        </g>
    </g>
</svg>