<?xml version="1.0" encoding="UTF-8"?>
<svg width="12px" height="11px" viewBox="0 0 12 11" version="1.1" xmlns="http://www.w3.org/2000/svg" xmlns:xlink="http://www.w3.org/1999/xlink">
    <!-- Generator: Sketch 57.1 (83088) - https://sketch.com -->
    <title>ICON/AML_KYC/PASSED Copy 5</title>
    <desc>Created with Sketch.</desc>
    <g id="Token-Admin-Dashboard" stroke="none" stroke-width="1" fill="none" fill-rule="evenodd">
        <g id="Token_Admin_Dashboard/Transfers" transform="translate(-1104.000000, -429.000000)" fill="#3A3A3A">
            <g id="Checkbox-alternative-Copy" transform="translate(1096.000000, 392.000000)">
                <g id="ICON/BOUGHT" transform="translate(9.000000, 37.000000)">
                    <path d="M9.94583333,2.2 L0.779166667,2.2 C0.374733333,2.2 0.0458333333,1.8711 0.0458333333,1.46666667 C0.0458333333,1.06223333 0.374733333,0.733333333 0.779166667,0.733333333 L7.37916667,0.733333333 L7.37916667,1.46666667 L8.1125,1.46666667 L8.1125,0.366666667 C8.1125,0.164266667 7.94823333,0 7.74583333,0 L0.779166667,0 C-0.0297,0 -0.6875,0.6578 -0.6875,1.46666667 L-0.6875,9.16666667 C-0.6875,10.1775667 0.134933333,11 1.14583333,11 L9.94583333,11 C10.1482333,11 10.3125,10.8357333 10.3125,10.6333333 L10.3125,2.56666667 C10.3125,2.36426667 10.1482333,2.2 9.94583333,2.2 Z M8.1125,7.33333333 C7.70733333,7.33333333 7.37916667,7.00516667 7.37916667,6.6 C7.37916667,6.19483333 7.70733333,5.86666667 8.1125,5.86666667 C8.51766667,5.86666667 8.84583333,6.19483333 8.84583333,6.6 C8.84583333,7.00516667 8.51766667,7.33333333 8.1125,7.33333333 Z" id="wallet-43"></path>
                </g>
            </g>
        </g>
    </g>
</svg>