<?xml version="1.0" encoding="UTF-8"?>
<svg width="18px" height="21px" viewBox="0 0 18 21" version="1.1" xmlns="http://www.w3.org/2000/svg" xmlns:xlink="http://www.w3.org/1999/xlink">
    <!-- Generator: Sketch 54.1 (76490) - https://sketchapp.com -->
    <title>Discord-Logo-Color</title>
    <desc>Created with Sketch.</desc>
    <g id="MY-TASKS" stroke="none" stroke-width="1" fill="none" fill-rule="evenodd">
        <g id="COMAKERY/MY_TASKS/FULL_PAGE/SUBMITTED" transform="translate(-752.000000, -711.000000)" fill="#7289DA" fill-rule="nonzero">
            <g id="CHAT" transform="translate(751.000000, 685.000000)">
                <g id="Discord-Logo-Color" transform="translate(1.000000, 26.000000)">
                    <path d="M7.13828571,8.62971429 C6.552,8.62971429 6.08914286,9.144 6.08914286,9.77142857 C6.08914286,10.3988571 6.56228571,10.9131429 7.13828571,10.9131429 C7.72457143,10.9131429 8.18742857,10.3988571 8.18742857,9.77142857 C8.19771429,9.144 7.72457143,8.62971429 7.13828571,8.62971429 Z M10.8925714,8.62971429 C10.3062857,8.62971429 9.84342857,9.144 9.84342857,9.77142857 C9.84342857,10.3988571 10.3165714,10.9131429 10.8925714,10.9131429 C11.4788571,10.9131429 11.9417143,10.3988571 11.9417143,9.77142857 C11.9417143,9.144 11.4788571,8.62971429 10.8925714,8.62971429 Z" id="Shape"></path>
                    <path d="M15.8914286,0 L2.10857143,0 C0.946285714,0 0,0.946285714 0,2.11885714 L0,16.0251429 C0,17.1977143 0.946285714,18.144 2.10857143,18.144 L13.7725714,18.144 L13.2274286,16.2411429 L14.544,17.4651429 L15.7885714,18.6171429 L18,20.5714286 L18,2.11885714 C18,0.946285714 17.0537143,0 15.8914286,0 Z M11.9211429,13.4331429 C11.9211429,13.4331429 11.5508571,12.9908571 11.2422857,12.6 C12.5897143,12.2194286 13.104,11.376 13.104,11.376 C12.6822857,11.6537143 12.2811429,11.8491429 11.9211429,11.9828571 C11.4068571,12.1988571 10.9131429,12.3428571 10.4297143,12.4251429 C9.44228571,12.6102857 8.53714286,12.5588571 7.76571429,12.4148571 C7.17942857,12.3017143 6.67542857,12.1371429 6.25371429,11.9725714 C6.01714286,11.88 5.76,11.7668571 5.50285714,11.6228571 C5.472,11.6022857 5.44114286,11.592 5.41028571,11.5714286 C5.38971429,11.5611429 5.37942857,11.5508571 5.36914286,11.5405714 C5.184,11.4377143 5.08114286,11.3657143 5.08114286,11.3657143 C5.08114286,11.3657143 5.57485714,12.1885714 6.88114286,12.5794286 C6.57257143,12.9702857 6.192,13.4331429 6.192,13.4331429 C3.91885714,13.3611429 3.05485714,11.8697143 3.05485714,11.8697143 C3.05485714,8.55771429 4.536,5.87314286 4.536,5.87314286 C6.01714286,4.76228571 7.42628571,4.79314286 7.42628571,4.79314286 L7.52914286,4.91657143 C5.67771429,5.45142857 4.824,6.264 4.824,6.264 C4.824,6.264 5.05028571,6.14057143 5.43085714,5.96571429 C6.53142857,5.48228571 7.40571429,5.34857143 7.76571429,5.31771429 C7.82742857,5.30742857 7.87885714,5.29714286 7.94057143,5.29714286 C8.568,5.21485714 9.27771429,5.19428571 10.0182857,5.27657143 C10.9954286,5.38971429 12.0445714,5.67771429 13.1142857,6.264 C13.1142857,6.264 12.3017143,5.49257143 10.5531429,4.95771429 L10.6971429,4.79314286 C10.6971429,4.79314286 12.1062857,4.76228571 13.5874286,5.87314286 C13.5874286,5.87314286 15.0685714,8.55771429 15.0685714,11.8697143 C15.0685714,11.8697143 14.1942857,13.3611429 11.9211429,13.4331429 L11.9211429,13.4331429 Z" id="Shape"></path>
                </g>
            </g>
        </g>
    </g>
</svg>