<?xml version="1.0" encoding="UTF-8"?>
<svg width="11px" height="11px" viewBox="0 0 11 11" version="1.1" xmlns="http://www.w3.org/2000/svg" xmlns:xlink="http://www.w3.org/1999/xlink">
    <!-- Generator: Sketch 57.1 (83088) - https://sketch.com -->
    <title>ICON/AML_KYC/PASSED Copy 7</title>
    <desc>Created with Sketch.</desc>
    <g id="Token-Admin-Dashboard" stroke="none" stroke-width="1" fill="none" fill-rule="evenodd">
        <g id="Token_Admin_Dashboard/Transfers" transform="translate(-1195.000000, -429.000000)" fill="#3A3A3A">
            <g id="Checkbox-alternative-Copy" transform="translate(1096.000000, 392.000000)">
                <g id="ICON/EARNED" transform="translate(99.000000, 37.000000)">
                    <g id="settings-copy">
                        <path d="M10.3312,8.25 L7.21893333,5.51668333 L5.58726667,7.42995 L8.25,10.3302833 C8.26668333,10.3486167 8.283,10.36695 8.30133333,10.3852833 C8.57761227,10.6614836 8.95227978,10.8166447 9.34294167,10.8166447 C9.73360355,10.8166447 10.1082711,10.6614836 10.38455,10.3852833 C10.4028833,10.36695 10.4192,10.3486167 10.4358833,10.3302833 C10.69785,10.0405322 10.8339909,9.65858648 10.8143592,9.26846213 C10.7947275,8.87833797 10.6209312,8.51198883 10.3312,8.25 Z" id="Fill-1"></path>
                        <path d="M1.52038333,3.24628333 C1.55475705,3.28066732 1.60138092,3.29998955 1.65,3.3 L2.49095,3.3 L4.12811667,4.93735 L5.00151667,4.19228333 L3.3,2.49076667 L3.3,1.65 C3.29998955,1.60138092 3.28066732,1.55475705 3.24628333,1.52038333 L1.96295,0.23705 C1.92856987,0.202680317 1.88194673,0.183372567 1.83333333,0.183372567 C1.78471993,0.183372567 1.7380968,0.202680317 1.70371667,0.23705 L0.23705,1.70371667 C0.202680317,1.7380968 0.183372567,1.78471993 0.183372567,1.83333333 C0.183372567,1.88194673 0.202680317,1.92856987 0.23705,1.96295 L1.52038333,3.24628333 Z" id="Fill-3"></path>
                        <path d="M10.7231667,1.98586667 L9.44368333,3.26553333 L7.73465,1.55668333 L9.01431667,0.277016667 C8.40212083,0.103630633 7.74658427,0.173804767 7.18496093,0.472846183 C6.6233376,0.771887417 6.19917852,1.27660683 6.00129273,1.88132798 C5.80340677,2.48604913 5.84713928,3.14387883 6.12333333,3.71708333 L0.45155,8.55506667 C0.298084783,8.68534315 0.202627883,8.871225 0.1861607,9.07185492 C0.1696937,9.27248483 0.233564283,9.47144367 0.363733333,9.625 C0.377116667,9.64076667 0.391233333,9.65616667 0.4059,9.67083333 L1.3288,10.59355 C1.47121132,10.7359773 1.66437205,10.8159933 1.86578333,10.8159933 C2.06719462,10.8159933 2.26035535,10.7359773 2.40276667,10.59355 C2.41761667,10.5788833 2.43155,10.5636667 2.44511667,10.5479 L7.2831,4.87666667 C7.8562671,5.15329137 8.51426033,5.19732125 9.11917325,4.99952823 C9.72408617,4.80173522 10.2289588,4.37747438 10.5279768,3.81566478 C10.8269947,3.25385518 10.8969448,2.59811072 10.7231667,1.98586667 Z" id="Fill-5"></path>
                    </g>
                </g>
            </g>
        </g>
    </g>
</svg>