<?xml version="1.0" encoding="UTF-8"?>
<svg width="15px" height="15px" viewBox="0 0 15 15" version="1.1" xmlns="http://www.w3.org/2000/svg" xmlns:xlink="http://www.w3.org/1999/xlink">
    <!-- Generator: Sketch 54.1 (76490) - https://sketchapp.com -->
    <title>full-size</title>
    <desc>Created with Sketch.</desc>
    <g id="SYMBOLS" stroke="none" stroke-width="1" fill="none" fill-rule="evenodd">
        <g id="MY_TASKS/TO_REVIEW/FULL_DETAILS" transform="translate(-940.000000, -47.000000)" fill="#000000" fill-rule="nonzero">
            <g id="MY_TASKS/TO_REVIEW">
                <g id="TASK/MY_TASKS">
                    <g id="TASK/CREATE_PROJECT">
                        <g id="full-size" transform="translate(940.000000, 47.000000)">
                            <path d="M0.520833333,4.52 C0.808541667,4.52 1.04166667,4.28680556 1.04166667,3.99916667 L1.04166667,1.77847222 L4.39618056,5.13229167 C4.49791667,5.23395833 4.63118056,5.28479167 4.76444444,5.28479167 C4.89777778,5.28479167 5.03111111,5.23395833 5.13277778,5.13222222 C5.33618056,4.92881944 5.33618056,4.59902778 5.13270833,4.39569444 L1.77805556,1.04180556 L3.99923611,1.04180556 C4.286875,1.04180556 4.52006944,0.808611111 4.52006944,0.520972222 C4.52006944,0.233333333 4.28694444,0.000138888889 3.99923611,0.000138888889 L0.520833333,0.000138888889 C0.233125,0.000138888889 0,0.233333333 0,0.520972222 L0,3.99923611 C0,4.28680556 0.233125,4.52 0.520833333,4.52 Z" id="Path"></path>
                            <path d="M14.4340278,10.4348611 C14.1463194,10.4348611 13.9131944,10.6680556 13.9131944,10.9556944 L13.9131944,13.1764583 L10.4554167,9.71868056 C10.2519444,9.51527778 9.92222222,9.51527778 9.71881944,9.71868056 C9.51541667,9.92208333 9.51541667,10.251875 9.71881944,10.4552083 L13.1765278,13.9129167 L10.9559028,13.9129167 C10.6681944,13.9129167 10.4350694,14.1461111 10.4350694,14.43375 C10.4350694,14.7213889 10.6681944,14.9545833 10.9559028,14.9545833 L14.4340972,14.9545833 C14.7218056,14.9545833 14.9549306,14.7213889 14.9549306,14.43375 L14.9549306,10.9556944 C14.9548611,10.6680556 14.7216667,10.4348611 14.4340278,10.4348611 Z" id="Path"></path>
                            <path d="M4.49944444,9.71868056 L1.04201389,13.1763889 L1.04201389,10.9556944 C1.04201389,10.6680556 0.808888889,10.4348611 0.521180556,10.4348611 C0.233472222,10.4348611 0.000347222222,10.6680556 0.000347222222,10.9556944 L0.000347222222,14.4338889 C0.000347222222,14.7215278 0.233472222,14.9547222 0.521180556,14.9547222 L3.99923611,14.9547222 C4.286875,14.9547222 4.52006944,14.7215278 4.52006944,14.4338889 C4.52006944,14.14625 4.28694444,13.9130556 3.99923611,13.9130556 L1.77854167,13.9130556 L5.23604167,10.4552083 C5.43944444,10.2518056 5.43944444,9.92201389 5.23597222,9.71861111 C5.03270833,9.51527778 4.70291667,9.51527778 4.49944444,9.71868056 Z" id="Path"></path>
                            <path d="M14.4340278,0.000138888889 L10.9558333,0.000138888889 C10.668125,0.000138888889 10.435,0.233333333 10.435,0.520972222 C10.435,0.808611111 10.668125,1.04180556 10.9558333,1.04180556 L13.1765972,1.04180556 L9.82256944,4.39604167 C9.61916667,4.59944444 9.61916667,4.92923611 9.82263889,5.13263889 C9.92430556,5.23430556 10.0576389,5.28513889 10.1909028,5.28513889 C10.3241667,5.28513889 10.4575,5.23423611 10.5592361,5.13256944 L13.9132639,1.77833333 L13.9132639,3.99916667 C13.9132639,4.28680556 14.1463889,4.52 14.4340972,4.52 C14.7218056,4.52 14.9549306,4.28680556 14.9549306,3.99916667 L14.9549306,0.520972222 C14.9548611,0.233263889 14.7216667,0.000138888889 14.4340278,0.000138888889 Z" id="Path"></path>
                        </g>
                    </g>
                </g>
            </g>
        </g>
    </g>
</svg>