<svg xmlns="http://www.w3.org/2000/svg" width="36" height="36" viewBox="0 0 36 36">
    <path fill="#FFF" fill-rule="nonzero" d="M25.093 9.507V6.35h1.519a.674.674 0 0 0 0-1.35H8.674a.674.674 0 0 0 0 1.35h1.518v3.157a7.193 7.193 0 0 0 2.172 5.135l4.302 4.174-4.132 3.884a7.18 7.18 0 0 0-2.253 5.213v2.737H8.674a.674.674 0 0 0 0 1.35h17.938a.674.674 0 0 0 0-1.35h-1.43v-2.687a7.17 7.17 0 0 0-2.322-5.276l-4.234-3.877 4.296-4.168a7.192 7.192 0 0 0 2.171-5.135zm-1.259 18.456v2.687H11.63v-2.737a5.824 5.824 0 0 1 1.828-4.229l4.192-3.94 4.302 3.939a5.816 5.816 0 0 1 1.883 4.28zm-6.191-10.079l-4.341-4.212a5.835 5.835 0 0 1-1.762-4.165V6.35h12.206v3.157a5.834 5.834 0 0 1-1.762 4.165l-4.341 4.212z"/>
</svg>
