<svg xmlns="http://www.w3.org/2000/svg" width="16" height="20" viewBox="0 0 16 20">
    <g fill="#201662" fill-rule="evenodd">
        <path fill-rule="nonzero" d="M14.435 2.353h-2.668V.619a.62.62 0 0 0-.63-.619c-.034 0-.057.011-.068.023A.086.086 0 0 0 11.024 0H4.664a.61.61 0 0 0-.62.62v1.733H1.367C.6 2.353.003 2.949.003 3.715v2.229h1.182V18.63c0 .766.586 1.351 1.351 1.351h10.728c.766 0 1.362-.585 1.362-1.35V5.943h1.171V3.715c0-.766-.597-1.362-1.362-1.362zM5.283 1.238h5.234v1.115H5.283V1.238zm8.094 17.392c0 .08-.034.113-.113.113H2.536c-.078 0-.112-.034-.112-.113V5.944h10.953V18.63zm1.17-13.924H1.253v-.991c0-.079.034-.124.113-.124h13.069c.079 0 .112.045.112.124v.99z"/>
        <path d="M10.169 7.396h1.249V17.64h-1.249zM7.287 7.396h1.249V17.64H7.287zM4.405 7.396h1.249V17.64H4.405z"/>
    </g>
</svg>
