<?xml version="1.0" encoding="UTF-8"?>
<svg width="20px" height="25px" viewBox="0 0 20 25" version="1.1" xmlns="http://www.w3.org/2000/svg" xmlns:xlink="http://www.w3.org/1999/xlink">
    <!-- Generator: sketchtool 52.5 (67469) - http://www.bohemiancoding.com/sketch -->
    <title>C76C39DF-033D-43CD-B527-DA78E56DD8F7</title>
    <desc>Created with sketchtool.</desc>
    <g id="Symbols" stroke="none" stroke-width="1" fill="none" fill-rule="evenodd">
        <g id="ICON/LOCKED" fill="#000000" fill-rule="nonzero">
            <g transform="translate(0.000000, -0.000000)" id="Shape">
                <path d="M17.2727273,9.14227273 L17.2727273,6.59090909 C17.2727273,2.95681818 14.01,0 10,0 C5.99,0 2.72727273,2.95681818 2.72727273,6.59090909 L2.72727273,9.14227273 C1.18136364,9.40863636 0,10.7559091 0,12.3772727 L0,21.26 C0,23.0713636 1.47409091,24.5454545 3.28590909,24.5454545 L16.7140909,24.5454545 C18.5259091,24.5454545 20,23.0713636 20,21.2595455 L20,12.3768182 C20,10.7559091 18.8186364,9.40863636 17.2727273,9.14227273 Z M3.63636364,6.59090909 C3.63636364,3.45772727 6.49090909,0.909090909 10,0.909090909 C13.5090909,0.909090909 16.3636364,3.45772727 16.3636364,6.59090909 L16.3636364,9.09090909 L3.63636364,9.09090909 L3.63636364,6.59090909 Z M19.0909091,21.2595455 C19.0909091,22.57 18.0245455,23.6363636 16.7140909,23.6363636 L3.28590909,23.6363636 C1.97545455,23.6363636 0.909090909,22.57 0.909090909,21.2595455 L0.909090909,12.3768182 C0.909090909,11.0663636 1.97545455,10 3.28590909,10 L16.7140909,10 C18.0245455,10 19.0909091,11.0663636 19.0909091,12.3768182 L19.0909091,21.2595455 Z"></path>
                <path d="M10,12.7272727 C8.99727273,12.7272727 8.18181818,13.5427273 8.18181818,14.5454545 L8.18181818,17.2727273 C8.18181818,18.2754545 8.99727273,19.0909091 10,19.0909091 C11.0027273,19.0909091 11.8181818,18.2754545 11.8181818,17.2727273 L11.8181818,14.5454545 C11.8181818,13.5427273 11.0027273,12.7272727 10,12.7272727 Z M10.9090909,17.2727273 C10.9090909,17.7740909 10.5013636,18.1818182 10,18.1818182 C9.49863636,18.1818182 9.09090909,17.7740909 9.09090909,17.2727273 L9.09090909,14.5454545 C9.09090909,14.0440909 9.49863636,13.6363636 10,13.6363636 C10.5013636,13.6363636 10.9090909,14.0440909 10.9090909,14.5454545 L10.9090909,17.2727273 Z"></path>
            </g>
        </g>
    </g>
</svg>