<svg xmlns="http://www.w3.org/2000/svg" width="21" height="20" viewBox="0 0 21 20">
    <g fill="#201662" fill-rule="evenodd">
        <path d="M19.521 18.513H.821c-.394 0-.701.325-.701.7 0 .377.324.702.7.702h18.718c.394 0 .701-.325.701-.701 0-.376-.324-.701-.718-.701z"/>
        <path fill-rule="nonzero" d="M.12 12.308L.103 15.64c0 .188.068.376.205.513a.685.685 0 0 0 .495.205l3.317-.017a.685.685 0 0 0 .495-.205L16.068 4.684a.722.722 0 0 0 0-1.009L12.786.36a.722.722 0 0 0-1.008 0l-2.29 2.308-9.163 9.145a.761.761 0 0 0-.205.496zM12.29 1.863l2.308 2.308-1.299 1.3-2.308-2.309 1.3-1.299zM1.539 12.615l8.445-8.444 2.308 2.308-8.445 8.427-2.325.017.017-2.308z"/>
    </g>
</svg>
