<svg xmlns="http://www.w3.org/2000/svg" width="13" height="17" viewBox="0 0 13 17">
    <path fill="#3A3A3A" fill-rule="nonzero" d="M11.774 8.769c-.394-.502-.988-.847-1.784-1.035 1.013-.509 1.458-1.373 1.336-2.592a2.535 2.535 0 0 0-.372-1.15 2.321 2.321 0 0 0-.842-.783 4.67 4.67 0 0 0-1.152-.452 9.213 9.213 0 0 0-1.427-.226V0h-1.57v2.461c-.271 0-.686.007-1.243.02V0H3.15v2.531c-.224.007-.554.01-.989.01L0 2.531V4.18h1.131c.517 0 .82.227.908.683v2.883c.068 0 .122.003.163.01h-.163v4.038c-.055.341-.252.512-.591.512H.316L0 14.143H2.04c.13 0 .316.002.56.005.245.003.429.005.551.005v2.561h1.57v-2.531c.286.007.7.01 1.244.01v2.521h1.57v-2.561a12.38 12.38 0 0 0 1.483-.15c.431-.075.844-.19 1.238-.347.394-.158.724-.354.989-.588.265-.234.484-.532.658-.894.173-.362.283-.78.33-1.256.09-.93-.064-1.647-.458-2.15zM4.75 4.289l.403-.005.55-.01c.147-.004.344.005.592.025s.457.047.627.08c.17.034.357.089.56.166.205.077.368.17.49.281.122.11.226.251.31.422a1.3 1.3 0 0 1 .128.588c0 .187-.03.358-.092.512a.966.966 0 0 1-.275.387 2.787 2.787 0 0 1-.377.271 1.743 1.743 0 0 1-.494.186c-.2.047-.376.083-.525.11-.15.027-.337.045-.56.055-.225.01-.395.017-.51.02-.116.004-.274.004-.475 0a39.68 39.68 0 0 0-.351-.004V4.289zm4.287 6.84a1.425 1.425 0 0 1-.25.402 1.414 1.414 0 0 1-.402.301 3.48 3.48 0 0 1-.484.211c-.157.054-.345.1-.566.141a7.535 7.535 0 0 1-1.178.126 13.577 13.577 0 0 1-1.03.01 33.378 33.378 0 0 0-.377-.005V8.919c.055 0 .216-.003.485-.01a11.045 11.045 0 0 1 1.361.02c.299.02.55.05.754.09.204.041.426.103.668.187.24.083.436.185.586.306.15.12.275.274.377.462.102.187.153.402.153.643 0 .188-.032.358-.097.512z"/>
</svg>
