<svg xmlns="http://www.w3.org/2000/svg" width="40" height="54" viewBox="0 0 40 54">
    <path fill="#3A3A3A" fill-rule="nonzero" d="M38.424 28.33c-1.286-1.623-3.226-2.737-5.822-3.343 3.305-1.644 4.757-4.435 4.359-8.373-.134-1.428-.538-2.665-1.215-3.714-.677-1.05-1.591-1.893-2.745-2.531a15.333 15.333 0 0 0-3.76-1.46c-1.352-.336-2.905-.58-4.657-.731V0h-5.123v7.95c-.887 0-2.24.022-4.058.066V0h-5.124v8.178c-.732.022-1.807.033-3.226.033L0 8.178V13.5h3.692c1.686 0 2.673.736 2.961 2.207v9.314c.222 0 .4.011.533.033h-.533v13.045c-.177 1.103-.82 1.655-1.93 1.655H1.033L0 45.694h6.654c.421 0 1.03.005 1.83.014.798.011 1.396.017 1.796.017V54h5.124v-8.178c.931.022 2.284.033 4.058.033V54h5.123v-8.275c1.82-.087 3.433-.248 4.84-.487a20.08 20.08 0 0 0 4.042-1.12c1.286-.508 2.362-1.141 3.227-1.899.865-.756 1.58-1.72 2.146-2.888.565-1.168.926-2.52 1.08-4.057.29-3.006-.21-5.321-1.496-6.944zM15.503 13.856a252.109 252.109 0 0 0 3.11-.05c.477-.01 1.12.018 1.93.082.81.065 1.492.152 2.046.26.554.108 1.165.287 1.83.535.665.249 1.197.552 1.596.909.4.357.738.811 1.014 1.363.278.552.417 1.185.417 1.898 0 .606-.1 1.158-.3 1.656a3.12 3.12 0 0 1-.897 1.25c-.4.335-.81.627-1.232.876-.42.248-.96.449-1.613.6-.654.151-1.225.27-1.713.357-.488.086-1.098.146-1.83.178-.732.033-1.286.055-1.663.065-.377.011-.893.011-1.547 0-.655-.01-1.037-.016-1.148-.016v-9.963zm13.99 22.1c-.212.498-.483.93-.816 1.299-.333.367-.771.692-1.314.973s-1.07.508-1.58.681a12.98 12.98 0 0 1-1.846.455c-.722.13-1.354.221-1.898.276-.543.054-1.191.097-1.946.13-.753.032-1.341.048-1.763.048-.421 0-.953-.006-1.597-.016-.643-.01-1.053-.016-1.23-.016v-10.97c.177 0 .703-.01 1.58-.032a88.993 88.993 0 0 1 2.145-.032c.555 0 1.32.032 2.296.097.976.065 1.796.162 2.462.292.665.13 1.391.33 2.18.6.786.27 1.424.6 1.912.99s.898.887 1.23 1.493c.334.605.5 1.298.5 2.077a4.2 4.2 0 0 1-.316 1.655z"/>
</svg>
