<svg xmlns="http://www.w3.org/2000/svg" width="20" height="20" viewBox="0 0 20 20">
    <g fill="#201662" fill-rule="evenodd">
        <path fill-rule="nonzero" d="M18.668 5.01a10.063 10.063 0 0 0-3.506-3.577l-.305.505c.611.369 1.17.797 1.67 1.276l-1.14 1.139a7.782 7.782 0 0 0-5.092-2.155V.594a9.31 9.31 0 0 1 3.748.906l.254-.532A9.91 9.91 0 0 0 10 0a9.934 9.934 0 0 0-7.071 2.929A9.935 9.935 0 0 0 0 10a9.934 9.934 0 0 0 2.929 7.071A9.934 9.934 0 0 0 10 20a9.934 9.934 0 0 0 7.071-2.929A9.935 9.935 0 0 0 20 10c0-1.754-.46-3.48-1.332-4.99zm-1.729-1.376a9.329 9.329 0 0 1 2.467 6.071h-1.604a7.777 7.777 0 0 0-2.004-4.93l1.141-1.141zM9.705.594v1.604a7.779 7.779 0 0 0-5.011 2.079L3.56 3.144A9.376 9.376 0 0 1 9.705.594zm-6.56 2.967l1.132 1.133a7.779 7.779 0 0 0-2.08 5.011H.596a9.376 9.376 0 0 1 2.55-6.144zm-2.55 6.734h1.603a7.781 7.781 0 0 0 2.155 5.092L3.22 16.52a9.378 9.378 0 0 1-2.625-6.224zm9.11 9.11a9.374 9.374 0 0 1-6.063-2.474l1.133-1.133a7.777 7.777 0 0 0 4.93 2.004v1.603zM2.781 10c0-3.98 3.238-7.219 7.219-7.219 3.98 0 7.219 3.238 7.219 7.219 0 3.98-3.238 7.219-7.219 7.219-3.98 0-7.219-3.238-7.219-7.219zm7.514 9.405v-1.603a7.779 7.779 0 0 0 5.011-2.079l1.133 1.133a9.376 9.376 0 0 1-6.144 2.55zm6.56-2.966l-1.132-1.133a7.779 7.779 0 0 0 2.08-5.011h1.602a9.376 9.376 0 0 1-2.55 6.144z"/>
        <path d="M10 5.322A4.683 4.683 0 0 0 5.322 10c0 1.231.475 2.394 1.337 3.273l.42-.412A4.065 4.065 0 0 1 5.913 10 4.093 4.093 0 0 1 10 5.912 4.093 4.093 0 0 1 14.088 10 4.093 4.093 0 0 1 10 14.088c-.841 0-1.649-.253-2.336-.733l-.337.484a4.649 4.649 0 0 0 2.673.839A4.683 4.683 0 0 0 14.678 10 4.683 4.683 0 0 0 10 5.322zM9.687 3.757h1v1h-1zM9.687 15.654h1v1h-1zM3.739 9.705h1v1h-1zM5.304 5.322h1v1h-1zM14.383 5.635h1v1h-1zM14.383 13.775h1v1h-1zM4.991 13.775h1v1h-1zM15.635 9.705h1v1h-1z"/>
        <path d="M7.2 10h.59c0-1.219.991-2.21 2.21-2.21V7.2A2.802 2.802 0 0 0 7.2 10zM10 12.8c1.544 0 2.8-1.256 2.8-2.8h-.59c0 1.219-.992 2.21-2.21 2.21v.59z"/>
    </g>
</svg>
