<svg xmlns="http://www.w3.org/2000/svg" width="20" height="20" viewBox="0 0 20 20">
    <path fill="#201662" fill-rule="nonzero" d="M16.893 10.472c-.464-.6-1.163-1.011-2.1-1.235 1.192-.608 1.716-1.64 1.572-3.096-.048-.527-.194-.985-.438-1.373a2.748 2.748 0 0 0-.99-.935 5.449 5.449 0 0 0-1.355-.54 10.695 10.695 0 0 0-1.68-.27V0h-1.847v2.939c-.32 0-.808.008-1.463.024V0H6.744v3.023c-.264.008-.652.012-1.163.012l-2.543-.012V4.99h1.331c.608 0 .964.272 1.068.816V9.25c.08 0 .144.004.192.012h-.192v4.822c-.064.408-.296.612-.696.612H3.41l-.372 2.196h2.399c.152 0 .372.002.66.005.287.004.503.006.647.006v3.06h1.848v-3.024c.336.008.824.012 1.464.012v3.011h1.847v-3.059a14.362 14.362 0 0 0 1.745-.18 7.103 7.103 0 0 0 1.458-.414 3.933 3.933 0 0 0 1.163-.701c.312-.28.57-.636.774-1.068.204-.432.334-.932.39-1.5.104-1.111-.076-1.967-.54-2.567zm-8.265-5.35l.474-.006.647-.012c.172-.004.404.006.696.03.292.024.538.056.738.096.2.04.42.106.66.198.24.092.432.204.575.336.144.132.266.3.366.504.1.203.15.437.15.701 0 .224-.036.428-.108.612-.071.184-.18.338-.323.462a3.281 3.281 0 0 1-.444.324 2.033 2.033 0 0 1-.582.222c-.236.056-.442.1-.618.132a5.057 5.057 0 0 1-.66.066c-.264.012-.464.02-.6.024-.135.004-.321.004-.557 0a46.011 46.011 0 0 0-.414-.006V5.122zm5.044 8.17a1.706 1.706 0 0 1-.294.48c-.12.135-.278.255-.474.359a4.064 4.064 0 0 1-.57.252c-.183.064-.405.12-.665.168a8.746 8.746 0 0 1-1.386.15 15.744 15.744 0 0 1-1.212.012l-.443-.006v-4.055c.063 0 .253-.004.57-.012.315-.008.573-.012.773-.012.2 0 .476.012.828.036.352.024.648.06.888.108s.501.122.785.222c.284.1.514.222.69.366a1.8 1.8 0 0 1 .444.552c.12.223.18.48.18.767 0 .225-.038.428-.114.612z"/>
</svg>
