<?xml version="1.0" encoding="UTF-8"?>
<svg width="171px" height="39px" viewBox="0 0 171 39" version="1.1" xmlns="http://www.w3.org/2000/svg" xmlns:xlink="http://www.w3.org/1999/xlink">
    <!-- Generator: Sketch 52.4 (67378) - http://www.bohemiancoding.com/sketch -->
    <title>Logo-Footer</title>
    <desc>Created with Sketch.</desc>
    <g id="Symbols" stroke="none" stroke-width="1" fill="none" fill-rule="evenodd">
        <g id="Atoms-/-Elements-/-Logos-/-Logo_Footer" fill="#FFFFFF">
            <g id="Logo-Footer" transform="translate(0.000000, 0.000000)">
                <path d="M33.4940136,9.92415217 C33.4940136,9.72244176 33.4234149,9.60645827 33.2469183,9.50056031 L16.9840165,0.105897965 C16.8176054,0.0100855205 16.6965792,0.0100855205 16.5352109,0.105897965 L0.242052492,9.51064583 C0.0756414037,9.60645827 0.0151282807,9.71235624 0.0151282807,9.89893837 C0.020171041,15.9452079 0.020171041,22.0973754 0.0151282807,28.7185196 C0.0151282807,28.900059 0.0705986435,29.0009142 0.226924211,29.0916839 L16.5705102,38.5216455 C16.6108523,38.5468593 16.6764081,38.5922442 16.7520495,38.5922442 C16.7823061,38.5922442 16.8327337,38.5771159 16.8529047,38.5670304 L19.056591,37.3012976 L2.49616632,27.7250958 L2.34992628,27.6343262 L2.34488352,27.447744 C2.34992628,21.8805367 2.34992628,16.3990563 2.34488352,11.1646712 L2.34488352,10.9881746 L2.5112946,10.8873194 C4.14010616,9.95440873 5.87481569,8.9559422 7.57926865,7.95747567 C7.6750811,7.90200531 7.76080802,7.87174875 7.84149219,7.87174875 C7.92721911,7.87174875 8.01294603,7.90200531 8.12388676,7.96251843 L14.4122088,11.6134769 L13.3431436,12.2286936 C11.9664701,13.020407 10.5444117,13.8373341 9.14756709,14.639133 C8.981156,14.7349454 8.92064288,14.8408434 8.92064288,15.0324683 C8.92568564,17.8009437 8.92568564,20.6702743 8.92064288,23.5496904 C8.92064288,23.7362725 8.981156,23.8421705 9.14756709,23.9379829 L21.0585668,30.7608375 C21.139251,30.8062224 21.2098496,30.8263934 21.2804482,30.8263934 C21.3308758,30.8263934 21.4065173,30.8163079 21.5275435,30.7457092 C23.8068711,29.4194633 26.1920967,28.037747 28.8193748,26.5299617 C28.9807431,26.4341492 29.046299,26.3282513 29.046299,26.1366264 C29.0412563,21.5880566 29.0412563,16.9890593 29.046299,12.4556178 C29.046299,12.2639929 28.9857859,12.158095 28.8244176,12.0673253 L16.9386317,5.20412858 C16.8982896,5.18395753 16.8125627,5.14361545 16.7318785,5.14361545 C16.7016219,5.14361545 16.6713654,5.14865821 16.6511943,5.16378649 L14.3970805,6.46481864 L26.5602182,13.4490416 L26.7165438,13.5398113 L26.7064583,24.8809791 L26.7064583,25.0625184 L26.5501327,25.1532881 C25.0171336,26.0508994 23.3328517,27.0191094 21.4065173,28.1234739 L21.2602772,28.2092008 L21.1089944,28.1285167 L11.4016809,22.5562666 L11.2403126,22.4654969 L11.2403126,22.2839575 C11.2453554,20.2668534 11.2453554,18.2497493 11.2403126,16.2931584 L11.2403126,16.111619 L11.3966382,16.0208493 C12.1227956,15.6023002 12.8489531,15.1837511 13.5801533,14.765202 L13.5902389,14.7601592 C14.5735771,14.1953701 15.5871719,13.6104099 16.6007667,13.0304925 L16.7570923,12.9397228 L16.9134179,13.0304925 L22.1074609,16.0158065 L22.2637865,16.1065762 L22.2637865,22.4654969 L18.8952226,24.4069596 L21.0636096,25.6525214 C21.0989089,25.6726924 21.1442937,25.6827779 21.1997641,25.6827779 C21.26532,25.6827779 21.3409614,25.6676497 21.391389,25.6373931 L24.336361,23.9531112 C24.5279858,23.8472132 24.5985845,23.7312297 24.5935417,23.514391 C24.5834562,20.7913005 24.5834562,17.9471837 24.5935417,15.0627249 C24.5935417,14.8458862 24.5279858,14.7299027 24.336361,14.618962 L10.1510764,6.47994692 L10.7713359,6.12191094 C12.6774993,5.01754645 14.6542613,3.87788263 16.595724,2.76343262 L16.7520495,2.67266293 L16.9083751,2.76343262 L31.0079328,10.8923621 L31.1541728,10.9780891 C31.1541728,10.9780891 31.1592156,10.9780891 31.1592156,11.0234739 L31.1642583,11.1697139 L31.1642583,27.4729578 L31.1541728,27.6292834 L31.023061,27.7150103 L21.3460041,33.3074314 L21.1846358,33.4032439 L21.0232675,33.3023887 L6.92875258,25.1432026 L6.80772633,25.0574757 L6.79764081,24.9061929 L6.79764081,13.7818638 C6.79764081,13.7314362 6.80268357,13.6910941 6.80772633,13.650752 L6.82789738,13.5498968 L6.90353878,13.4843409 C6.92875258,13.4591271 6.9640519,13.4389561 7.00439398,13.4137423 L10.1258626,11.6084341 L8.02303155,10.3679151 C7.87679151,10.2821881 7.7759363,10.2821881 7.62969625,10.3628723 C6.62618697,10.9478325 5.62772044,11.5277499 4.65446771,12.0824536 C4.51327042,12.1631377 4.45780006,12.2589502 4.45780006,12.4253613 C4.46284282,16.8579475 4.46284282,21.4821587 4.45780006,26.1719257 C4.45780006,26.3383368 4.51327042,26.4341492 4.65446771,26.5148334 L20.9778826,35.944795 C21.0585668,35.9901799 21.1291654,36.0153937 21.1947213,36.0153937 C21.2602772,36.0153937 21.3308758,35.9901799 21.41156,35.944795 C25.9954291,33.2923032 29.7573282,31.1188735 33.2570038,29.1068121 C33.4486287,28.9958714 33.483928,28.8698024 33.483928,28.6983486 C33.4889708,21.7141256 33.4889708,15.5720436 33.4940136,9.92415217 Z" id="Path"></path>
                <g id="Group" transform="translate(42.611324, 11.900914)">
                    <path d="M122.518903,14.6088764 C122.523946,14.5634916 122.523946,14.492893 122.523946,14.4323798 L122.523946,10.2519316 L122.523946,10.2418461 C122.544117,10.0804777 122.584459,9.93928045 122.650015,9.82833972 L122.816426,9.54594515 C124.420024,6.85311118 127.551578,1.57838396 128.318077,0.272309053 L127.203627,0.267266293 C127.087644,0.262223533 127.037216,0.287437334 126.976703,0.393335299 L121.98437,8.86012976 L116.961781,0.358035978 C116.901268,0.252138012 116.855883,0.226924211 116.734857,0.231966971 L116.729814,0.231966971 C116.003657,0.231966971 115.77169,0.237009732 115.650664,0.237009732 C115.640578,0.237009732 115.630492,0.237009732 115.620407,0.237009732 C116.386907,1.54308464 119.513418,6.79764081 121.111973,9.48543203 L121.293512,9.7930404 C121.359068,9.90398113 121.404453,10.0451784 121.419581,10.2065467 L121.419581,10.2267178 C121.419581,11.7244176 121.419581,12.304335 121.419581,14.4273371 C121.419581,14.4878502 121.419581,14.5584488 121.424624,14.6038337 C121.591035,14.6139192 122.342406,14.6139192 122.518903,14.6088764 Z" id="Path"></path>
                    <path d="M102.317605,14.6088764 C102.357948,14.6088764 102.393247,14.6088764 102.433589,14.6088764 L102.433589,9.09209673 L106.972073,9.08705397 C106.977116,9.08705397 106.977116,9.08705397 106.982159,9.08705397 C107.264553,9.08705397 107.461221,9.19295193 107.627632,9.42996166 C108.636184,10.8873194 109.705249,12.4203185 111.097051,14.4021233 C111.202949,14.5534061 111.253377,14.5887054 111.273548,14.5987909 C111.631584,14.618962 111.994662,14.618962 112.377912,14.6139192 C112.403126,14.6139192 112.42834,14.6139192 112.453554,14.6139192 L108.590799,9.07696845 L108.893365,9.01645532 C109.876703,8.82483043 110.63816,8.45166618 111.228163,7.88183427 C112.544323,6.5959304 112.897316,5.09823061 112.312356,3.2979652 C111.777824,1.64393984 110.159098,0.352993217 108.550457,0.292480094 C106.941817,0.231966971 105.302919,0.231966971 103.719493,0.237009732 C103.164789,0.237009732 102.594957,0.237009732 102.030168,0.237009732 C102.030168,0.237009732 102.030168,0.237009732 102.025125,0.237009732 C101.803244,0.237009732 101.515807,0.302565615 101.399823,0.60513123 C101.33931,0.766499558 101.329224,0.978295488 101.329224,1.17496314 C101.324182,4.96711884 101.324182,8.82483043 101.324182,12.556473 L101.324182,14.3819522 C101.324182,14.4122088 101.324182,14.4374226 101.324182,14.4676792 C101.324182,14.5181068 101.319139,14.5685344 101.329224,14.5987909 C101.329224,14.6038337 101.334267,14.6038337 101.334267,14.6088764 C101.662047,14.6139192 101.97974,14.6139192 102.317605,14.6088764 Z M102.433589,3.74677086 C102.433589,3.05086995 102.433589,2.3600118 102.433589,1.66411088 C102.433589,1.61368328 102.448717,1.56829844 102.458803,1.53804188 C102.463845,1.52795636 102.468888,1.51282807 102.473931,1.49769979 L102.50923,1.37667355 L102.635299,1.35650251 C102.650428,1.35650251 102.665556,1.35145975 102.680684,1.34641699 C102.715983,1.34137423 102.756326,1.33128871 102.80171,1.33128871 C103.336243,1.33128871 103.885904,1.33128871 104.410351,1.32624595 C105.655913,1.32120318 106.946859,1.31616042 108.217635,1.34137423 C109.074904,1.36154527 109.881746,1.724624 110.496963,2.37514008 C111.147479,3.06095547 111.500472,3.9837806 111.470215,4.91669124 C111.414745,6.58080212 109.987644,8.00790327 108.353789,8.03311707 C107.133441,8.05328812 105.892922,8.05328812 104.687703,8.05328812 C104.082572,8.05328812 103.47744,8.05328812 102.877352,8.05833088 C102.877352,8.05833088 102.872309,8.05833088 102.872309,8.05833088 C102.766411,8.05833088 102.635299,8.0432026 102.539487,7.94739015 C102.468888,7.87679151 102.433589,7.77089354 102.433589,7.64482454 C102.433589,6.34883515 102.433589,5.04780301 102.433589,3.74677086 Z" id="Shape"></path>
                    <path d="M72.3585668,6.80268357 C72.1921557,6.95396638 72.1064288,7.15063403 72.1064288,7.36747272 C72.1064288,7.56414037 72.1921557,7.7507225 72.333353,7.87679151 L72.3383958,7.88183427 L79.357918,14.4021233 C79.4083456,14.4525509 79.5344146,14.5685344 79.5848422,14.5685344 C80.0588617,14.5836626 80.5379239,14.5836626 81.0069006,14.5786199 C81.0472427,14.5786199 81.082542,14.5786199 81.1228841,14.5786199 L73.3822471,7.34730168 L81.0220289,0.231966971 C80.9867296,0.231966971 80.956473,0.231966971 80.9211737,0.231966971 C80.5278384,0.231966971 80.1244176,0.237009732 79.7260395,0.226924211 C79.7209968,0.226924211 79.7109112,0.226924211 79.7058685,0.226924211 C79.5545857,0.226924211 79.4386022,0.277351814 79.3125332,0.393335299 C78.9393689,0.741285756 78.5611619,1.08923621 78.1879976,1.43718667 C76.2767915,3.20215276 74.310115,5.02763197 72.3585668,6.80268357 Z" id="Path"></path>
                    <path d="M71.2794161,14.5836626 C71.2945444,14.5836626 71.3046299,14.5836626 71.3096727,14.5836626 C71.3096727,14.5735771 71.3147154,14.5584488 71.3147154,14.5382778 L71.3147154,0.287437334 C71.3147154,0.277351814 71.3147154,0.267266293 71.3147154,0.252138012 C71.3147154,0.247095252 71.3147154,0.242052492 71.3147154,0.231966971 C71.3046299,0.231966971 71.2945444,0.231966971 71.2794161,0.231966971 L70.250693,0.231966971 L70.250693,14.5836626 L70.986936,14.5836626 L71.2794161,14.5836626 Z" id="Path"></path>
                    <path d="M64.8599823,14.5887054 C65.4701563,14.5836626 65.6365674,14.5836626 65.8685344,14.5836626 L60.0945739,1.09427897 C60.0239752,0.932910646 59.9533766,0.761456797 59.8726924,0.60513123 C59.77688,0.41350634 59.650811,0.302565615 59.4894426,0.257180773 L59.4692716,0.252138012 C59.4642288,0.252138012 59.4591861,0.252138012 59.4541433,0.247095252 L59.4440578,0.247095252 C59.4339723,0.247095252 59.4238868,0.242052492 59.4087585,0.242052492 C59.3885874,0.237009732 59.3734592,0.237009732 59.3532881,0.237009732 C59.3482454,0.237009732 59.3482454,0.237009732 59.3432026,0.237009732 L59.3331171,0.237009732 C59.312946,0.237009732 59.292775,0.237009732 59.2776467,0.237009732 L59.2625184,0.237009732 C59.2574757,0.237009732 59.2574757,0.237009732 59.2524329,0.237009732 C59.2322619,0.237009732 59.2171336,0.242052492 59.1969625,0.242052492 C59.1818343,0.242052492 59.1717487,0.247095252 59.1616632,0.247095252 L59.1566205,0.247095252 C59.1515777,0.247095252 59.1465349,0.247095252 59.1414922,0.252138012 C59.1414922,0.252138012 59.1364494,0.252138012 59.1364494,0.252138012 L59.1213211,0.257180773 C58.9599528,0.302565615 58.8338838,0.418549101 58.7380714,0.60513123 C58.6573872,0.761456797 58.5867886,0.927867886 58.5161899,1.09427897 L58.4909761,1.1547921 L52.7422294,14.5836626 C52.9741964,14.5836626 53.1355647,14.5836626 53.7507815,14.5887054 L53.760867,14.5887054 C53.9121498,14.5987909 53.9625774,14.5735771 54.0382188,14.3920377 L59.3028605,2.10787378 L64.572545,14.3920377 C64.6481864,14.5735771 64.7036567,14.5987909 64.8498968,14.5887054 L64.8599823,14.5887054 Z" id="Path"></path>
                    <path d="M48.334857,0.832055441 C48.3146859,0.453848422 48.0625479,0.237009732 47.6692126,0.252138012 C47.386818,0.262223533 47.2506635,0.448805662 47.0691242,0.726157476 C46.1765556,2.10283102 45.283987,3.47950457 44.3964612,4.85617812 C43.7005603,5.93532881 42.9996166,7.0144795 42.3037157,8.0936302 C42.1625184,8.31046889 41.834739,8.78448835 41.8095252,8.82483043 L41.6481569,9.05175464 L41.4867886,8.82483043 C41.4615748,8.78953111 41.1337953,8.31551165 40.9925981,8.0936302 C40.2866116,6.99935122 39.5806252,5.91011501 38.869596,4.81583604 C37.9871129,3.45429077 37.1046299,2.08770274 36.2221469,0.726157476 C36.0406075,0.448805662 35.8994102,0.262223533 35.6220584,0.252138012 C35.2287231,0.237009732 34.9816278,0.453848422 34.956414,0.832055441 C34.9513713,0.912739605 34.9513713,0.993423769 34.9513713,1.07915069 L34.9513713,1.14470658 C34.9513713,5.55207903 34.9513713,9.95945149 34.9513713,14.3668239 C34.9513713,14.4475081 34.9513713,14.533235 34.956414,14.5786199 C35.0068416,14.5836626 35.0976113,14.5836626 35.1833382,14.5836626 L36.0103509,14.5836626 L36.0103509,2.22890003 L41.6431141,10.9074904 L41.6481569,10.8974049 L41.6531996,10.9074904 L42.8432911,9.06184017 L47.2859628,2.22890003 L47.2859628,14.5836626 L48.1129755,14.5836626 C48.1987024,14.5836626 48.2894721,14.5836626 48.3398997,14.5786199 C48.3449425,14.5281923 48.3449425,14.4424653 48.3449425,14.3668239 C48.3449425,9.95945149 48.3449425,5.55207903 48.3449425,1.14470658 L48.3449425,1.07915069 C48.3398997,0.993423769 48.3398997,0.912739605 48.334857,0.832055441 Z" id="Path"></path>
                    <g transform="translate(16.237688, 0.000000)" id="Shape">
                        <path d="M7.35234444,0.0453848422 C11.1797995,-0.0252138012 14.7198172,3.04582719 14.6996461,7.4078148 C14.6794751,11.5025361 11.442023,14.7248599 7.49354173,14.7752875 C3.42403421,14.8307579 0.141197287,11.5580065 0.0453848422,7.45824241 C-0.0453848422,3.44420525 3.34335004,-0.0252138012 7.35234444,0.0453848422 Z M13.2574167,7.36242996 C13.2826305,4.12497788 10.6351814,1.41701563 7.44311413,1.41701563 C4.17036272,1.41701563 1.52291359,4.02412268 1.47752875,7.256532 C1.43214391,10.6351814 4.19557653,13.3935712 7.36747272,13.418785 C10.4838986,13.4389561 13.3179298,10.6503096 13.2574167,7.36242996 Z"></path>
                        <path d="M7.39268652,14.8055441 C5.46130935,14.8055441 3.64591566,14.0592156 2.26419935,12.6976703 C0.867354763,11.315954 0.0705986435,9.46021822 0.020171041,7.46328517 C-0.0252138012,5.52182247 0.756414037,3.59548806 2.16838691,2.17847243 C3.56018873,0.776585078 5.45122383,-0.00504276025 7.34730168,0.0252138012 C9.26859334,-0.0100855205 11.1697139,0.756414037 12.556473,2.12804482 C13.9583604,3.51480389 14.7299027,5.3907107 14.7198172,7.41790032 C14.7097316,9.39466234 13.9533176,11.2453554 12.5816868,12.6371572 C11.2251843,14.0138307 9.41483338,14.785373 7.48849897,14.8156296 C7.45824241,14.8055441 7.42294308,14.8055441 7.39268652,14.8055441 Z M7.24140372,0.0705986435 C5.3907107,0.0705986435 3.5652315,0.847183722 2.20872899,2.20872899 C0.80684164,3.62070186 0.0302565615,5.53190799 0.0756414037,7.45824241 C0.121026246,9.44004718 0.912739605,11.2856974 2.30454143,12.6573282 C3.69634326,14.0340018 5.54199351,14.7803303 7.49858449,14.7500737 C9.40979062,14.7248599 11.210056,13.9533176 12.556473,12.5867296 C13.9180183,11.210056 14.6693896,9.36944854 14.6794751,7.40277204 C14.6895606,5.3907107 13.9281038,3.52488941 12.5312592,2.15325863 C11.1495429,0.791713359 9.26355058,0.0302565615 7.3573872,0.0655558832 C7.31200236,0.0705986435 7.27670304,0.0705986435 7.24140372,0.0705986435 Z M7.4078148,13.4389561 C7.39268652,13.4389561 7.382601,13.4389561 7.36747272,13.4389561 C5.84455913,13.4288705 4.33173105,12.7682689 3.21728104,11.6286051 C2.05744618,10.4435565 1.43214391,8.89038632 1.45231495,7.25148924 C1.47248599,5.6831908 2.10283102,4.21070481 3.23240932,3.10634031 C4.36198761,2.00197582 5.85464465,1.39180183 7.44311413,1.39180183 C7.44311413,1.39180183 7.44311413,1.39180183 7.44311413,1.39180183 C8.97611324,1.39180183 10.433471,2.00701858 11.5428782,3.12651135 C12.6774993,4.27121793 13.292716,5.77396048 13.2826305,7.36242996 C13.3128871,8.92568564 12.6674137,10.4889413 11.5176644,11.6538189 C10.3931289,12.78844 8.89542908,13.4389561 7.4078148,13.4389561 Z M7.44311413,1.44222943 C7.44311413,1.44222943 7.44311413,1.44222943 7.44311413,1.44222943 C5.86473017,1.44222943 4.38215866,2.04736066 3.26266588,3.14163963 C2.14821587,4.23591861 1.51787083,5.69831908 1.49769979,7.25148924 C1.47752875,8.87525804 2.09778826,10.4183427 3.2475376,11.5933058 C4.35190209,12.7228841 5.85464465,13.3734002 7.36242996,13.3885285 C7.37755824,13.3885285 7.38764376,13.3885285 7.40277204,13.3885285 C8.8803008,13.3885285 10.3628723,12.7430551 11.4773223,11.6134769 C12.6169861,10.4586848 13.2574167,8.9055146 13.2271601,7.3573872 C13.2372457,5.784046 12.6270717,4.29138897 11.5025361,3.15676792 C10.4082572,2.05240342 8.96602772,1.44222943 7.44311413,1.44222943 Z" fill-rule="nonzero"></path>
                    </g>
                    <path d="M13.2977588,11.7698024 C13.2221174,11.7092893 13.1414332,11.6487762 13.0657918,11.588263 C12.8237393,11.4016809 12.5766441,11.2050133 12.3194633,11.0285167 C12.1883515,10.9427897 12.072368,11.0587732 12.0370687,11.0940725 C11.9513418,11.1848422 11.8706576,11.2806547 11.7899735,11.3764671 C11.7092893,11.4773223 11.6235624,11.5832203 11.5277499,11.6790327 C10.6805662,12.5161309 9.63167207,13.0456208 8.40628133,13.2473312 C7.25148924,13.4389561 6.22780891,13.3431436 5.27472722,12.9548511 C3.7417281,12.3345916 2.55163669,11.1596284 1.92129165,9.65184311 C1.3060749,8.17935712 1.3060749,6.55558832 1.91624889,5.07805957 C2.4860808,3.70642878 3.52488941,2.61214981 4.83600708,2.00197582 C6.15721026,1.38675907 7.6750811,1.30103214 9.11226777,1.75992333 C10.0603067,2.06248894 10.9125332,2.62727809 11.6386907,3.43916249 L11.6538189,3.45429077 C11.7193748,3.52993217 11.8303155,3.65600118 11.9614273,3.5652315 C12.2135653,3.36856385 12.4606606,3.15172515 12.6976703,2.94497198 C12.7733117,2.8794161 12.8439104,2.81386022 12.9195518,2.7533471 L12.9397228,2.73821881 L12.9245945,2.71804777 C12.0471542,1.6237688 10.8822766,0.81692716 9.54594515,0.378207019 C8.10371572,-0.0907696845 6.55054556,-0.0907696845 5.05284577,0.393335299 C1.79522265,1.43718667 -0.221881451,4.47292834 0.0302565615,7.94739015 C0.141197287,9.49047479 0.771542318,11.0033029 1.80026541,12.2186081 C2.88445886,13.4944264 4.30147449,14.3365674 5.91011501,14.659304 C6.4194338,14.7601592 6.92875258,14.8105868 7.43807137,14.8105868 C8.40123857,14.8105868 9.3492775,14.6290475 10.2468888,14.2659687 C11.5378354,13.7465644 12.6270717,12.8691242 13.3179298,11.8051017 L13.3330581,11.7849307 L13.2977588,11.7698024 Z" id="Path"></path>
                    <rect id="Rectangle" x="85.7017104" y="6.85815394" width="10.8822766" height="1.12453554"></rect>
                    <rect id="Rectangle" x="85.7017104" y="13.4692126" width="10.8822766" height="1.12453554"></rect>
                    <rect id="Rectangle" x="85.7017104" y="0.247095252" width="10.8822766" height="1.12453554"></rect>
                </g>
            </g>
        </g>
    </g>
</svg>