<?xml version="1.0" encoding="UTF-8"?>
<svg width="208px" height="47px" viewBox="0 0 208 47" version="1.1" xmlns="http://www.w3.org/2000/svg" xmlns:xlink="http://www.w3.org/1999/xlink">
    <!-- Generator: Sketch 52.4 (67378) - http://www.bohemiancoding.com/sketch -->
    <title>Logo-Header</title>
    <desc>Created with Sketch.</desc>
    <defs>
        <linearGradient x1="-3.7406989%" y1="37.4919863%" x2="103.727429%" y2="62.4946477%" id="linearGradient-1">
            <stop stop-color="#0089F4" offset="9.694427%"></stop>
            <stop stop-color="#4675F0" offset="30.15%"></stop>
            <stop stop-color="#935EEB" offset="54.5%"></stop>
            <stop stop-color="#CB4EE8" offset="74.66%"></stop>
            <stop stop-color="#EE44E6" offset="89.56%"></stop>
            <stop stop-color="#FB40E5" offset="97.58%"></stop>
        </linearGradient>
    </defs>
    <g id="Symbols" stroke="none" stroke-width="1" fill="none" fill-rule="evenodd">
        <g id="Atoms-/-Elements-/-Logos-/-Logo_Header">
            <g id="Logo-Header" transform="translate(0.000000, 0.000000)">
                <path d="M40.7537859,12.0751958 C40.7537859,11.829765 40.6678851,11.6886423 40.4531332,11.5597911 L20.6652742,0.128851175 C20.4627937,0.0122715405 20.3155352,0.0122715405 20.1191906,0.128851175 L0.294516971,11.5720627 C0.0920365535,11.6886423 0.0184073107,11.8174935 0.0184073107,12.044517 C0.0245430809,19.4013055 0.0245430809,26.8869452 0.0184073107,34.9432115 C0.0184073107,35.1640992 0.0859007833,35.2868146 0.276109661,35.3972585 L20.162141,46.8711488 C20.2112272,46.9018277 20.2909922,46.9570496 20.3830287,46.9570496 C20.4198433,46.9570496 20.481201,46.9386423 20.5057441,46.9263708 L23.1870757,45.3862924 L3.03720627,33.7344648 L2.85926893,33.6240209 L2.85313316,33.3969974 C2.85926893,26.623107 2.85926893,19.9535248 2.85313316,13.5845953 L2.85313316,13.3698433 L3.05561358,13.2471279 C5.03746736,12.1120104 7.14817232,10.8971279 9.22206266,9.68224543 C9.3386423,9.61475196 9.44295039,9.57793734 9.54112272,9.57793734 C9.64543081,9.57793734 9.7497389,9.61475196 9.88472585,9.6883812 L17.5360313,14.1306789 L16.235248,14.8792428 C14.5601828,15.8425587 12.8298956,16.8365535 11.1302872,17.812141 C10.9278068,17.9287206 10.8541775,18.0575718 10.8541775,18.2907311 C10.8603133,21.6592689 10.8603133,25.1505222 10.8541775,28.654047 C10.8541775,28.8810705 10.9278068,29.0099217 11.1302872,29.1265013 L25.6229765,37.4281984 C25.7211488,37.4834204 25.8070496,37.5079634 25.8929504,37.5079634 C25.9543081,37.5079634 26.0463446,37.4956919 26.1936031,37.4097911 C28.9669713,35.7960836 31.8691906,34.1148825 35.0659269,32.2802872 C35.2622715,32.1637076 35.3420366,32.0348564 35.3420366,31.8016971 C35.3359008,26.2672324 35.3359008,20.6714099 35.3420366,15.1553525 C35.3420366,14.9221932 35.2684073,14.793342 35.0720627,14.6828982 L20.6100522,6.33211488 C20.5609661,6.3075718 20.456658,6.25848564 20.3584856,6.25848564 C20.321671,6.25848564 20.2848564,6.26462141 20.2603133,6.28302872 L17.517624,7.86605744 L32.3171018,16.3640992 L32.5073107,16.4745431 L32.4950392,30.2738903 L32.4950392,30.4947781 L32.3048303,30.6052219 C30.4395561,31.697389 28.3902089,32.8754569 26.0463446,34.2191906 L25.8684073,34.3234987 L25.6843342,34.2253264 L13.8729765,27.4453003 L13.6766319,27.3348564 L13.6766319,27.1139687 C13.6827676,24.6596606 13.6827676,22.2053525 13.6766319,19.8246736 L13.6766319,19.6037859 L13.8668407,19.493342 C14.7503916,18.9840731 15.6339426,18.4748042 16.5236292,17.9655352 L16.5359008,17.9593995 C17.732376,17.2721932 18.9656658,16.5604439 20.1989556,15.8548303 L20.3891645,15.7443864 L20.5793734,15.8548303 L26.8992167,19.4872063 L27.0894256,19.5976501 L27.0894256,27.3348564 L22.9907311,29.6971279 L25.6291123,31.2126632 C25.6720627,31.2372063 25.7272846,31.2494778 25.7947781,31.2494778 C25.8745431,31.2494778 25.9665796,31.2310705 26.0279373,31.1942559 L29.6112272,29.1449086 C29.8443864,29.0160574 29.9302872,28.8749347 29.9241514,28.6110966 C29.9118799,25.2977807 29.9118799,21.8372063 29.9241514,18.3275457 C29.9241514,18.0637076 29.8443864,17.9225849 29.6112272,17.7875979 L12.3513055,7.88446475 L13.1060052,7.44882507 C15.4253264,6.10509138 17.8305483,4.71840731 20.1928198,3.36240209 L20.3830287,3.25195822 L20.5732376,3.36240209 L37.7288512,13.2532637 L37.9067885,13.3575718 C37.9067885,13.3575718 37.9129243,13.3575718 37.9129243,13.4127937 L37.9190601,13.5907311 L37.9190601,33.4276762 L37.9067885,33.6178851 L37.7472585,33.7221932 L25.9727154,40.5267624 L25.7763708,40.643342 L25.5800261,40.5206266 L8.4305483,30.5929504 L8.28328982,30.4886423 L8.27101828,30.3045692 L8.27101828,16.7690601 C8.27101828,16.7077023 8.27715405,16.6586162 8.28328982,16.60953 L8.3078329,16.4868146 L8.39986945,16.4070496 C8.4305483,16.3763708 8.47349869,16.3518277 8.52258486,16.3211488 L12.3206266,14.1245431 L9.76201044,12.6151436 C9.58407311,12.5108355 9.4613577,12.5108355 9.28342037,12.6090078 C8.06240209,13.3207572 6.84751958,14.0263708 5.66331593,14.7013055 C5.49151436,14.7994778 5.42402089,14.9160574 5.42402089,15.1185379 C5.43015666,20.5118799 5.43015666,26.1383812 5.42402089,31.8446475 C5.42402089,32.0471279 5.49151436,32.1637076 5.66331593,32.2618799 L25.5248042,43.7357702 C25.6229765,43.7909922 25.7088773,43.821671 25.7886423,43.821671 C25.8684073,43.821671 25.9543081,43.7909922 26.0524804,43.7357702 C31.6298956,40.5083551 36.2071802,37.8638381 40.4654047,35.4156658 C40.698564,35.2806789 40.7415144,35.1272846 40.7415144,34.9186684 C40.7476501,26.4206266 40.7476501,18.9472585 40.7537859,12.0751958 Z" id="Path" fill="url(#linearGradient-1)"></path>
                <g id="Group" transform="translate(51.847258, 14.480418)" fill="#3A3A3A">
                    <path d="M149.074674,17.7753264 C149.080809,17.7201044 149.080809,17.6342037 149.080809,17.5605744 L149.080809,12.4740209 L149.080809,12.4617493 C149.105352,12.2654047 149.154439,12.0936031 149.234204,11.9586162 L149.436684,11.6150131 C151.387859,8.33851175 155.198172,1.92049608 156.130809,0.331331593 L154.774804,0.325195822 C154.633681,0.319060052 154.572324,0.349738903 154.498695,0.478590078 L148.424282,10.7805483 L142.313055,0.435639687 C142.239426,0.306788512 142.184204,0.276109661 142.036945,0.282245431 L142.030809,0.282245431 C141.147258,0.282245431 140.865013,0.288381201 140.717755,0.288381201 C140.705483,0.288381201 140.693211,0.288381201 140.68094,0.288381201 C141.613577,1.87754569 145.417755,8.27101828 147.362794,11.5413838 L147.583681,11.9156658 C147.663446,12.0506527 147.718668,12.2224543 147.737076,12.418799 L147.737076,12.443342 C147.737076,14.2656658 147.737076,14.9712794 147.737076,17.5544386 C147.737076,17.6280679 147.737076,17.7139687 147.743211,17.7691906 C147.945692,17.7814621 148.859922,17.7814621 149.074674,17.7753264 Z" id="Path"></path>
                    <path d="M124.494778,17.7753264 C124.543864,17.7753264 124.586815,17.7753264 124.635901,17.7753264 L124.635901,11.0627937 L130.158094,11.056658 C130.16423,11.056658 130.16423,11.056658 130.170366,11.056658 C130.513969,11.056658 130.753264,11.1855091 130.955744,11.4738903 C132.182898,13.2471279 133.483681,15.1124021 135.177154,17.5237598 C135.306005,17.7078329 135.367363,17.7507833 135.391906,17.7630548 C135.827546,17.7875979 136.269321,17.7875979 136.73564,17.7814621 C136.766319,17.7814621 136.796997,17.7814621 136.827676,17.7814621 L132.127676,11.0443864 L132.495822,10.9707572 C133.692298,10.7375979 134.618799,10.2835509 135.336684,9.59020888 C136.93812,8.02558747 137.367624,6.20326371 136.655875,4.01279373 C136.005483,2.0002611 134.035901,0.429503916 132.07859,0.355874674 C130.121279,0.282245431 128.127154,0.282245431 126.200522,0.288381201 C125.525587,0.288381201 124.832245,0.288381201 124.145039,0.288381201 C124.145039,0.288381201 124.145039,0.288381201 124.138903,0.288381201 C123.86893,0.288381201 123.519191,0.368146214 123.378068,0.736292428 C123.304439,0.932637076 123.292167,1.19033943 123.292167,1.42963446 C123.286031,6.04373368 123.286031,10.7375979 123.286031,15.2780679 L123.286031,17.4992167 C123.286031,17.5360313 123.286031,17.5667102 123.286031,17.6035248 C123.286031,17.6648825 123.279896,17.7262402 123.292167,17.7630548 C123.292167,17.7691906 123.298303,17.7691906 123.298303,17.7753264 C123.697128,17.7814621 124.083681,17.7814621 124.494778,17.7753264 Z M124.635901,4.55887728 C124.635901,3.71214099 124.635901,2.87154047 124.635901,2.02480418 C124.635901,1.96344648 124.654308,1.90822454 124.66658,1.87140992 C124.672715,1.85913838 124.678851,1.84073107 124.684987,1.82232376 L124.727937,1.67506527 L124.881332,1.65052219 C124.899739,1.65052219 124.918146,1.64438642 124.936554,1.63825065 C124.979504,1.63211488 125.02859,1.61984334 125.083812,1.61984334 C125.734204,1.61984334 126.403003,1.61984334 127.041123,1.61370757 C128.556658,1.6075718 130.127415,1.60143603 131.673629,1.63211488 C132.71671,1.65665796 133.698433,2.09843342 134.446997,2.88994778 C135.238512,3.72441253 135.668016,4.84725849 135.631201,5.98237598 C135.563708,8.00718016 133.827285,9.74360313 131.839295,9.77428198 C130.354439,9.79882507 128.845039,9.79882507 127.37859,9.79882507 C126.642298,9.79882507 125.906005,9.79882507 125.175849,9.80496084 C125.175849,9.80496084 125.169713,9.80496084 125.169713,9.80496084 C125.040862,9.80496084 124.881332,9.78655352 124.764752,9.66997389 C124.678851,9.58407311 124.635901,9.45522193 124.635901,9.30182768 C124.635901,7.72493473 124.635901,6.14190601 124.635901,4.55887728 Z" id="Shape"></path>
                    <path d="M88.0421671,8.27715405 C87.8396867,8.46122715 87.7353786,8.70052219 87.7353786,8.96436031 C87.7353786,9.20365535 87.8396867,9.43067885 88.0114883,9.58407311 L88.017624,9.59020888 L96.5586162,17.5237598 C96.6199739,17.5851175 96.7733681,17.7262402 96.8347258,17.7262402 C97.4114883,17.7446475 97.9943864,17.7446475 98.5650131,17.7385117 C98.6140992,17.7385117 98.6570496,17.7385117 98.7061358,17.7385117 L89.2877285,8.93981723 L98.5834204,0.282245431 C98.54047,0.282245431 98.5036554,0.282245431 98.460705,0.282245431 C97.9821149,0.282245431 97.4912533,0.288381201 97.0065274,0.276109661 C97.0003916,0.276109661 96.9881201,0.276109661 96.9819843,0.276109661 C96.7979112,0.276109661 96.6567885,0.337467363 96.5033943,0.478590078 C96.0493473,0.901958225 95.5891645,1.32532637 95.1351175,1.74869452 C92.8096606,3.8962141 90.4167102,6.11736292 88.0421671,8.27715405 Z" id="Path"></path>
                    <path d="M86.7291123,17.7446475 C86.7475196,17.7446475 86.7597911,17.7446475 86.7659269,17.7446475 C86.7659269,17.732376 86.7720627,17.7139687 86.7720627,17.6894256 L86.7720627,0.349738903 C86.7720627,0.337467363 86.7720627,0.325195822 86.7720627,0.306788512 C86.7720627,0.300652742 86.7720627,0.294516971 86.7720627,0.282245431 C86.7597911,0.282245431 86.7475196,0.282245431 86.7291123,0.282245431 L85.4774151,0.282245431 L85.4774151,17.7446475 L86.3732376,17.7446475 L86.7291123,17.7446475 Z" id="Path"></path>
                    <path d="M78.9182768,17.7507833 C79.660705,17.7446475 79.8631854,17.7446475 80.1454308,17.7446475 L73.1199739,1.33146214 C73.0340731,1.13511749 72.9481723,0.926501305 72.85,0.736292428 C72.7334204,0.503133159 72.5800261,0.368146214 72.3836815,0.312924282 L72.3591384,0.306788512 C72.3530026,0.306788512 72.3468668,0.306788512 72.3407311,0.300652742 L72.3284595,0.300652742 C72.316188,0.300652742 72.3039164,0.294516971 72.2855091,0.294516971 C72.2609661,0.288381201 72.2425587,0.288381201 72.2180157,0.288381201 C72.2118799,0.288381201 72.2118799,0.288381201 72.2057441,0.288381201 L72.1934726,0.288381201 C72.1689295,0.288381201 72.1443864,0.288381201 72.1259791,0.288381201 L72.1075718,0.288381201 C72.101436,0.288381201 72.101436,0.288381201 72.0953003,0.288381201 C72.0707572,0.288381201 72.0523499,0.294516971 72.0278068,0.294516971 C72.0093995,0.294516971 71.9971279,0.300652742 71.9848564,0.300652742 L71.9787206,0.300652742 C71.9725849,0.300652742 71.9664491,0.300652742 71.9603133,0.306788512 C71.9603133,0.306788512 71.9541775,0.306788512 71.9541775,0.306788512 L71.9357702,0.312924282 C71.7394256,0.368146214 71.5860313,0.50926893 71.4694517,0.736292428 C71.3712794,0.926501305 71.2853786,1.12898172 71.1994778,1.33146214 L71.168799,1.40509138 L64.1740209,17.7446475 C64.4562663,17.7446475 64.652611,17.7446475 65.4011749,17.7507833 L65.4134465,17.7507833 C65.5975196,17.7630548 65.6588773,17.732376 65.7509138,17.5114883 L72.156658,2.56475196 L78.5685379,17.5114883 C78.6605744,17.732376 78.7280679,17.7630548 78.9060052,17.7507833 L78.9182768,17.7507833 Z" id="Path"></path>
                    <path d="M58.8113577,1.01240209 C58.7868146,0.552219321 58.4800261,0.288381201 58.001436,0.306788512 C57.6578329,0.319060052 57.4921671,0.546083551 57.2712794,0.883550914 C56.185248,2.55861619 55.0992167,4.23368146 54.0193211,5.90874674 C53.1725849,7.22180157 52.3197128,8.5348564 51.4729765,9.84791123 C51.3011749,10.1117493 50.9023499,10.6885117 50.871671,10.7375979 L50.6753264,11.0137076 L50.4789817,10.7375979 C50.4483029,10.6946475 50.0494778,10.1178851 49.8776762,9.84791123 C49.0186684,8.51644909 48.1596606,7.19112272 47.294517,5.85966057 C46.2207572,4.20300261 45.1469974,2.54020888 44.0732376,0.883550914 C43.8523499,0.546083551 43.6805483,0.319060052 43.3430809,0.306788512 C42.8644909,0.288381201 42.5638381,0.552219321 42.5331593,1.01240209 C42.5270235,1.11057441 42.5270235,1.20874674 42.5270235,1.31305483 L42.5270235,1.39281984 C42.5270235,6.75548303 42.5270235,12.1181462 42.5270235,17.4808094 C42.5270235,17.5789817 42.5270235,17.6832898 42.5331593,17.7385117 C42.594517,17.7446475 42.7049608,17.7446475 42.8092689,17.7446475 L43.8155352,17.7446475 L43.8155352,2.71201044 L50.6691906,13.271671 L50.6753264,13.2593995 L50.6814621,13.271671 L52.1295039,11.0259791 L57.5351175,2.71201044 L57.5351175,17.7446475 L58.5413838,17.7446475 C58.6456919,17.7446475 58.7561358,17.7446475 58.8174935,17.7385117 C58.8236292,17.677154 58.8236292,17.572846 58.8236292,17.4808094 C58.8236292,12.1181462 58.8236292,6.75548303 58.8236292,1.39281984 L58.8236292,1.31305483 C58.8174935,1.20874674 58.8174935,1.11057441 58.8113577,1.01240209 Z" id="Path"></path>
                    <g transform="translate(19.757180, 0.000000)" id="Shape">
                        <path d="M8.945953,0.0552219321 C13.6030026,-0.0306788512 17.9103133,3.70600522 17.8857702,9.01344648 C17.8612272,13.9956919 13.9220627,17.9164491 9.11775457,17.9778068 C4.16618799,18.0453003 0.171801567,14.0631854 0.0552219321,9.07480418 C-0.0552219321,4.19073107 4.06801567,-0.0306788512 8.945953,0.0552219321 Z M16.1309399,8.95822454 C16.1616188,5.01906005 12.9403394,1.72415144 9.05639687,1.72415144 C5.07428198,1.72415144 1.85300261,4.89634465 1.79778068,8.82937337 C1.74255875,12.9403394 5.10496084,16.2966057 8.96436031,16.3272846 C12.7562663,16.3518277 16.2045692,12.9587467 16.1309399,8.95822454 Z"></path>
                        <path d="M8.99503916,18.0146214 C6.64503916,18.0146214 4.43616188,17.1065274 2.75496084,15.4498695 C1.05535248,13.7686684 0.0859007833,11.510705 0.0245430809,9.08093995 C-0.0306788512,6.71866841 0.920365535,4.37480418 2.6383812,2.65065274 C4.33185379,0.944908616 6.63276762,-0.00613577023 8.93981723,0.0306788512 C11.2775457,-0.0122715405 13.5907311,0.920365535 15.2780679,2.58929504 C16.983812,4.27663185 17.9225849,6.55913838 17.9103133,9.02571802 C17.8980418,11.4309399 16.9776762,13.6827676 15.3087467,15.3762402 C13.6582245,17.0513055 11.455483,17.9900783 9.1116188,18.026893 C9.07480418,18.0146214 9.03185379,18.0146214 8.99503916,18.0146214 Z M8.81096606,0.0859007833 C6.55913838,0.0859007833 4.33798956,1.0308094 2.68746736,2.68746736 C0.981723238,4.40548303 0.0368146214,6.73093995 0.0920365535,9.07480418 C0.147258486,11.4861619 1.11057441,13.7318538 2.804047,15.4007833 C4.49751958,17.0758486 6.74321149,17.9839426 9.12389034,17.9471279 C11.4493473,17.9164491 13.6398172,16.9776762 15.2780679,15.3148825 C16.9347258,13.6398172 17.8489556,11.4002611 17.8612272,9.0073107 C17.8734987,6.55913838 16.9469974,4.28890339 15.247389,2.61997389 C13.566188,0.963315927 11.2714099,0.0368146214 8.95208877,0.0797650131 C8.89686684,0.0859007833 8.85391645,0.0859007833 8.81096606,0.0859007833 Z M9.01344648,16.3518277 C8.99503916,16.3518277 8.98276762,16.3518277 8.96436031,16.3518277 C7.1113577,16.3395561 5.27062663,15.5357702 3.91462141,14.1490862 C2.50339426,12.7071802 1.74255875,10.8173629 1.76710183,8.8232376 C1.79164491,6.91501305 2.55861619,5.12336815 3.93302872,3.77963446 C5.30744125,2.43590078 7.12362924,1.69347258 9.05639687,1.69347258 C9.05639687,1.69347258 9.05639687,1.69347258 9.05639687,1.69347258 C10.921671,1.69347258 12.6949086,2.44203655 14.0447781,3.80417755 C15.4253264,5.19699739 16.1738903,7.02545692 16.1616188,8.95822454 C16.1984334,10.8603133 15.4130548,12.7624021 14.0140992,14.179765 C12.6458225,15.5603133 10.8234987,16.3518277 9.01344648,16.3518277 Z M9.05639687,1.75483029 C9.05639687,1.75483029 9.05639687,1.75483029 9.05639687,1.75483029 C7.13590078,1.75483029 5.33198433,2.49112272 3.96984334,3.82258486 C2.61383812,5.154047 1.84686684,6.93342037 1.82232376,8.8232376 C1.79778068,10.7989556 2.55248042,12.6765013 3.95143603,14.1061358 C5.29516971,15.4805483 7.12362924,16.2720627 8.95822454,16.29047 C8.97663185,16.29047 8.98890339,16.29047 9.0073107,16.29047 C10.8050914,16.29047 12.6090078,15.5050914 13.9650131,14.1306789 C15.3516971,12.7255875 16.1309399,10.8357702 16.0941253,8.95208877 C16.1063969,7.03772846 15.3639687,5.22154047 13.9956919,3.84099217 C12.6642298,2.49725849 10.9093995,1.75483029 9.05639687,1.75483029 Z" fill-rule="nonzero"></path>
                    </g>
                    <path d="M16.1800261,14.3208877 C16.0879896,14.2472585 15.9898172,14.1736292 15.8977807,14.1 C15.6032637,13.8729765 15.302611,13.6336815 14.9896867,13.4189295 C14.8301567,13.3146214 14.6890339,13.4557441 14.6460836,13.4986945 C14.5417755,13.6091384 14.4436031,13.725718 14.3454308,13.8422977 C14.2472585,13.9650131 14.1429504,14.0938642 14.0263708,14.2104439 C12.9955614,15.2289817 11.7193211,15.8732376 10.228329,16.1186684 C8.8232376,16.3518277 7.57767624,16.235248 6.41801567,15.7627937 C4.55274151,15.008094 3.10469974,13.5784595 2.33772846,11.7438642 C1.58916449,9.95221932 1.58916449,7.97650131 2.33159269,6.17872063 C3.02493473,4.50979112 4.28890339,3.17832898 5.88420366,2.43590078 C7.49177546,1.68733681 9.3386423,1.58302872 11.0873368,2.14138381 C12.2408616,2.50953003 13.2778068,3.19673629 14.1613577,4.1845953 L14.179765,4.20300261 C14.25953,4.29503916 14.394517,4.44843342 14.554047,4.33798956 C14.8608355,4.09869452 15.1614883,3.8348564 15.4498695,3.58328982 C15.541906,3.5035248 15.6278068,3.42375979 15.7198433,3.35013055 L15.7443864,3.33172324 L15.7259791,3.30718016 C14.6583551,1.97571802 13.2409922,0.993994778 11.6150131,0.460182768 C9.86018277,-0.110443864 7.97036554,-0.110443864 6.14804178,0.478590078 C2.1843342,1.74869452 -0.26997389,5.4424282 0.0368146214,9.66997389 C0.171801567,11.5475196 0.938772846,13.3882507 2.19046997,14.8669713 C3.50966057,16.4193211 5.23381201,17.4439948 7.19112272,17.8366841 C7.81083551,17.9593995 8.4305483,18.0207572 9.0502611,18.0207572 C10.2221932,18.0207572 11.375718,17.7998695 12.4678851,17.358094 C14.0386423,16.7261097 15.3639687,15.6584856 16.2045692,14.3638381 L16.2229765,14.339295 L16.1800261,14.3208877 Z" id="Path"></path>
                    <rect id="Rectangle" x="104.277415" y="8.34464752" width="13.2409922" height="1.36827676"></rect>
                    <rect id="Rectangle" x="104.277415" y="16.3886423" width="13.2409922" height="1.36827676"></rect>
                    <rect id="Rectangle" x="104.277415" y="0.300652742" width="13.2409922" height="1.36827676"></rect>
                </g>
            </g>
        </g>
    </g>
</svg>