<?xml version="1.0" encoding="utf-8"?>
<!-- Generator: Adobe Illustrator 22.0.0, SVG Export Plug-In . SVG Version: 6.00 Build 0)  -->
<svg version="1.1" id="Layer_1" xmlns="http://www.w3.org/2000/svg" xmlns:xlink="http://www.w3.org/1999/xlink" x="0px" y="0px"
	 viewBox="0 0 417.2 463" style="enable-background:new 0 0 417.2 463;" xml:space="preserve">
<style type="text/css">
	.st0{fill:#FFFFFF;}
</style>
<path id="XMLID_1_" class="st0" d="M401.5,117.7C356,91.5,310.4,65.2,267.7,40.5c-10.4-6-20.9-12.1-31.2-18.1
	c-8.6-5-17.1-9.9-25.6-14.8c-1.9-1.1-3.3-1.1-5.3,0c-21,12.1-42.4,24.5-61.4,35.5l-5.3,3.1c-39.8,23-82.3,47.5-124.2,71.6
	c-1.9,1.1-2.6,2.4-2.6,4.6c0.1,70.8,0.1,143,0,220.5c0,2.1,0.7,3.3,2.5,4.4c27.9,16.1,56.3,32.5,83.7,48.3l2.1,1.2
	c10,5.8,20.1,11.6,30.1,17.4c28.8,16.6,52.8,30.5,75.6,43.6c0.5,0.3,1.5,0.7,2.4,0.7c0.4,0,0.7-0.1,0.9-0.2
	c6.5-3.7,12.9-7.3,19.6-11.2l6.2-3.6l-0.9-0.5c-0.3-0.2-0.6-0.4-0.8-0.5l-0.1,0c-0.5-0.3-1-0.6-1.5-0.9c-7-4.1-14.1-8.1-21.1-12.2
	l-35.7-20.6c-43.9-25.3-89.2-51.5-133.9-77.2l-0.2-0.1l-1.7-1l-0.1-2.2c0.1-65.3,0.1-129.4,0-190.8l0-2.1l2-1.2
	c19.1-11,39.4-22.6,59.4-34.3c1.1-0.7,2.1-1,3.1-1c1,0,2,0.3,3.3,1.1c17.2,10.1,34.8,20.2,51.7,30l21.9,12.7l-12.5,7.2
	c-16.1,9.3-32.8,18.9-49.2,28.3c-2,1.1-2.7,2.4-2.7,4.6c0.1,32.4,0.1,66,0,99.8c0,2.2,0.7,3.4,2.7,4.5
	c29.3,16.7,60.1,34.4,91.7,52.5c4.1,2.3,8.1,4.8,12,7.1c4.2,2.5,8.6,5.2,13,7.7c4.2,2.4,8.5,4.7,12.7,7l-1.7,3.3l1.8-3.2
	c3.4,1.8,6.8,3.7,10.2,5.6c1,0.5,1.8,0.8,2.6,0.8c0.6,0,1.5-0.1,2.9-0.9c26.7-15.5,54.7-31.7,85.5-49.4c1.9-1.1,2.6-2.4,2.6-4.6
	c-0.1-53.3-0.1-107.2,0-160.3c0-2.2-0.7-3.5-2.6-4.6c-25.9-14.9-52-30-77.1-44.6l-24.7-14.3c-12.2-7.1-24.8-14.4-37.4-21.6
	c-0.5-0.3-1.5-0.7-2.4-0.7c-0.4,0-0.7,0.1-0.9,0.2c-6.8,3.8-13.3,7.6-20.3,11.7l-6.1,3.6l0.9,0.5c0.3,0.2,0.5,0.3,0.7,0.5
	c0.5,0.3,0.9,0.6,1.3,0.8c2.8,1.5,5.6,3.1,8.4,4.6l0.1,0.1c5.7,3.1,11.6,6.3,17.4,9.7c20.4,11.8,41.1,23.8,61.2,35.4l1.2,0.7
	c17.1,9.9,34.2,19.8,51.4,29.7l1.9,1.1l0,2.1c0,9.8,0,19.8,0,29.4l0,22.5c0,25.8,0,52.5-0.1,78.9l0,2.1l-1.8,1.1
	c-18,10.5-37.7,21.9-60.2,34.8l-1.7,1l-1.8-0.9c-3.2-1.7-6.4-3.5-9.4-5.2c-18.3-10.5-36.5-21-54.8-31.6l-15.8-9.1
	c-2.8-1.6-5.5-3.2-8.3-4.8l-0.1-0.1c-8.3-4.8-16.9-9.8-25.5-14.6l-1.9-1.1l0-2.1c0.1-23.7,0.1-47.3,0-70.2l0-2.1l1.9-1.1
	c8.5-4.9,17-9.8,25.6-14.7l0.1-0.1c11.5-6.6,23.4-13.5,35.3-20.2l1.8-1l1.8,1c11.7,6.7,23.5,13.5,35,20.1l0.2,0.1
	c8.6,4.9,17.2,9.9,25.7,14.8l1.9,1.1l0,2.1c0,25.4,0,48.4,0,70.2l0,2.1l-1.9,1.1c-9.1,5.2-18.2,10.4-27,15.5l-6.7,3.9
	c-0.6,0.4-1.2,0.7-1.9,1.1l-0.1,0c-0.3,0.2-0.7,0.4-1,0.6l-0.9,0.5l6.4,3.7c6.5,3.8,12.7,7.3,19,10.9c0.4,0.2,0.9,0.3,1.6,0.3
	c0.8,0,1.7-0.2,2.2-0.5c5.3-3,10.7-6.1,15.9-9.1l0.2-0.1c6-3.5,12.3-7.1,18.4-10.5c2.3-1.3,3-2.6,3-5.1c-0.1-31.9-0.1-65.2,0-99
	c0-2.6-0.8-3.9-3-5.2c-28.3-16.1-57-32.6-84.8-48.5l-6.2-3.6c-20.6-11.8-41.2-23.7-61.8-35.5l-2.8-1.6c-1.7-1-3.5-2-5.2-3l-5.5-3.2
	l7.3-4.2c22.4-12.9,45.5-26.3,68.3-39.4l1.8-1.1l1.8,1.1c26.9,15.5,53.8,31,80.7,46.6c28.1,16.2,56.3,32.5,84.4,48.7l0.3,0.2
	l1.5,1.1l0,2c-0.1,65.4-0.1,129.5,0,190.5c0,0.2,0,0.4,0,0.5l-0.1,1.8l-1.5,1c-0.1,0.1-0.2,0.1-0.3,0.2
	c-38.7,22.3-76.7,44.2-113.1,65.3l-1.9,1.1l-1.9-1.2c-1.9-1.2-3.8-2.3-5.7-3.5c-6.4-4-13.1-8.2-19.8-12c-7.7-4.4-15.5-8.8-23.1-13.1
	l-0.2-0.1c-7-3.9-14.3-8-21.3-12.1c-16.5-9.5-33.2-19.1-49.4-28.5l-0.5-0.3c-14.6-8.4-29.6-17.1-44.5-25.7c-0.3-0.1-0.4-0.3-0.6-0.4
	l-1.4-1l-0.1-1.7c0-0.1,0-0.3,0-0.6c0.1-44.6,0.1-88.3,0-129.8c0-0.6,0-1.1,0.1-1.5l0.3-1.2l0.9-0.8c0.3-0.3,0.7-0.6,1.2-0.8
	c8.8-5,17.4-10,26.5-15.3l0.2-0.1c3-1.7,6-3.5,9.1-5.3l0.9-0.5l-0.8-0.5c-0.3-0.2-0.6-0.4-0.9-0.6c-0.6-0.4-1-0.7-1.4-0.9
	c-2.1-1.2-4.1-2.4-6.2-3.6l-0.2-0.1c-5-2.9-10.1-5.8-15.2-8.8c-1.7-1-2.9-1-4.6,0c-11.8,6.9-23.5,13.7-34.9,20.2
	c-1.6,0.9-2.3,2.1-2.3,4c0.1,51.9,0.1,106.1,0,161.1c0,1.9,0.6,3,2.3,4c15.8,9.2,31.7,18.4,47.1,27.3c15.7,9.1,31.9,18.5,47.9,27.8
	c10.2,5.9,20.6,11.9,30.7,17.6l0.4,0.2c7.5,4.3,15,8.5,22.4,12.8c15.7,9,29.7,17.1,42.7,24.7c0.9,0.5,1.7,0.8,2.5,0.8
	c0.8,0,1.6-0.3,2.6-0.8c53.7-31.1,97.8-56.5,138.8-80.1c2.2-1.3,2.7-2.8,2.7-4.8c0-81.8,0-153.8,0-220
	C404.4,120.3,403.6,118.9,401.5,117.7z"/>
</svg>
