<?xml version="1.0" encoding="UTF-8"?>
<svg width="16px" height="16px" viewBox="0 0 16 16" version="1.1" xmlns="http://www.w3.org/2000/svg" xmlns:xlink="http://www.w3.org/1999/xlink">
    <!-- Generator: Sketch 57.1 (83088) - https://sketch.com -->
    <title>ICON/AML_KYC/NONE</title>
    <desc>Created with Sketch.</desc>
    <g id="Symbols" stroke="none" stroke-width="1" fill="none" fill-rule="evenodd">
        <g id="ICON/AML_KYC/NONE" fill="#fe2d6c" fill-rule="nonzero">
            <g>
                <path d="M2,4 L0,4 L0,1 C0,0.44771525 0.44771525,0 1,0 L4,0 L4,2 L2,2 L2,4 Z" id="Path"></path>
                <path d="M16,4 L14,4 L14,2 L12,2 L12,0 L15,0 C15.5522847,0 16,0.44771525 16,1 L16,4 Z" id="Path"></path>
                <path d="M4,16 L1,16 C0.44771525,16 0,15.5522847 0,15 L0,12 L2,12 L2,14 L4,14 L4,16 Z" id="Path"></path>
                <path d="M15,16 L12,16 L12,14 L14,14 L14,12 L16,12 L16,15 C16,15.5522847 15.5522847,16 15,16 Z" id="Path"></path>
                <path d="M14.82,7.428 C13.2161445,5.27191639 10.687201,4.00122383 8,4.00122383 C5.31279902,4.00122383 2.78385554,5.27191639 1.18,7.428 C0.940338159,7.77167743 0.940338159,8.22832257 1.18,8.572 C2.78385554,10.7280836 5.31279902,11.9987762 8,11.9987762 C10.687201,11.9987762 13.2161445,10.7280836 14.82,8.572 C15.0596618,8.22832257 15.0596618,7.77167743 14.82,7.428 Z M8,10 C6.8954305,10 6,9.1045695 6,8 C6,6.8954305 6.8954305,6 8,6 C9.1045695,6 10,6.8954305 10,8 C10,8.53043298 9.78928632,9.03914081 9.41421356,9.41421356 C9.03914081,9.78928632 8.53043298,10 8,10 Z" id="Shape"></path>
            </g>
        </g>
    </g>
</svg>