<?xml version="1.0" encoding="UTF-8"?>
<svg width="50px" height="45px" viewBox="0 0 50 45" version="1.1" xmlns="http://www.w3.org/2000/svg" xmlns:xlink="http://www.w3.org/1999/xlink">
    <!-- Generator: Sketch 53 (72520) - https://sketchapp.com -->
    <title>ICON/MARKETING</title>
    <desc>Created with Sketch.</desc>
    <defs>
        <linearGradient x1="100%" y1="50%" x2="0%" y2="50%" id="linearGradient-1">
            <stop stop-color="#FB40E5" offset="0%"></stop>
            <stop stop-color="#0089F4" offset="100%"></stop>
        </linearGradient>
    </defs>
    <g id="MISSIONS-+-PROJECTS" stroke="none" stroke-width="1" fill="none" fill-rule="evenodd">
        <g id="MISSIONS/SINGLE_PROJECT/LOGGED_IN" transform="translate(-1017.000000, -2223.000000)">
            <g id="SKILLS-NEEDED" transform="translate(0.000000, 1336.000000)">
                <g id="COMMUNITY-MANAGEMENT" transform="translate(345.000000, 851.000000)">
                    <g id="ICON/MARKETING" transform="translate(695.500000, 59.500000) rotate(51.000000) translate(-695.500000, -59.500000) translate(669.000000, 33.000000)">
                        <g id="business-affiliate-network" transform="translate(1.060000, 2.120000)">
                            <path d="M18.62102,16.89428 L15.59048,14.03016 C15.94346,13.38886 16.16182,12.66276 16.16182,11.87942 C16.16182,9.3969 14.151,7.38608 11.66742,7.38608 C9.18384,7.38608 7.16984,9.39584 7.16984,11.87942 C7.16984,14.363 9.18384,16.37488 11.66742,16.37488 C12.54298,16.37488 13.35282,16.11412 14.04394,15.68164 L17.07024,18.54258 C17.52816,17.93732 18.04438,17.38294 18.62102,16.89428 Z" id="Path" fill="#000000"></path>
                            <path d="M31.4396,16.536 L35.46654,9.75942 C35.86298,9.87284 36.27426,9.95446 36.70568,9.95446 C39.1935,9.95446 41.20432,7.94258 41.20432,5.459 C41.20432,2.97648 39.1935,0.96566 36.70568,0.96566 C34.2221,0.96566 32.21234,2.97542 32.21234,5.459 C32.21234,6.69178 32.70948,7.80584 33.51296,8.61886 L29.49874,15.37636 C30.1888,15.68906 30.83964,16.07914 31.4396,16.536 Z" id="Path" fill="#000000"></path>
                            <path d="M45.32772,22.20912 C43.39428,22.20912 41.75658,23.43766 41.12164,25.15062 L35.52696,24.59836 C35.52696,24.64076 35.53332,24.68104 35.53332,24.72238 C35.53332,25.45166 35.45276,26.16398 35.30754,26.85192 L40.9001,27.40418 C41.23824,29.54962 43.08582,31.19474 45.32772,31.19474 C47.81024,31.19474 49.82,29.18498 49.82,26.70246 C49.82,24.221 47.81024,22.20912 45.32772,22.20912 Z" id="Path" fill="#000000"></path>
                            <path d="M29.88882,39.88144 L28.63802,34.41608 C27.93206,34.662 27.19748,34.83796 26.4311,34.92594 L27.68402,40.39236 C26.24772,41.1439 25.25662,42.62896 25.25662,44.36312 C25.25662,46.84564 27.26638,48.85434 29.7542,48.85434 C32.23672,48.85434 34.24648,46.84458 34.24648,44.36312 C34.24966,41.92618 32.30774,39.95352 29.88882,39.88144 Z" id="Path" fill="#000000"></path>
                            <path d="M15.21842,26.8922 L8.25422,29.22526 C7.45074,27.99778 6.06744,27.1837 4.49334,27.1837 C2.00976,27.1837 0,29.19452 0,31.67704 C0,34.16274 2.00976,36.17356 4.49334,36.17356 C6.9748,36.17356 8.98986,34.16274 8.98986,31.67704 C8.98986,31.57316 8.9676,31.47776 8.95912,31.376 L15.94558,29.03658 C15.63076,28.35712 15.3806,27.64162 15.21842,26.8922 Z" id="Path" fill="#000000"></path>
                            <circle id="Oval" fill="url(#linearGradient-1)" cx="25.2598" cy="24.72238" r="7.70726"></circle>
                        </g>
                    </g>
                </g>
            </g>
        </g>
    </g>
</svg>