<svg xmlns="http://www.w3.org/2000/svg" width="50" height="50" viewBox="0 0 50 50">
    <g fill="none" fill-rule="nonzero" transform="translate(0 2)">
        <circle cx="25.518" cy="23.879" r="23.879" fill="#FB40E5"/>
        <path fill="#0089F4" d="M49.245 11.838H25.928v9.021c0 .268-.219.488-.487.488h-3.17v8.78a.66.66 0 0 0 .658.658h26.316a.66.66 0 0 0 .658-.658V12.496a.66.66 0 0 0-.658-.658z"/>
        <path fill="#989898" d="M24.205 30.127v-8.78h-1.934v8.78a.66.66 0 0 0 .658.658h1.934a.66.66 0 0 1-.658-.658z"/>
        <path fill="#FFF" d="M43.592 22.14a.537.537 0 0 0-.848 0l-3.42 4.057a.537.537 0 0 1-.848 0L32.02 18.54a.537.537 0 0 0-.848 0l-8.9 10.558v1.03a.66.66 0 0 0 .657.658h26.316a.66.66 0 0 0 .658-.658v-.501l-6.311-7.487z"/>
        <circle cx="45.292" cy="16.734" r="2.467" fill="#FFF"/>
        <path fill="#D9EAFC" d="M44.189 16.734c0-1.126.754-2.075 1.785-2.371a2.468 2.468 0 0 0-3.148 2.37 2.467 2.467 0 0 0 3.148 2.372 2.468 2.468 0 0 1-1.785-2.371z"/>
        <path fill="#E4E4E4" d="M26.026 20.957c0 .268-.22.487-.488.487H.488A.489.489 0 0 1 0 20.957V1.852c0-.268.22-.488.487-.488h25.051c.269 0 .488.22.488.488v19.105z"/>
        <path fill="#0089F4" d="M8.04 6.637c0-.536.38-.755.845-.487l8.256 4.767c.464.268.464.707 0 .975l-8.256 4.767c-.465.268-.844.048-.844-.488V6.637z"/>
        <path fill="#D9EAFC" d="M9.974 6.78l-1.09-.63c-.464-.268-.843-.049-.843.487v9.534c0 .536.38.756.844.488l1.09-.63V6.78z"/>
        <g fill="#000">
            <path d="M24.513 5.118c0 .16-.131.292-.292.292h-2.047a.293.293 0 0 1-.292-.292V3.071c0-.16.131-.292.292-.292h2.047c.16 0 .292.132.292.292v2.047zM24.513 8.773c0 .16-.131.292-.292.292h-2.047a.293.293 0 0 1-.292-.292V6.726c0-.16.131-.292.292-.292h2.047c.16 0 .292.131.292.292v2.047zM24.513 12.428c0 .16-.131.292-.292.292h-2.047a.293.293 0 0 1-.292-.292V10.38c0-.16.131-.292.292-.292h2.047c.16 0 .292.131.292.292v2.047zM24.513 16.082c0 .161-.131.293-.292.293h-2.047a.293.293 0 0 1-.292-.293v-2.046c0-.161.131-.293.292-.293h2.047c.16 0 .292.132.292.293v2.046zM24.513 19.737c0 .161-.131.293-.292.293h-2.047a.293.293 0 0 1-.292-.293v-2.046c0-.161.131-.293.292-.293h2.047c.16 0 .292.132.292.293v2.046zM4.144 5.118c0 .16-.132.292-.292.292H1.805a.293.293 0 0 1-.292-.292V3.071c0-.16.131-.292.292-.292h2.047c.16 0 .292.132.292.292v2.047zM4.144 8.773c0 .16-.132.292-.292.292H1.805a.293.293 0 0 1-.292-.292V6.726c0-.16.131-.292.292-.292h2.047c.16 0 .292.131.292.292v2.047zM4.144 12.428c0 .16-.132.292-.292.292H1.805a.293.293 0 0 1-.292-.292V10.38c0-.16.131-.292.292-.292h2.047c.16 0 .292.131.292.292v2.047zM4.144 16.082c0 .161-.132.293-.292.293H1.805a.293.293 0 0 1-.292-.293v-2.046c0-.161.131-.293.292-.293h2.047c.16 0 .292.132.292.293v2.046zM4.144 19.737c0 .161-.132.293-.292.293H1.805a.293.293 0 0 1-.292-.293v-2.046c0-.161.131-.293.292-.293h2.047c.16 0 .292.132.292.293v2.046z"/>
        </g>
        <path fill="#52BBEF" d="M20.073 23.777H3.123a.489.489 0 0 0-.488.488v6.456a23.77 23.77 0 0 0 2.948 6.305h6.148L15.705 41c.19.19.345.126.345-.142v-3.832h4.023c.268 0 .487-.22.487-.487V24.265a.489.489 0 0 0-.487-.488z"/>
        <path fill="#1E99D6" d="M4.57 24.265c0-.268.219-.488.487-.488H3.123a.489.489 0 0 0-.488.488v6.456a23.731 23.731 0 0 0 1.934 4.624v-11.08z"/>
        <g fill="#FFF">
            <path d="M16.435 28.623H6.76a.731.731 0 0 1 0-1.462h9.674a.731.731 0 0 1 0 1.462zM16.435 31.168H6.76a.731.731 0 0 1 0-1.462h9.674a.731.731 0 0 1 0 1.462zM11.617 33.712H6.761a.731.731 0 0 1 0-1.462h4.856a.731.731 0 0 1 0 1.462z"/>
        </g>
        <path fill="#0089F4" d="M38.169 33.29H22.808a.489.489 0 0 0-.488.488v11.629c0 .268.22.487.488.487h11.976a23.81 23.81 0 0 0 3.872-2.073V33.778a.489.489 0 0 0-.487-.488z"/>
        <path fill="#353535" d="M24.254 45.406V33.778c0-.268.22-.488.487-.488h-1.933a.489.489 0 0 0-.488.488v11.629c0 .268.22.487.488.487h1.933a.489.489 0 0 1-.487-.488z"/>
        <path fill="#FFF" d="M27.78 36.963c0-.536.38-.756.844-.488l4.554 2.63c.464.268.464.706 0 .974l-4.554 2.63c-.464.268-.844.048-.844-.488v-5.258z"/>
    </g>
</svg>
