<svg xmlns="http://www.w3.org/2000/svg" xmlns:xlink="http://www.w3.org/1999/xlink" viewBox="0 0 719 144"><defs><style>.a{clip-path:url(#v);}.b{fill:url(#a);}.c{fill:url(#b);}.d{fill:url(#c);}.e{fill:url(#d);}.f{fill:url(#e);}.g{fill:url(#f);}.h{fill:url(#g);}.i{fill:url(#h);}.j{fill:url(#i);}.k{fill:url(#j);}.l{fill:url(#k);}.m{opacity:0.53;}.n{fill:url(#l);}.o{fill:url(#m);}.p{fill:url(#n);}.q{fill:url(#o);}.r{fill:url(#p);}.s{fill:url(#q);}.t{fill:url(#r);}.u{fill:url(#s);}.v{fill:url(#t);}.w{fill:rgba(255,255,255,0);}</style><linearGradient id="a" x1="-1.462" y1="0.426" x2="8.33" y2="0.796" gradientUnits="objectBoundingBox"><stop offset="0" stop-color="#ff0b88"/><stop offset="0.03" stop-color="#fe1ba4"/><stop offset="0.08" stop-color="#fd2bc1"/><stop offset="0.12" stop-color="#fc37d5"/><stop offset="0.16" stop-color="#fb3ee1"/><stop offset="0.21" stop-color="#fb40e5"/><stop offset="0.24" stop-color="#eb45e6"/><stop offset="0.32" stop-color="#c251e8"/><stop offset="0.42" stop-color="#7f64ec"/><stop offset="0.54" stop-color="#237ff2"/><stop offset="0.58" stop-color="#0089f4"/><stop offset="0.61" stop-color="#008ef5"/><stop offset="0.75" stop-color="#00a5fb"/><stop offset="0.88" stop-color="#00b2fe"/><stop offset="1" stop-color="#00b7ff"/></linearGradient><linearGradient id="b" x1="-0.221" y1="0.474" x2="8.43" y2="0.778" xlink:href="#a"/><linearGradient id="c" x1="-3.934" y1="0.344" x2="5.758" y2="0.705" xlink:href="#a"/><linearGradient id="d" x1="-7.93" y1="0.275" x2="6.462" y2="0.644" xlink:href="#a"/><linearGradient id="e" x1="-31.303" y1="0.303" x2="28.213" y2="0.672" xlink:href="#a"/><linearGradient id="f" x1="-6.766" y1="-1.042" x2="3.84" y2="1.208" xlink:href="#a"/><linearGradient id="g" x1="-6.732" y1="-1.034" x2="3.875" y2="1.215" xlink:href="#a"/><linearGradient id="h" x1="-6.749" y1="-1.038" x2="3.858" y2="1.212" xlink:href="#a"/><linearGradient id="i" x1="-8.84" y1="0.214" x2="1.474" y2="0.526" xlink:href="#a"/><linearGradient id="j" x1="-7.82" y1="0.21" x2="2.552" y2="0.579" xlink:href="#a"/><linearGradient id="k" x1="1.151" y1="0.676" x2="-0.176" y2="0.317" gradientUnits="objectBoundingBox"><stop offset="0" stop-color="#f0c"/><stop offset="0.1" stop-color="#f804ce"/><stop offset="0.25" stop-color="#e311d2"/><stop offset="0.41" stop-color="#c622d8"/><stop offset="0.44" stop-color="#b72bdb"/><stop offset="0.49" stop-color="#9142e2"/><stop offset="0.56" stop-color="#5367ef"/><stop offset="0.65" stop-color="#09f"/><stop offset="1" stop-color="#09f"/></linearGradient><linearGradient id="l" x1="-0.536" y1="-1.183" x2="1.21" y2="2.495" gradientUnits="objectBoundingBox"><stop offset="0.25" stop-color="#fb40e5"/><stop offset="0.35" stop-color="#b953e9"/><stop offset="0.61" stop-color="#0089f4"/><stop offset="0.73" stop-color="#009df9"/><stop offset="0.89" stop-color="#00b0fd"/><stop offset="1" stop-color="#00b7ff"/></linearGradient><linearGradient id="m" x1="-0.95" y1="-1.841" x2="1.643" y2="1.913" xlink:href="#l"/><linearGradient id="n" x1="-1.03" y1="-17.838" x2="0.881" y2="5.062" xlink:href="#l"/><linearGradient id="o" x1="-0.681" y1="-13.652" x2="1.23" y2="9.248" xlink:href="#l"/><linearGradient id="p" x1="-0.852" y1="-15.704" x2="1.059" y2="7.196" xlink:href="#l"/><linearGradient id="q" x1="-1.175" y1="-2.553" x2="0.684" y2="0.624" xlink:href="#l"/><linearGradient id="r" x1="-1.111" y1="-2.578" x2="0.757" y2="1.175" xlink:href="#l"/><linearGradient id="s" x1="-5.513" y1="-1.605" x2="5.208" y2="2.149" xlink:href="#l"/><linearGradient id="t" x1="-0.321" y1="-0.05" x2="1.979" y2="1.491" gradientUnits="objectBoundingBox"><stop offset="0.05" stop-color="#fb40e5"/><stop offset="0.11" stop-color="#eb45e6"/><stop offset="0.22" stop-color="#c251e8"/><stop offset="0.37" stop-color="#7f64ec"/><stop offset="0.56" stop-color="#237ff2"/><stop offset="0.63" stop-color="#0089f4"/><stop offset="0.66" stop-color="#008ef5"/><stop offset="0.78" stop-color="#00a5fb"/><stop offset="0.9" stop-color="#00b2fe"/><stop offset="1" stop-color="#00b7ff"/></linearGradient><clipPath id="v"><rect width="719" height="144"/></clipPath></defs><g id="u" class="a"><rect class="w" width="719" height="144"/><g transform="translate(-19.71 -11.86)"><path class="b" d="M286,60.27A30.33,30.33,0,1,0,316.33,90.6,30.33,30.33,0,0,0,286,60.27Zm20.4,30.32A20.39,20.39,0,1,1,286,70.2,20.39,20.39,0,0,1,306.4,90.59Z"/><path class="c" d="M217.95,55.85c8.71,0,14.64,2.3,19.85,7.71l.3.31h12.79l-1-1.58c-7.18-11.08-18.28-16.94-32.1-16.94-20.07,0-37,17.45-37,38.09s16.56,37.62,36.92,37.62h.1c14.36,0,24.58-5.66,32.14-17.77l1-1.57-12.67-.08-.31.41c-4.47,5.94-11.06,8.82-20.15,8.82-14.47,0-26.7-12.32-26.7-26.9C191,69,203.61,55.85,217.95,55.85Z"/><path class="d" d="M408.33,120.1h61.28L439.13,57.83Zm16.1-10,14.66-29L453.28,110Z"/><path class="e" d="M535.7,59.1H522.39L494.64,90.11l27.68,29.99h13.59L508.25,90.08Z"/><rect class="f" width="9.98" height="61" transform="translate(479.7 59.1)"/><rect class="g" width="56" height="10" transform="translate(545.38 110.1)"/><rect class="h" width="56" height="10" transform="translate(545.38 59.1)"/><rect class="i" width="56" height="10" transform="translate(545.38 84.1)"/><path class="j" d="M723.63,59.1,705.76,96.68l-18-37.3-11.27-.19,24.11,47.97-11.28,24,11.02-.06,33.7-72Z"/><path class="k" d="M625.38,120.1v-51h24.86c1.09,0,3.86-.29,6,.9a8,8,0,0,1,3.32,3.71,11.631,11.631,0,0,1,.83,4.35,13.4,13.4,0,0,1-.73,4.42,12.76,12.76,0,0,1-2,3.76,9.56,9.56,0,0,1-3,2.62,8,8,0,0,1-3.85,1l-22,.33,30.71,29.93h13.1L649.75,98.68s-.27-.18.2-.19c5.11-.13,9-1.35,12.09-3.83a22.912,22.912,0,0,0,4.36-4.31,20.071,20.071,0,0,0,2.88-5.74,21.582,21.582,0,0,0,1-6.61,20.05,20.05,0,0,0-1.37-7.23,20.91,20.91,0,0,0-3.83-6.34,15.73,15.73,0,0,0-5.83-4.31,19.39,19.39,0,0,0-6.9-1h-37v61h10Z"/><path class="l" d="M145.14,48.72,85.55,14.23l-.63-.37L24.71,48.74v69.73L84.31,153l.63.37,60.21-34.88V48.72ZM81.73,82,58.35,95.2V67l23.5-14.13V81.1h-.3ZM88,54l23.51,14.11V96.4L88,83.38Zm21.35,47.7-23.4,13.4-23.7-14.15L84.8,88.6ZM59,36.26,79,48.43,52.2,63.64v39l53.61,31.84L85.28,146.23,30.87,114.92V52.29Zm58.68,67.29v-39L65,32.74,85.09,21,139,52.26V114.9l-27.21,16L91.28,118.74Z"/><g class="m"><path class="n" d="M408.33,120.1h61.28L439.13,57.83Zm16.1-10,14.66-29L453.28,110Z"/><path class="o" d="M535.7,59.1H522.39L494.64,90.11l27.68,29.99h13.59L508.25,90.08Z"/><rect class="p" width="56" height="10" transform="translate(545.38 110.1)"/><rect class="q" width="56" height="10" transform="translate(545.38 59.1)"/><rect class="r" width="56" height="10" transform="translate(545.38 84.1)"/><path class="s" d="M723.63,59.1,705.76,96.68l-18-37.3-11.27-.19,24.11,47.97-11.28,24,11.13-.3L734.04,59.1Z"/><path class="t" d="M625.38,120.1v-51h24.86c1.09,0,3.86-.29,6,.9a8,8,0,0,1,3.32,3.71,11.631,11.631,0,0,1,.83,4.35,13.4,13.4,0,0,1-.73,4.42,12.76,12.76,0,0,1-2,3.76,9.56,9.56,0,0,1-3,2.62,8,8,0,0,1-3.85,1l-22,.33,30.71,29.93h13.1L649.75,98.68s-.27-.18.2-.19c5.11-.13,9-1.35,12.09-3.83a22.912,22.912,0,0,0,4.36-4.31,20.071,20.071,0,0,0,2.88-5.74,21.582,21.582,0,0,0,1-6.61,20.05,20.05,0,0,0-1.37-7.23,20.91,20.91,0,0,0-3.83-6.34,15.73,15.73,0,0,0-5.83-4.31,19.39,19.39,0,0,0-6.9-1h-37v61h10Z"/><rect class="u" width="9.98" height="61" transform="translate(479.7 59.1)"/></g><path class="v" d="M330.38,46.1v74h11V62.41l24.83,48.58,23.17-48.75V120.1h11v-74h-13.9L366.03,87.53,344.51,46.16"/></g></g></svg>