<?xml version="1.0" encoding="utf-8"?>
<!-- Generator: Adobe Illustrator 19.2.1, SVG Export Plug-In . SVG Version: 6.00 Build 0)  -->
<svg version="1.1" id="Layer_1" xmlns="http://www.w3.org/2000/svg" xmlns:xlink="http://www.w3.org/1999/xlink" x="0px" y="0px"
	 viewBox="0 0 600 600" style="enable-background:new 0 0 600 600;" xml:space="preserve">
<style type="text/css">
	.st0{fill:url(#SVGID_1_);}
</style>
<linearGradient id="SVGID_1_" gradientUnits="userSpaceOnUse" x1="561.6129" y1="381.754" x2="28.3624" y2="215.1133">
	<stop  offset="0" style="stop-color:#FF00CC"/>
	<stop  offset="0.1002" style="stop-color:#F804CE"/>
	<stop  offset="0.2499" style="stop-color:#E311D2"/>
	<stop  offset="0.4106" style="stop-color:#C622D8"/>
	<stop  offset="0.4378" style="stop-color:#B72BDB"/>
	<stop  offset="0.4898" style="stop-color:#9142E2"/>
	<stop  offset="0.5611" style="stop-color:#5367EF"/>
	<stop  offset="0.6472" style="stop-color:#0099FF"/>
	<stop  offset="1" style="stop-color:#0099FF"/>
</linearGradient>
<path class="st0" d="M500.8,183.7l-198.7-115l-2.1-1.2L99.2,183.8l0,232.5l198.7,115l2.1,1.2l200.8-116.3L500.8,183.7z M289.1,299.6
	l-78.2,43l0.2-97.9l77.9-43.3L289.1,299.6z M310.2,201.4l78.4,47l0,94.3l-78.4-43.4L310.2,201.4z M381.4,360.5l-78,44.7l-79-47.3
	l75.2-41.2L381.4,360.5z M213.5,142.2l66.9,40.6l-89.5,50.7l0,130l178.8,106.2l-68.5,39.3L119.7,404.4l0-208.8L213.5,142.2z
	 M409.1,366.5l0-129.9L233.6,130.4l67-39.3l179.7,104.4l0,208.9l-90.7,53.4l-68.4-40.7L409.1,366.5z"/>
</svg>
