<?xml version="1.0" encoding="utf-8"?>
<!-- Generator: Adobe Illustrator 19.2.1, SVG Export Plug-In . SVG Version: 6.00 Build 0)  -->
<svg version="1.1" id="Layer_1" xmlns="http://www.w3.org/2000/svg" xmlns:xlink="http://www.w3.org/1999/xlink" x="0px" y="0px"
	 viewBox="0 0 758.8 167.2" style="enable-background:new 0 0 758.8 167.2;" xml:space="preserve">
<style type="text/css">
	.st0{fill:url(#SVGID_1_);}
	.st1{fill:url(#SVGID_2_);}
	.st2{fill:url(#SVGID_3_);}
	.st3{fill:url(#SVGID_4_);}
	.st4{fill:url(#SVGID_5_);}
	.st5{fill:url(#SVGID_6_);}
	.st6{fill:url(#SVGID_7_);}
	.st7{fill:url(#SVGID_8_);}
	.st8{fill:url(#SVGID_9_);}
	.st9{fill:url(#SVGID_10_);}
	.st10{fill:url(#SVGID_11_);}
	.st11{opacity:0.53;}
	.st12{fill:url(#SVGID_12_);}
	.st13{fill:url(#SVGID_13_);}
	.st14{fill:url(#SVGID_14_);}
	.st15{fill:url(#SVGID_15_);}
	.st16{fill:url(#SVGID_16_);}
	.st17{fill:url(#SVGID_17_);}
	.st18{fill:url(#SVGID_18_);}
	.st19{fill:url(#SVGID_19_);}
	.st20{fill:url(#SVGID_20_);}
</style>
<g>
	<g>
		<linearGradient id="SVGID_1_" gradientUnits="userSpaceOnUse" x1="166.981" y1="86.0858" x2="760.9514" y2="108.5847">
			<stop  offset="0" style="stop-color:#FF0B88"/>
			<stop  offset="3.476827e-02" style="stop-color:#FE1BA4"/>
			<stop  offset="7.801302e-02" style="stop-color:#FD2BC1"/>
			<stop  offset="0.1214" style="stop-color:#FC37D5"/>
			<stop  offset="0.1645" style="stop-color:#FB3EE1"/>
			<stop  offset="0.2072" style="stop-color:#FB40E5"/>
			<stop  offset="0.2441" style="stop-color:#EB45E6"/>
			<stop  offset="0.3161" style="stop-color:#C251E8"/>
			<stop  offset="0.416" style="stop-color:#7F64EC"/>
			<stop  offset="0.5389" style="stop-color:#237FF2"/>
			<stop  offset="0.584" style="stop-color:#0089F4"/>
			<stop  offset="0.6117" style="stop-color:#008EF5"/>
			<stop  offset="0.7504" style="stop-color:#00A5FB"/>
			<stop  offset="0.8826" style="stop-color:#00B2FE"/>
			<stop  offset="1" style="stop-color:#00B7FF"/>
		</linearGradient>
		<path class="st0" d="M286,60.3c-16.7,0-30.3,13.6-30.3,30.3c0,16.7,13.6,30.3,30.3,30.3c16.7,0,30.3-13.6,30.3-30.3
			C316.3,73.9,302.7,60.3,286,60.3z M306.4,90.6c0,11.2-9.1,20.4-20.4,20.4c-11.2,0-20.4-9.1-20.4-20.4s9.1-20.4,20.4-20.4
			C297.2,70.2,306.4,79.4,306.4,90.6z"/>
		<linearGradient id="SVGID_2_" gradientUnits="userSpaceOnUse" x1="165.3021" y1="81.2481" x2="772.2498" y2="104.2385">
			<stop  offset="0" style="stop-color:#FF0B88"/>
			<stop  offset="3.476827e-02" style="stop-color:#FE1BA4"/>
			<stop  offset="7.801302e-02" style="stop-color:#FD2BC1"/>
			<stop  offset="0.1214" style="stop-color:#FC37D5"/>
			<stop  offset="0.1645" style="stop-color:#FB3EE1"/>
			<stop  offset="0.2072" style="stop-color:#FB40E5"/>
			<stop  offset="0.2441" style="stop-color:#EB45E6"/>
			<stop  offset="0.3161" style="stop-color:#C251E8"/>
			<stop  offset="0.416" style="stop-color:#7F64EC"/>
			<stop  offset="0.5389" style="stop-color:#237FF2"/>
			<stop  offset="0.584" style="stop-color:#0089F4"/>
			<stop  offset="0.6117" style="stop-color:#008EF5"/>
			<stop  offset="0.7504" style="stop-color:#00A5FB"/>
			<stop  offset="0.8826" style="stop-color:#00B2FE"/>
			<stop  offset="1" style="stop-color:#00B7FF"/>
		</linearGradient>
		<path class="st1" d="M217.9,55.9c8.7,0,14.6,2.3,19.8,7.7l0.3,0.3l12.8,0l-1-1.6c-7.2-11.1-18.3-16.9-32.1-16.9
			c-20.1,0-37,17.4-37,38.1c0,20.7,16.6,37.6,36.9,37.6c0,0,0.1,0,0.1,0c14.4,0,24.6-5.7,32.1-17.8l1-1.6l-12.7-0.1l-0.3,0.4
			c-4.5,5.9-11.1,8.8-20.2,8.8c-14.5,0-26.7-12.3-26.7-26.9C191,69,203.6,55.9,217.9,55.9z"/>
		<linearGradient id="SVGID_3_" gradientUnits="userSpaceOnUse" x1="167.2401" y1="79.2476" x2="761.2104" y2="101.7465">
			<stop  offset="0" style="stop-color:#FF0B88"/>
			<stop  offset="3.476827e-02" style="stop-color:#FE1BA4"/>
			<stop  offset="7.801302e-02" style="stop-color:#FD2BC1"/>
			<stop  offset="0.1214" style="stop-color:#FC37D5"/>
			<stop  offset="0.1645" style="stop-color:#FB3EE1"/>
			<stop  offset="0.2072" style="stop-color:#FB40E5"/>
			<stop  offset="0.2441" style="stop-color:#EB45E6"/>
			<stop  offset="0.3161" style="stop-color:#C251E8"/>
			<stop  offset="0.416" style="stop-color:#7F64EC"/>
			<stop  offset="0.5389" style="stop-color:#237FF2"/>
			<stop  offset="0.584" style="stop-color:#0089F4"/>
			<stop  offset="0.6117" style="stop-color:#008EF5"/>
			<stop  offset="0.7504" style="stop-color:#00A5FB"/>
			<stop  offset="0.8826" style="stop-color:#00B2FE"/>
			<stop  offset="1" style="stop-color:#00B7FF"/>
		</linearGradient>
		<path class="st2" d="M408.3,120.1h61.3l-30.5-62.3L408.3,120.1z M424.4,110.1l14.7-29l14.2,28.9L424.4,110.1z"/>
		<linearGradient id="SVGID_4_" gradientUnits="userSpaceOnUse" x1="167.367" y1="75.8971" x2="761.3373" y2="98.3959">
			<stop  offset="0" style="stop-color:#FF0B88"/>
			<stop  offset="3.476827e-02" style="stop-color:#FE1BA4"/>
			<stop  offset="7.801302e-02" style="stop-color:#FD2BC1"/>
			<stop  offset="0.1214" style="stop-color:#FC37D5"/>
			<stop  offset="0.1645" style="stop-color:#FB3EE1"/>
			<stop  offset="0.2072" style="stop-color:#FB40E5"/>
			<stop  offset="0.2441" style="stop-color:#EB45E6"/>
			<stop  offset="0.3161" style="stop-color:#C251E8"/>
			<stop  offset="0.416" style="stop-color:#7F64EC"/>
			<stop  offset="0.5389" style="stop-color:#237FF2"/>
			<stop  offset="0.584" style="stop-color:#0089F4"/>
			<stop  offset="0.6117" style="stop-color:#008EF5"/>
			<stop  offset="0.7504" style="stop-color:#00A5FB"/>
			<stop  offset="0.8826" style="stop-color:#00B2FE"/>
			<stop  offset="1" style="stop-color:#00B7FF"/>
		</linearGradient>
		<polygon class="st3" points="535.7,59.1 522.4,59.1 494.6,90.1 522.3,120.1 535.9,120.1 508.2,90.1 		"/>
		<linearGradient id="SVGID_5_" gradientUnits="userSpaceOnUse" x1="167.3035" y1="77.5736" x2="761.2738" y2="100.0725">
			<stop  offset="0" style="stop-color:#FF0B88"/>
			<stop  offset="3.476827e-02" style="stop-color:#FE1BA4"/>
			<stop  offset="7.801302e-02" style="stop-color:#FD2BC1"/>
			<stop  offset="0.1214" style="stop-color:#FC37D5"/>
			<stop  offset="0.1645" style="stop-color:#FB3EE1"/>
			<stop  offset="0.2072" style="stop-color:#FB40E5"/>
			<stop  offset="0.2441" style="stop-color:#EB45E6"/>
			<stop  offset="0.3161" style="stop-color:#C251E8"/>
			<stop  offset="0.416" style="stop-color:#7F64EC"/>
			<stop  offset="0.5389" style="stop-color:#237FF2"/>
			<stop  offset="0.584" style="stop-color:#0089F4"/>
			<stop  offset="0.6117" style="stop-color:#008EF5"/>
			<stop  offset="0.7504" style="stop-color:#00A5FB"/>
			<stop  offset="0.8826" style="stop-color:#00B2FE"/>
			<stop  offset="1" style="stop-color:#00B7FF"/>
		</linearGradient>
		<rect x="479.7" y="59.1" class="st4" width="10" height="61"/>
		<linearGradient id="SVGID_6_" gradientUnits="userSpaceOnUse" x1="166.466" y1="99.6824" x2="760.4363" y2="122.1813">
			<stop  offset="0" style="stop-color:#FF0B88"/>
			<stop  offset="3.476827e-02" style="stop-color:#FE1BA4"/>
			<stop  offset="7.801302e-02" style="stop-color:#FD2BC1"/>
			<stop  offset="0.1214" style="stop-color:#FC37D5"/>
			<stop  offset="0.1645" style="stop-color:#FB3EE1"/>
			<stop  offset="0.2072" style="stop-color:#FB40E5"/>
			<stop  offset="0.2441" style="stop-color:#EB45E6"/>
			<stop  offset="0.3161" style="stop-color:#C251E8"/>
			<stop  offset="0.416" style="stop-color:#7F64EC"/>
			<stop  offset="0.5389" style="stop-color:#237FF2"/>
			<stop  offset="0.584" style="stop-color:#0089F4"/>
			<stop  offset="0.6117" style="stop-color:#008EF5"/>
			<stop  offset="0.7504" style="stop-color:#00A5FB"/>
			<stop  offset="0.8826" style="stop-color:#00B2FE"/>
			<stop  offset="1" style="stop-color:#00B7FF"/>
		</linearGradient>
		<rect x="545.4" y="110.1" class="st5" width="56" height="10"/>
		<linearGradient id="SVGID_7_" gradientUnits="userSpaceOnUse" x1="168.3951" y1="48.7555" x2="762.3654" y2="71.2543">
			<stop  offset="0" style="stop-color:#FF0B88"/>
			<stop  offset="3.476827e-02" style="stop-color:#FE1BA4"/>
			<stop  offset="7.801302e-02" style="stop-color:#FD2BC1"/>
			<stop  offset="0.1214" style="stop-color:#FC37D5"/>
			<stop  offset="0.1645" style="stop-color:#FB3EE1"/>
			<stop  offset="0.2072" style="stop-color:#FB40E5"/>
			<stop  offset="0.2441" style="stop-color:#EB45E6"/>
			<stop  offset="0.3161" style="stop-color:#C251E8"/>
			<stop  offset="0.416" style="stop-color:#7F64EC"/>
			<stop  offset="0.5389" style="stop-color:#237FF2"/>
			<stop  offset="0.584" style="stop-color:#0089F4"/>
			<stop  offset="0.6117" style="stop-color:#008EF5"/>
			<stop  offset="0.7504" style="stop-color:#00A5FB"/>
			<stop  offset="0.8826" style="stop-color:#00B2FE"/>
			<stop  offset="1" style="stop-color:#00B7FF"/>
		</linearGradient>
		<rect x="545.4" y="59.1" class="st6" width="56" height="10"/>
		<linearGradient id="SVGID_8_" gradientUnits="userSpaceOnUse" x1="167.4495" y1="73.7197" x2="761.4197" y2="96.2185">
			<stop  offset="0" style="stop-color:#FF0B88"/>
			<stop  offset="3.476827e-02" style="stop-color:#FE1BA4"/>
			<stop  offset="7.801302e-02" style="stop-color:#FD2BC1"/>
			<stop  offset="0.1214" style="stop-color:#FC37D5"/>
			<stop  offset="0.1645" style="stop-color:#FB3EE1"/>
			<stop  offset="0.2072" style="stop-color:#FB40E5"/>
			<stop  offset="0.2441" style="stop-color:#EB45E6"/>
			<stop  offset="0.3161" style="stop-color:#C251E8"/>
			<stop  offset="0.416" style="stop-color:#7F64EC"/>
			<stop  offset="0.5389" style="stop-color:#237FF2"/>
			<stop  offset="0.584" style="stop-color:#0089F4"/>
			<stop  offset="0.6117" style="stop-color:#008EF5"/>
			<stop  offset="0.7504" style="stop-color:#00A5FB"/>
			<stop  offset="0.8826" style="stop-color:#00B2FE"/>
			<stop  offset="1" style="stop-color:#00B7FF"/>
		</linearGradient>
		<rect x="545.4" y="84.1" class="st7" width="56" height="10"/>
		<linearGradient id="SVGID_9_" gradientUnits="userSpaceOnUse" x1="167.7535" y1="74.5222" x2="761.3331" y2="97.0062">
			<stop  offset="0" style="stop-color:#FF0B88"/>
			<stop  offset="3.476827e-02" style="stop-color:#FE1BA4"/>
			<stop  offset="7.801302e-02" style="stop-color:#FD2BC1"/>
			<stop  offset="0.1214" style="stop-color:#FC37D5"/>
			<stop  offset="0.1645" style="stop-color:#FB3EE1"/>
			<stop  offset="0.2072" style="stop-color:#FB40E5"/>
			<stop  offset="0.2441" style="stop-color:#EB45E6"/>
			<stop  offset="0.3161" style="stop-color:#C251E8"/>
			<stop  offset="0.416" style="stop-color:#7F64EC"/>
			<stop  offset="0.5389" style="stop-color:#237FF2"/>
			<stop  offset="0.584" style="stop-color:#0089F4"/>
			<stop  offset="0.6117" style="stop-color:#008EF5"/>
			<stop  offset="0.7504" style="stop-color:#00A5FB"/>
			<stop  offset="0.8826" style="stop-color:#00B2FE"/>
			<stop  offset="1" style="stop-color:#00B7FF"/>
		</linearGradient>
		<polygon class="st8" points="723.6,59.1 705.8,96.7 687.8,59.4 676.5,59.2 700.6,107.2 689.3,131.2 700.3,131.1 734,59.1 		"/>
		<g>
			<linearGradient id="SVGID_10_" gradientUnits="userSpaceOnUse" x1="167.5177" y1="71.9194" x2="761.488" y2="94.4182">
				<stop  offset="0" style="stop-color:#FF0B88"/>
				<stop  offset="3.476827e-02" style="stop-color:#FE1BA4"/>
				<stop  offset="7.801302e-02" style="stop-color:#FD2BC1"/>
				<stop  offset="0.1214" style="stop-color:#FC37D5"/>
				<stop  offset="0.1645" style="stop-color:#FB3EE1"/>
				<stop  offset="0.2072" style="stop-color:#FB40E5"/>
				<stop  offset="0.2441" style="stop-color:#EB45E6"/>
				<stop  offset="0.3161" style="stop-color:#C251E8"/>
				<stop  offset="0.416" style="stop-color:#7F64EC"/>
				<stop  offset="0.5389" style="stop-color:#237FF2"/>
				<stop  offset="0.584" style="stop-color:#0089F4"/>
				<stop  offset="0.6117" style="stop-color:#008EF5"/>
				<stop  offset="0.7504" style="stop-color:#00A5FB"/>
				<stop  offset="0.8826" style="stop-color:#00B2FE"/>
				<stop  offset="1" style="stop-color:#00B7FF"/>
			</linearGradient>
			<path class="st9" d="M625.4,120.1V97.6v-1v-8.2V70v-0.9h24.9c1.1,0,3.9-0.3,6,0.9c2,1.2,3.1,3.1,3.3,3.7c0.6,1.5,0.8,2.8,0.8,4.4
				c0,1.6-0.2,3-0.7,4.4c-0.5,1.4-1.1,2.6-2,3.8c-0.9,1.1-1.9,2-3,2.6c-1.2,0.7-2.5,1-3.9,1l-22,0.3l30.7,29.9h13.1l-22.7-21.4
				c0,0-0.3-0.2,0.2-0.2c5.1-0.1,9-1.4,12.1-3.8c1.4-1.1,3-2.5,4.4-4.3c1.2-1.7,2.2-3.6,2.9-5.7c0.7-2.1,1-4.3,1-6.6
				c0-2.4-0.5-4.9-1.4-7.2c-0.9-2.4-2.2-4.5-3.8-6.3c-1.5-1.7-3.3-3.3-5.8-4.3c-1.5-0.6-4-1-6.9-1c0,0-0.8,0-0.8,0h-36.2v61H625.4z"
				/>
		</g>
	</g>
	<linearGradient id="SVGID_11_" gradientUnits="userSpaceOnUse" x1="163.3896" y1="108.1102" x2="3.4636" y2="58.1333">
		<stop  offset="0" style="stop-color:#FF00CC"/>
		<stop  offset="0.1002" style="stop-color:#F804CE"/>
		<stop  offset="0.2499" style="stop-color:#E311D2"/>
		<stop  offset="0.4106" style="stop-color:#C622D8"/>
		<stop  offset="0.4378" style="stop-color:#B72BDB"/>
		<stop  offset="0.4898" style="stop-color:#9142E2"/>
		<stop  offset="0.5611" style="stop-color:#5367EF"/>
		<stop  offset="0.6472" style="stop-color:#0099FF"/>
		<stop  offset="1" style="stop-color:#0099FF"/>
	</linearGradient>
	<path class="st10" d="M145.1,48.7L85.6,14.2l-0.6-0.4L24.7,48.7l0,69.7L84.3,153l0.6,0.4l60.2-34.9L145.1,48.7z M81.7,82L58.3,95.2
		l0-28.2l23.5-14.1l0,28.2h-0.3L81.7,82z M88,54l23.5,14.1l0,28.3L88,83.4L88,54z M109.3,101.7l-23.4,13.4l-23.7-14.2l22.5-12.3
		L109.3,101.7z M59,36.3L79,48.4L52.2,63.6l0,39l53.6,31.8l-20.5,11.8l-54.4-31.3l0-62.6L59,36.3z M117.7,103.5l0-39L65,32.7
		L85.1,21L139,52.3l0,62.6l-27.2,16l-20.5-12.2L117.7,103.5z"/>
	<g class="st11">
		<linearGradient id="SVGID_12_" gradientUnits="userSpaceOnUse" x1="375.4562" y1="-15.8315" x2="482.4562" y2="213.1685">
			<stop  offset="0.2546" style="stop-color:#FB40E5"/>
			<stop  offset="0.3459" style="stop-color:#B953E9"/>
			<stop  offset="0.6068" style="stop-color:#0089F4"/>
			<stop  offset="0.7332" style="stop-color:#009DF9"/>
			<stop  offset="0.8904" style="stop-color:#00B0FD"/>
			<stop  offset="1" style="stop-color:#00B7FF"/>
		</linearGradient>
		<path class="st12" d="M408.3,120.1h61.3l-30.5-62.3L408.3,120.1z M424.4,110.1l14.7-29l14.2,28.9L424.4,110.1z"/>
		<linearGradient id="SVGID_13_" gradientUnits="userSpaceOnUse" x1="455.4511" y1="-53.2091" x2="562.4511" y2="175.7909">
			<stop  offset="0.2546" style="stop-color:#FB40E5"/>
			<stop  offset="0.3459" style="stop-color:#B953E9"/>
			<stop  offset="0.6068" style="stop-color:#0089F4"/>
			<stop  offset="0.7332" style="stop-color:#009DF9"/>
			<stop  offset="0.8904" style="stop-color:#00B0FD"/>
			<stop  offset="1" style="stop-color:#00B7FF"/>
		</linearGradient>
		<polygon class="st13" points="535.7,59.1 522.4,59.1 494.6,90.1 522.3,120.1 535.9,120.1 508.2,90.1 		"/>
		<linearGradient id="SVGID_14_" gradientUnits="userSpaceOnUse" x1="487.6978" y1="-68.2763" x2="594.6978" y2="160.7237">
			<stop  offset="0.2546" style="stop-color:#FB40E5"/>
			<stop  offset="0.3459" style="stop-color:#B953E9"/>
			<stop  offset="0.6068" style="stop-color:#0089F4"/>
			<stop  offset="0.7332" style="stop-color:#009DF9"/>
			<stop  offset="0.8904" style="stop-color:#00B0FD"/>
			<stop  offset="1" style="stop-color:#00B7FF"/>
		</linearGradient>
		<rect x="545.4" y="110.1" class="st14" width="56" height="10"/>
		<linearGradient id="SVGID_15_" gradientUnits="userSpaceOnUse" x1="507.2573" y1="-77.4154" x2="614.2573" y2="151.5846">
			<stop  offset="0.2546" style="stop-color:#FB40E5"/>
			<stop  offset="0.3459" style="stop-color:#B953E9"/>
			<stop  offset="0.6068" style="stop-color:#0089F4"/>
			<stop  offset="0.7332" style="stop-color:#009DF9"/>
			<stop  offset="0.8904" style="stop-color:#00B0FD"/>
			<stop  offset="1" style="stop-color:#00B7FF"/>
		</linearGradient>
		<rect x="545.4" y="59.1" class="st15" width="56" height="10"/>
		<linearGradient id="SVGID_16_" gradientUnits="userSpaceOnUse" x1="497.6693" y1="-72.9355" x2="604.6693" y2="156.0645">
			<stop  offset="0.2546" style="stop-color:#FB40E5"/>
			<stop  offset="0.3459" style="stop-color:#B953E9"/>
			<stop  offset="0.6068" style="stop-color:#0089F4"/>
			<stop  offset="0.7332" style="stop-color:#009DF9"/>
			<stop  offset="0.8904" style="stop-color:#00B0FD"/>
			<stop  offset="1" style="stop-color:#00B7FF"/>
		</linearGradient>
		<rect x="545.4" y="84.1" class="st16" width="56" height="10"/>
		<linearGradient id="SVGID_17_" gradientUnits="userSpaceOnUse" x1="608.877" y1="-124.8972" x2="715.877" y2="104.1028">
			<stop  offset="0.2546" style="stop-color:#FB40E5"/>
			<stop  offset="0.3459" style="stop-color:#B953E9"/>
			<stop  offset="0.6068" style="stop-color:#0089F4"/>
			<stop  offset="0.7332" style="stop-color:#009DF9"/>
			<stop  offset="0.8904" style="stop-color:#00B0FD"/>
			<stop  offset="1" style="stop-color:#00B7FF"/>
		</linearGradient>
		<polygon class="st17" points="723.6,59.1 705.8,96.7 687.8,59.4 676.5,59.2 700.6,107.2 689.3,131.2 700.4,130.9 734,59.1 		"/>
		<g>
			<linearGradient id="SVGID_18_" gradientUnits="userSpaceOnUse" x1="551.7119" y1="-98.1868" x2="658.7119" y2="130.8132">
				<stop  offset="0.2546" style="stop-color:#FB40E5"/>
				<stop  offset="0.3459" style="stop-color:#B953E9"/>
				<stop  offset="0.6068" style="stop-color:#0089F4"/>
				<stop  offset="0.7332" style="stop-color:#009DF9"/>
				<stop  offset="0.8904" style="stop-color:#00B0FD"/>
				<stop  offset="1" style="stop-color:#00B7FF"/>
			</linearGradient>
			<path class="st18" d="M625.4,120.1V97.6v-1v-8.2V70v-0.9h24.9c1.1,0,3.9-0.3,6,0.9c2,1.2,3.1,3.1,3.3,3.7
				c0.6,1.5,0.8,2.8,0.8,4.4c0,1.6-0.2,3-0.7,4.4c-0.5,1.4-1.1,2.6-2,3.8c-0.9,1.1-1.9,2-3,2.6c-1.2,0.7-2.5,1-3.9,1l-22,0.3
				l30.7,29.9h13.1l-22.7-21.4c0,0-0.3-0.2,0.2-0.2c5.1-0.1,9-1.4,12.1-3.8c1.4-1.1,3-2.5,4.4-4.3c1.2-1.7,2.2-3.6,2.9-5.7
				c0.7-2.1,1-4.3,1-6.6c0-2.4-0.5-4.9-1.4-7.2c-0.9-2.4-2.2-4.5-3.8-6.3c-1.5-1.7-3.3-3.3-5.8-4.3c-1.5-0.6-4-1-6.9-1
				c0,0-0.8,0-0.8,0h-36.2v61H625.4z"/>
		</g>
		<linearGradient id="SVGID_19_" gradientUnits="userSpaceOnUse" x1="424.6795" y1="-38.8311" x2="531.6795" y2="190.1689">
			<stop  offset="0.2546" style="stop-color:#FB40E5"/>
			<stop  offset="0.3459" style="stop-color:#B953E9"/>
			<stop  offset="0.6068" style="stop-color:#0089F4"/>
			<stop  offset="0.7332" style="stop-color:#009DF9"/>
			<stop  offset="0.8904" style="stop-color:#00B0FD"/>
			<stop  offset="1" style="stop-color:#00B7FF"/>
		</linearGradient>
		<rect x="479.7" y="59.1" class="st19" width="10" height="61"/>
	</g>
	<g>
		<linearGradient id="SVGID_20_" gradientUnits="userSpaceOnUse" x1="307.911" y1="42.4047" x2="468.911" y2="156.4047">
			<stop  offset="5.052216e-02" style="stop-color:#FB40E5"/>
			<stop  offset="0.1075" style="stop-color:#EB45E6"/>
			<stop  offset="0.2187" style="stop-color:#C251E8"/>
			<stop  offset="0.3732" style="stop-color:#7F64EC"/>
			<stop  offset="0.5631" style="stop-color:#237FF2"/>
			<stop  offset="0.6328" style="stop-color:#0089F4"/>
			<stop  offset="0.6572" style="stop-color:#008EF5"/>
			<stop  offset="0.7797" style="stop-color:#00A5FB"/>
			<stop  offset="0.8963" style="stop-color:#00B2FE"/>
			<stop  offset="1" style="stop-color:#00B7FF"/>
		</linearGradient>
		<polyline class="st20" points="330.4,46.1 330.4,120.1 341.4,120.1 341.4,62.4 366.2,111 389.4,62.2 389.4,120.1 400.4,120.1 
			400.4,46.1 386.5,46.1 366,87.5 344.5,46.2 		"/>
	</g>
</g>
</svg>
