<?xml version="1.0" encoding="utf-8"?>
<!-- Generator: Adobe Illustrator 23.0.1, SVG Export Plug-In . SVG Version: 6.00 Build 0)  -->
<svg version="1.1" id="Layer_1" xmlns="http://www.w3.org/2000/svg" xmlns:xlink="http://www.w3.org/1999/xlink" x="0px" y="0px"
	 viewBox="0 0 650 800" style="enable-background:new 0 0 650 800;" xml:space="preserve">
<style type="text/css">
	.st0{fill:url(#SVGID_1_);}
	.st1{fill:url(#SVGID_2_);}
	.st2{fill:url(#SVGID_3_);}
	.st3{fill:url(#SVGID_4_);}
</style>
<g>
	<linearGradient id="SVGID_1_" gradientUnits="userSpaceOnUse" x1="341.1383" y1="85.3708" x2="311.3181" y2="684.4853">
		<stop  offset="3.655439e-02" style="stop-color:#06BCFB"/>
		<stop  offset="1" style="stop-color:#01E8CC"/>
	</linearGradient>
	<path class="st0" d="M516.5,295.7L327.9,186.8c-0.2-0.1-0.4-0.2-0.7-0.3c-0.1,0-0.2-0.1-0.3-0.1c-0.1-0.1-0.3-0.1-0.4-0.1
		c-0.1,0-0.3-0.1-0.4-0.1c-0.1,0-0.2-0.1-0.3-0.1c-0.5-0.1-1-0.1-1.5,0c-0.1,0-0.2,0-0.3,0.1c-0.1,0-0.3,0-0.4,0.1
		c-0.2,0-0.3,0.1-0.4,0.2c-0.1,0-0.2,0.1-0.3,0.1c-0.2,0.1-0.5,0.2-0.7,0.3L133.5,295.7c-1.8,1-2.9,2.9-2.9,5v217.8
		c0,2.1,1.1,4,2.9,5l188.6,108.9c0.2,0.1,0.5,0.2,0.7,0.3c0.1,0,0.2,0.1,0.3,0.1c0.1,0.1,0.3,0.1,0.5,0.2c0.1,0,0.3,0.1,0.4,0.1
		c0.1,0,0.2,0.1,0.3,0.1c0.3,0,0.5,0.1,0.8,0.1s0.5,0,0.8-0.1c0.1,0,0.2,0,0.3-0.1c0.1,0,0.3,0,0.4-0.1c0.2,0,0.3-0.1,0.4-0.2
		c0.1,0,0.2-0.1,0.3-0.1c0.2-0.1,0.5-0.2,0.7-0.3l188.6-108.9c1.8-1,2.9-2.9,2.9-5V300.7C519.4,298.6,518.3,296.7,516.5,295.7z
		 M340.8,207.6l165,95.3l-55,95.1L340.8,207.6z M444.1,409.6L325,615.8L205.9,409.6L325,203.4L444.1,409.6z M199.2,398l-55-95.1
		l165-95.3L199.2,398z M192.5,409.6l-50.3,87.1V322.5L192.5,409.6z M199.2,421.2l110,190.4l-165-95.3L199.2,421.2z M450.8,421.2
		l55,95.1l-165,95.3L450.8,421.2z M457.5,409.6l50.3-87.1v174.1L457.5,409.6z"/>
	<g>
		<linearGradient id="SVGID_2_" gradientUnits="userSpaceOnUse" x1="136.5118" y1="156.2399" x2="136.5118" y2="226.7239">
			<stop  offset="3.655439e-02" style="stop-color:#06BCFB"/>
			<stop  offset="1" style="stop-color:#01E8CC"/>
		</linearGradient>
		<path class="st1" d="M130.6,158.1h11.8v65.5h-11.8V158.1z"/>
		<linearGradient id="SVGID_3_" gradientUnits="userSpaceOnUse" x1="191.6794" y1="156.2399" x2="191.6794" y2="226.7239">
			<stop  offset="3.655439e-02" style="stop-color:#06BCFB"/>
			<stop  offset="1" style="stop-color:#01E8CC"/>
		</linearGradient>
		<path class="st2" d="M161.7,158.1h23.1c21.6,0,36.9,13.5,36.9,32.7c0,19.2-15.2,32.8-36.9,32.8h-23.1V158.1z M186,212.7
			c13.8,0,23.5-9.1,23.5-22c0-12.9-9.7-21.9-23.5-21.9h-12.4v43.9H186z"/>
	</g>
	<g>
		<linearGradient id="SVGID_4_" gradientUnits="userSpaceOnUse" x1="333.4843" y1="89.5401" x2="311.7969" y2="699.4983">
			<stop  offset="3.655439e-02" style="stop-color:#06BCFB"/>
			<stop  offset="1" style="stop-color:#01E8CC"/>
		</linearGradient>
		<path class="st3" d="M325,701.9c-1,0-2-0.3-2.9-0.8L73.3,557.5c-1.8-1-2.9-3-2.9-5V103.9c0-3.2,2.6-5.8,5.8-5.8h497.7
			c3.2,0,5.8,2.6,5.8,5.8v448.5c0,2.1-1.1,4-2.9,5L327.9,701.1C327,701.7,326,701.9,325,701.9z M82,549.1l243,140.3l243-140.3V109.7
			H82V549.1z"/>
	</g>
</g>
</svg>
