<?xml version="1.0" encoding="UTF-8"?>
<svg width="65px" height="69px" viewBox="0 0 65 69" version="1.1" xmlns="http://www.w3.org/2000/svg" xmlns:xlink="http://www.w3.org/1999/xlink">
    <!-- Generator: Sketch 52.4 (67378) - http://www.bohemiancoding.com/sketch -->
    <title>ICON/PROJECT/ACTIVE/GRADIENT</title>
    <desc>Created with Sketch.</desc>
    <defs>
        <linearGradient x1="100%" y1="50%" x2="0%" y2="50%" id="linearGradient-1">
            <stop stop-color="#FB40E5" offset="0%"></stop>
            <stop stop-color="#0089F4" offset="100%"></stop>
        </linearGradient>
    </defs>
    <g id="Symbols" stroke="none" stroke-width="1" fill="none" fill-rule="evenodd">
        <g id="ICON/PROJECT/ACTIVE/GRADIENT" transform="translate(-5.000000, -3.000000)">
            <g transform="translate(5.000000, -1.000000)" id="ICON/PROJECT">
                <g transform="translate(0.000000, 4.000000)" stroke="url(#linearGradient-1)">
                    <path d="M15.7518526,21.0376162 L1.27735231,29.6548849 L15.7518526,38.2721535 L15.7518526,21.0376162 Z M0.637154822,11.3993953 L0.637154822,28.4401195 L14.9488804,19.9197574 L0.637154822,11.3993953 Z M16.9688856,1.56736128 L16.9688856,18.8018985 L31.4433859,10.1846299 L16.9688856,1.56736128 Z M16.9688856,21.0376162 L16.9688856,38.2721535 L31.4433859,29.6548849 L16.9688856,21.0376162 Z M15.7518526,1.56736128 L1.27735231,10.1846299 L15.7518526,18.8018985 L15.7518526,1.56736128 Z M17.7718578,19.9197574 L31.7580339,28.2463064 L31.7580339,11.5932083 L17.7718578,19.9197574 Z M48.3067977,21.0376162 L33.8322974,29.6548849 L48.3067977,38.2721535 L48.3067977,21.0376162 Z M33.1920999,11.3993953 L33.1920999,28.4401195 L47.5038255,19.9197574 L33.1920999,11.3993953 Z M49.5238306,1.56736128 L49.5238306,18.8018985 L63.998331,10.1846299 L49.5238306,1.56736128 Z M49.5238306,21.0376162 L49.5238306,38.2721535 L63.998331,29.6548849 L49.5238306,21.0376162 Z M48.3067977,1.56736128 L33.8322974,10.1846299 L48.3067977,18.8018985 L48.3067977,1.56736128 Z M50.3268029,19.9197574 L64.312979,28.2463064 L64.312979,11.5932083 L50.3268029,19.9197574 Z M32.0293252,50.3548967 L17.5548248,58.9721653 L32.0293252,67.5894339 L32.0293252,50.3548967 Z M16.9146273,40.7166757 L16.9146273,57.7573999 L31.2263529,49.2370378 L16.9146273,40.7166757 Z M33.2463581,30.8846417 L33.2463581,48.119179 L47.7208584,39.5019104 L33.2463581,30.8846417 Z M33.2463581,50.3548967 L33.2463581,67.5894339 L47.7208584,58.9721653 L33.2463581,50.3548967 Z M32.0293252,30.8846417 L17.5548248,39.5019104 L32.0293252,48.119179 L32.0293252,30.8846417 Z M34.0493303,49.2370378 L48.0355065,57.5635869 L48.0355065,40.9104888 L34.0493303,49.2370378 Z" id="Combined-Shape"></path>
                </g>
                <g transform="translate(23.554945, 0.000000)"></g>
                <g transform="translate(7.277473, 29.317280)"></g>
            </g>
        </g>
    </g>
</svg>