<?xml version="1.0" encoding="UTF-8"?>
<svg width="108px" height="108px" viewBox="0 0 108 108" version="1.1" xmlns="http://www.w3.org/2000/svg" xmlns:xlink="http://www.w3.org/1999/xlink">
    <!-- Generator: Sketch 52.5 (67469) - http://www.bohemiancoding.com/sketch -->
    <title>Combined Shape</title>
    <desc>Created with Sketch.</desc>
    <g id="SYMBOLS" stroke="none" stroke-width="1" fill="none" fill-rule="evenodd">
        <g id="THUMBNAIL/PROJECT" transform="translate(-1.000000, -1.000000)" fill="#FFFFFF" fill-rule="nonzero">
            <g transform="translate(0.000000, -0.000000)" id="ICON/PROJECT">
                <g>
                    <g id="Group" transform="translate(1.000000, 1.000000)">
                        <g id="Group-2">
                            <path d="M0,0 L108,0 L108,108 L0,108 L0,0 Z M27.8563956,31.2615816 L3.28343278,45.8990889 L27.8580476,60.5393724 L27.8563956,31.2615816 Z M3.0332192,16.4052478 L3.03158406,45.3842857 L27.3554375,30.8933928 L3.0332192,16.4052478 Z M28.1940628,1.25015137 L28.1924108,30.5279422 L52.7670256,15.8876586 L28.1940628,1.25015137 Z M28.1940628,31.2615816 L28.1924108,60.5393724 L52.7670256,45.8990889 L28.1940628,31.2615816 Z M27.8563956,1.25015137 L3.28343278,15.8876586 L27.8580476,30.5279422 L27.8563956,1.25015137 Z M28.6939555,30.895239 L52.5173296,45.0855424 L52.5173296,16.7049356 L28.6939555,30.895239 Z M78.0108675,31.2615816 L53.4379046,45.8990889 L78.0125195,60.5393724 L78.0108675,31.2615816 Z M53.1876911,16.4052478 L53.1860559,45.3842857 L77.5099094,30.8933928 L53.1876911,16.4052478 Z M78.3485346,1.25015137 L78.3468826,30.5279422 L102.921497,15.8876586 L78.3485346,1.25015137 Z M78.3485346,31.2615816 L78.3468826,60.5393724 L102.921497,45.8990889 L78.3485346,31.2615816 Z M78.0108675,1.25015137 L53.4379046,15.8876586 L78.0125195,30.5279422 L78.0108675,1.25015137 Z M78.2,30.895239 L103.023374,45.5855424 L103.023374,16.2049356 L78.2,30.895239 Z M52.9336316,76.4512064 L28.3606687,91.0887137 L52.9352836,105.728997 L52.9336316,76.4512064 Z M28.1104551,61.5948727 L28.10882,90.5739105 L52.4326735,76.0830176 L28.1104551,61.5948727 Z M53.2712987,46.4397762 L53.2696467,75.717567 L77.8442616,61.0772835 L53.2712987,46.4397762 Z M53.2712987,76.4512064 L53.2696467,105.728997 L77.8442616,91.0887137 L53.2712987,76.4512064 Z M52.9336316,46.4397762 L28.3606687,61.0772835 L52.9352836,75.717567 L52.9336316,46.4397762 Z M53.25,76.0848639 L78.0733741,90.7751673 L78.0733741,61.3945604 L53.25,76.0848639 Z" id="Combined-Shape"></path>
                        </g>
                    </g>
                </g>
            </g>
        </g>
    </g>
</svg>