<?xml version="1.0" encoding="UTF-8"?>
<svg width="65px" height="69px" viewBox="0 0 65 69" version="1.1" xmlns="http://www.w3.org/2000/svg" xmlns:xlink="http://www.w3.org/1999/xlink">
    <!-- Generator: Sketch 52.4 (67378) - http://www.bohemiancoding.com/sketch -->
    <title>ICON/PROJECT/WHITE</title>
    <desc>Created with Sketch.</desc>
    <g id="Symbols" stroke="none" stroke-width="1" fill="none" fill-rule="evenodd">
        <g id="ICON/PROJECT/WHITE" transform="translate(-5.000000, -3.000000)">
            <g transform="translate(5.000000, -1.000000)" id="ICON/PROJECT">
                <g transform="translate(0.000000, 4.000000)" fill="#FFFFFF">
                    <path d="M16.2518526,20.1580454 L16.2518526,39.1517243 L0.299929548,29.6548849 L16.2518526,20.1580454 Z M0.137154822,10.5198244 L15.9263032,19.9197574 L0.137154822,29.3196903 L0.137154822,10.5198244 Z M16.4688856,0.687790417 L32.4208087,10.1846299 L16.4688856,19.6814694 L16.4688856,0.687790417 Z M16.4688856,20.1580454 L32.4208087,29.6548849 L16.4688856,39.1517243 L16.4688856,20.1580454 Z M16.2518526,0.687790417 L16.2518526,19.6814694 L0.299929548,10.1846299 L16.2518526,0.687790417 Z M16.794435,19.9197574 L32.2580339,10.7136375 L32.2580339,29.1258773 L16.794435,19.9197574 Z M48.8067977,20.1580454 L48.8067977,39.1517243 L32.8548746,29.6548849 L48.8067977,20.1580454 Z M32.6920999,10.5198244 L48.4812482,19.9197574 L32.6920999,29.3196903 L32.6920999,10.5198244 Z M49.0238306,0.687790417 L64.9757537,10.1846299 L49.0238306,19.6814694 L49.0238306,0.687790417 Z M49.0238306,20.1580454 L64.9757537,29.6548849 L49.0238306,39.1517243 L49.0238306,20.1580454 Z M48.8067977,0.687790417 L48.8067977,19.6814694 L32.8548746,10.1846299 L48.8067977,0.687790417 Z M49.3493801,19.9197574 L64.812979,10.7136375 L64.812979,29.1258773 L49.3493801,19.9197574 Z M32.5293252,49.4753258 L32.5293252,68.4690048 L16.5774021,58.9721653 L32.5293252,49.4753258 Z M16.4146273,39.8371049 L32.2037757,49.2370378 L16.4146273,58.6369708 L16.4146273,39.8371049 Z M32.7463581,30.0050709 L48.6982812,39.5019104 L32.7463581,48.9987498 L32.7463581,30.0050709 Z M32.7463581,49.4753258 L48.6982812,58.9721653 L32.7463581,68.4690048 L32.7463581,49.4753258 Z M32.5293252,30.0050709 L32.5293252,48.9987498 L16.5774021,39.5019104 L32.5293252,30.0050709 Z M33.0719076,49.2370378 L48.5355065,40.0309179 L48.5355065,58.4431577 L33.0719076,49.2370378 Z" id="Combined-Shape"></path>
                </g>
                <g transform="translate(23.554945, 0.000000)"></g>
            </g>
        </g>
    </g>
</svg>