<?xml version="1.0" encoding="utf-8"?>
<!-- Generator: Adobe Illustrator 19.0.0, SVG Export Plug-In . SVG Version: 6.00 Build 0)  -->
<svg version="1.1" id="Layer_1" xmlns="http://www.w3.org/2000/svg" xmlns:xlink="http://www.w3.org/1999/xlink" x="0px" y="0px"
	 viewBox="0 0 736.3 718.3" style="enable-background:new 0 0 736.3 718.3;" xml:space="preserve">
<style type="text/css">
	.st0{fill-rule:evenodd;clip-rule:evenodd;fill:#181616;}
	.st1{fill:#181616;}
</style>
<g id="XMLID_2_">
	<path id="XMLID_24_" class="st0" d="M367.8,2C165.8,2,2,165.8,2,367.8c0,161.6,104.8,298.7,250.1,347.1c18.3,3.4,25-7.9,25-17.6
		c0-8.7-0.3-37.5-0.5-68.1C174.9,651.3,153.4,586,153.4,586c-16.6-42.3-40.6-53.5-40.6-53.5c-33.2-22.7,2.5-22.2,2.5-22.2
		c36.7,2.6,56.1,37.7,56.1,37.7c32.6,55.9,85.6,39.7,106.4,30.4c3.3-23.6,12.8-39.8,23.2-48.9c-81.2-9.2-166.6-40.6-166.6-180.8
		c0-39.9,14.3-72.6,37.7-98.2c-3.8-9.2-16.3-46.4,3.5-96.8c0,0,30.7-9.8,100.6,37.5c29.2-8.1,60.5-12.2,91.6-12.3
		c31.1,0.1,62.4,4.2,91.6,12.3c69.8-47.3,100.5-37.5,100.5-37.5c19.9,50.4,7.4,87.6,3.6,96.8c23.5,25.6,37.6,58.2,37.6,98.2
		c0,140.5-85.6,171.4-167,180.5c13.1,11.4,24.8,33.6,24.8,67.7c0,48.9-0.4,88.3-0.4,100.4c0,9.7,6.6,21.1,25.1,17.6
		c145.3-48.4,249.9-185.5,249.9-347C733.5,165.8,569.8,2,367.8,2z"/>
	<path id="XMLID_21_" class="st1" d="M140.5,527.2c-0.8,1.8-3.7,2.4-6.3,1.1c-2.7-1.2-4.1-3.7-3.3-5.5c0.8-1.9,3.6-2.4,6.3-1.1
		C139.9,522.8,141.5,525.3,140.5,527.2L140.5,527.2z M136,523.8"/>
	<path id="XMLID_18_" class="st1" d="M155.4,543.7c-1.7,1.6-5.2,0.9-7.5-1.7c-2.4-2.5-2.8-6-1.1-7.6c1.8-1.6,5.1-0.9,7.5,1.7
		C156.7,538.7,157.2,542,155.4,543.7L155.4,543.7z M151.9,539.9"/>
	<path id="XMLID_15_" class="st1" d="M169.8,564.7c-2.2,1.6-5.9,0.1-8.2-3.2c-2.2-3.3-2.2-7.2,0.1-8.7c2.3-1.6,5.9-0.2,8.2,3.1
		C172.1,559.3,172.1,563.2,169.8,564.7L169.8,564.7z M169.8,564.7"/>
	<path id="XMLID_12_" class="st1" d="M189.5,585.1c-2,2.2-6.3,1.6-9.4-1.4c-3.2-2.9-4.1-7.1-2.1-9.3c2-2.2,6.3-1.6,9.5,1.4
		C190.7,578.7,191.7,582.9,189.5,585.1L189.5,585.1z M189.5,585.1"/>
	<path id="XMLID_9_" class="st1" d="M216.8,596.9c-0.9,2.9-5,4.2-9.1,2.9c-4.1-1.3-6.8-4.6-6-7.5c0.9-2.9,5-4.2,9.2-2.9
		C214.9,590.7,217.6,594,216.8,596.9L216.8,596.9z M216.8,596.9"/>
	<path id="XMLID_6_" class="st1" d="M246.7,599.1c0.1,3-3.4,5.5-7.8,5.6c-4.4,0.1-7.9-2.3-8-5.3c0-3,3.4-5.5,7.8-5.6
		C243.2,593.7,246.7,596.1,246.7,599.1L246.7,599.1z M246.7,599.1"/>
	<path id="XMLID_3_" class="st1" d="M274.6,594.4c0.5,2.9-2.5,6-6.8,6.8c-4.2,0.8-8.2-1-8.7-4c-0.5-3,2.5-6,6.8-6.8
		C270.2,589.6,274,591.4,274.6,594.4L274.6,594.4z M274.6,594.4"/>
</g>
</svg>
