<?xml version="1.0" encoding="UTF-8"?>
<svg width="196px" height="195px" viewBox="0 0 196 195" version="1.1" xmlns="http://www.w3.org/2000/svg" xmlns:xlink="http://www.w3.org/1999/xlink">
    <!-- Generator: Sketch 52.4 (67378) - http://www.bohemiancoding.com/sketch -->
    <title>ICON/MISSION/GRAY</title>
    <desc>Created with Sketch.</desc>
    <g id="Symbols" stroke="none" stroke-width="1" fill="none" fill-rule="evenodd">
        <g id="ICON/MISSION/GRAY" transform="translate(-10.000000, -9.000000)" fill="#3A3A3A" fill-rule="nonzero">
            <g id="ICON/MISSION" transform="translate(-8.000000, -0.000000)">
                <path d="M83.6135954,48.3160907 L83.6135954,86.3034487 L51.7097492,67.3097697 L83.6135954,48.3160907 Z M51.3841998,29.0396488 L82.9624965,47.8395148 L51.3841998,66.6393807 L51.3841998,29.0396488 Z M84.0476613,9.37558083 L115.951507,28.3692598 L84.0476613,47.3629388 L84.0476613,9.37558083 Z M84.0476613,48.3160907 L115.951507,67.3097697 L84.0476613,86.3034487 L84.0476613,48.3160907 Z M83.6135954,9.37558083 L83.6135954,47.3629388 L51.7097492,28.3692598 L83.6135954,9.37558083 Z M84.6987602,47.8395148 L115.625958,29.4272749 L115.625958,66.2517546 L84.6987602,47.8395148 Z M51.0586503,106.950652 L51.0586503,144.93801 L19.1548041,125.944331 L51.0586503,106.950652 Z M18.8292547,87.6742097 L50.4075514,106.474076 L18.8292547,125.273942 L18.8292547,87.6742097 Z M51.4927162,68.0101417 L83.3965624,87.0038207 L51.4927162,105.9975 L51.4927162,68.0101417 Z M51.4927162,106.950652 L83.3965624,125.944331 L51.4927162,144.93801 L51.4927162,106.950652 Z M51.0586503,68.0101417 L51.0586503,105.9975 L19.1548041,87.0038207 L51.0586503,68.0101417 Z M52.1438151,106.474076 L83.0710129,88.0618359 L83.0710129,124.886315 L52.1438151,106.474076 Z M148.503705,48.3160907 L148.503705,86.3034487 L116.599859,67.3097697 L148.503705,48.3160907 Z M116.27431,29.0396488 L147.852606,47.8395148 L116.27431,66.6393807 L116.27431,29.0396488 Z M148.937771,9.37558083 L180.841617,28.3692598 L148.937771,47.3629388 L148.937771,9.37558083 Z M148.937771,48.3160907 L180.841617,67.3097697 L148.937771,86.3034487 L148.937771,48.3160907 Z M148.503705,9.37558083 L148.503705,47.3629388 L116.599859,28.3692598 L148.503705,9.37558083 Z M149.58887,47.8395148 L180.516068,29.4272749 L180.516068,66.2517546 L149.58887,47.8395148 Z M181.05865,106.950652 L181.05865,144.93801 L149.154804,125.944331 L181.05865,106.950652 Z M148.829255,87.6742097 L180.407551,106.474076 L148.829255,125.273942 L148.829255,87.6742097 Z M181.492716,68.0101417 L213.396562,87.0038207 L181.492716,105.9975 L181.492716,68.0101417 Z M181.492716,106.950652 L213.396562,125.944331 L181.492716,144.93801 L181.492716,106.950652 Z M181.05865,68.0101417 L181.05865,105.9975 L149.154804,87.0038207 L181.05865,68.0101417 Z M182.143815,106.474076 L213.071013,88.0618359 L213.071013,124.886315 L182.143815,106.474076 Z M148.496295,164.883909 L148.496295,126.896551 L180.400141,145.89023 L148.496295,164.883909 Z M180.72569,184.160351 L149.147394,165.360485 L180.72569,146.560619 L180.72569,184.160351 Z M148.062229,203.824419 L116.158383,184.83074 L148.062229,165.837061 L148.062229,203.824419 Z M148.062229,164.883909 L116.158383,145.89023 L148.062229,126.896551 L148.062229,164.883909 Z M148.496295,203.824419 L148.496295,165.837061 L180.400141,184.83074 L148.496295,203.824419 Z M147.41113,165.360485 L116.483932,183.772725 L116.483932,146.948245 L147.41113,165.360485 Z M83.3864046,164.883909 L83.3864046,126.896551 L115.290251,145.89023 L83.3864046,164.883909 Z M115.6158,184.160351 L84.0375035,165.360485 L115.6158,146.560619 L115.6158,184.160351 Z M82.9523387,203.824419 L51.0484926,184.83074 L82.9523387,165.837061 L82.9523387,203.824419 Z M82.9523387,164.883909 L51.0484926,145.89023 L82.9523387,126.896551 L82.9523387,164.883909 Z M83.3864046,203.824419 L83.3864046,165.837061 L115.290251,184.83074 L83.3864046,203.824419 Z M82.3012398,165.360485 L51.374042,183.772725 L51.374042,146.948245 L82.3012398,165.360485 Z M115.94135,106.249348 L115.94135,68.2619904 L147.845196,87.2556694 L115.94135,106.249348 Z M148.170745,125.52579 L116.592449,106.725924 L148.170745,87.9260584 L148.170745,125.52579 Z M115.507284,145.189858 L83.6034376,126.196179 L115.507284,107.2025 L115.507284,145.189858 Z M115.507284,106.249348 L83.6034376,87.2556694 L115.507284,68.2619904 L115.507284,106.249348 Z M115.94135,145.189858 L115.94135,107.2025 L147.845196,126.196179 L115.94135,145.189858 Z M114.856185,106.725924 L83.9289871,125.138164 L83.9289871,88.3136845 L114.856185,106.725924 Z" id="ICON/MISSION/GRAY"></path>
            </g>
        </g>
    </g>
</svg>