<?xml version="1.0" encoding="UTF-8"?>
<svg width="196px" height="195px" viewBox="0 0 196 195" version="1.1" xmlns="http://www.w3.org/2000/svg" xmlns:xlink="http://www.w3.org/1999/xlink">
    <!-- Generator: Sketch 52.4 (67378) - http://www.bohemiancoding.com/sketch -->
    <title>ICON/MISSION/WHITE</title>
    <desc>Created with Sketch.</desc>
    <g id="Symbols" stroke="none" stroke-width="1" fill="none" fill-rule="evenodd">
        <g id="ICON/MISSION/WHITE" transform="translate(-11.000000, -9.000000)" fill="#FFFFFF" fill-rule="nonzero">
            <g id="ICON/MISSION" transform="translate(-6.000000, 9.000000)">
                <g id="ICON/PROJECT_v2">
                    <g id="ICON/PROJECT" transform="translate(17.109890, 0.000000)">
                        <path d="M65.5037052,39.3160907 L65.5037052,77.3034487 L33.5998591,58.3097697 L65.5037052,39.3160907 Z M33.2743096,20.0396488 L64.8526063,38.8395148 L33.2743096,57.6393807 L33.2743096,20.0396488 Z M65.9377712,0.375580834 L97.8416173,19.3692598 L65.9377712,38.3629388 L65.9377712,0.375580834 Z M65.9377712,39.3160907 L97.8416173,58.3097697 L65.9377712,77.3034487 L65.9377712,39.3160907 Z M65.5037052,0.375580834 L65.5037052,38.3629388 L33.5998591,19.3692598 L65.5037052,0.375580834 Z M66.5888701,38.8395148 L97.5160679,20.4272749 L97.5160679,57.2517546 L66.5888701,38.8395148 Z M32.9487602,97.9506517 L32.9487602,135.93801 L1.04491404,116.944331 L32.9487602,97.9506517 Z M0.71936459,78.6742097 L32.2976613,97.4740757 L0.71936459,116.273942 L0.71936459,78.6742097 Z M33.3828261,59.0101417 L65.2866723,78.0038207 L33.3828261,96.9974997 L33.3828261,59.0101417 Z M33.3828261,97.9506517 L65.2866723,116.944331 L33.3828261,135.93801 L33.3828261,97.9506517 Z M32.9487602,59.0101417 L32.9487602,96.9974997 L1.04491404,78.0038207 L32.9487602,59.0101417 Z M34.033925,97.4740757 L64.9611228,79.0618359 L64.9611228,115.886315 L34.033925,97.4740757 Z M130.393815,39.3160907 L130.393815,77.3034487 L98.489969,58.3097697 L130.393815,39.3160907 Z M98.1644195,20.0396488 L129.742716,38.8395148 L98.1644195,57.6393807 L98.1644195,20.0396488 Z M130.827881,0.375580834 L162.731727,19.3692598 L130.827881,38.3629388 L130.827881,0.375580834 Z M130.827881,39.3160907 L162.731727,58.3097697 L130.827881,77.3034487 L130.827881,39.3160907 Z M130.393815,0.375580834 L130.393815,38.3629388 L98.489969,19.3692598 L130.393815,0.375580834 Z M131.47898,38.8395148 L162.406178,20.4272749 L162.406178,57.2517546 L131.47898,38.8395148 Z M162.94876,97.9506517 L162.94876,135.93801 L131.044914,116.944331 L162.94876,97.9506517 Z M130.719365,78.6742097 L162.297661,97.4740757 L130.719365,116.273942 L130.719365,78.6742097 Z M163.382826,59.0101417 L195.286672,78.0038207 L163.382826,96.9974997 L163.382826,59.0101417 Z M163.382826,97.9506517 L195.286672,116.944331 L163.382826,135.93801 L163.382826,97.9506517 Z M162.94876,59.0101417 L162.94876,96.9974997 L131.044914,78.0038207 L162.94876,59.0101417 Z M164.033925,97.4740757 L194.961123,79.0618359 L194.961123,115.886315 L164.033925,97.4740757 Z M130.386405,155.883909 L130.386405,117.896551 L162.290251,136.89023 L130.386405,155.883909 Z M162.6158,175.160351 L131.037504,156.360485 L162.6158,137.560619 L162.6158,175.160351 Z M129.952339,194.824419 L98.0484926,175.83074 L129.952339,156.837061 L129.952339,194.824419 Z M129.952339,155.883909 L98.0484926,136.89023 L129.952339,117.896551 L129.952339,155.883909 Z M130.386405,194.824419 L130.386405,156.837061 L162.290251,175.83074 L130.386405,194.824419 Z M129.30124,156.360485 L98.374042,174.772725 L98.374042,137.948245 L129.30124,156.360485 Z M65.2765145,155.883909 L65.2765145,117.896551 L97.1803607,136.89023 L65.2765145,155.883909 Z M97.5059101,175.160351 L65.9276134,156.360485 L97.5059101,137.560619 L97.5059101,175.160351 Z M64.8424486,194.824419 L32.9386024,175.83074 L64.8424486,156.837061 L64.8424486,194.824419 Z M64.8424486,155.883909 L32.9386024,136.89023 L64.8424486,117.896551 L64.8424486,155.883909 Z M65.2765145,194.824419 L65.2765145,156.837061 L97.1803607,175.83074 L65.2765145,194.824419 Z M64.1913497,156.360485 L33.2641519,174.772725 L33.2641519,137.948245 L64.1913497,156.360485 Z M97.8314596,97.2493483 L97.8314596,59.2619904 L129.735306,78.2556694 L97.8314596,97.2493483 Z M130.060855,116.52579 L98.4825585,97.7259243 L130.060855,78.9260584 L130.060855,116.52579 Z M97.3973937,136.189858 L65.4935475,117.196179 L97.3973937,98.2025003 L97.3973937,136.189858 Z M97.3973937,97.2493483 L65.4935475,78.2556694 L97.3973937,59.2619904 L97.3973937,97.2493483 Z M97.8314596,136.189858 L97.8314596,98.2025003 L129.735306,117.196179 L97.8314596,136.189858 Z M96.7462948,97.7259243 L65.8190969,116.138164 L65.8190969,79.3136845 L96.7462948,97.7259243 Z" id="ICON/MISSION/WHITE"></path>
                    </g>
                </g>
            </g>
        </g>
    </g>
</svg>