<svg width="40" height="46" viewBox="0 0 40 46" fill="none" xmlns="http://www.w3.org/2000/svg">
<path fill-rule="evenodd" clip-rule="evenodd" d="M40 11.7989C40 11.5583 39.9156 11.4199 39.7048 11.2936L20.2741 0.0857283C20.0753 -0.0285761 19.9307 -0.0285761 19.7379 0.0857283L0.271125 11.3056C0.0723 11.4199 0 11.5462 0 11.7688C0.006025 18.982 0.006025 26.3216 0 34.2206C0 34.4372 0.066275 34.5575 0.25305 34.6658L19.7801 45.9158C19.8283 45.9459 19.9066 46 19.997 46C20.0331 46 20.0934 45.982 20.1175 45.9699L22.7504 44.4599L2.9643 33.0355L2.78958 32.9272L2.78355 32.7046C2.78958 26.0629 2.78958 19.5235 2.78355 13.2789V13.0683L2.98238 12.948C4.92845 11.835 7.00106 10.6438 9.03751 9.45267C9.15198 9.3865 9.25441 9.3504 9.35081 9.3504C9.45323 9.3504 9.55566 9.3865 9.68821 9.45869L17.2014 13.8143L15.9241 14.5482C14.2793 15.4928 12.5802 16.4674 10.9113 17.4239C10.7125 17.5382 10.6402 17.6645 10.6402 17.8932C10.6462 21.1959 10.6462 24.6191 10.6402 28.0542C10.6402 28.2768 10.7125 28.4031 10.9113 28.5174L25.1423 36.6571C25.2387 36.7113 25.3231 36.7353 25.4074 36.7353C25.4677 36.7353 25.5581 36.7233 25.7027 36.6391C28.426 35.0569 31.2758 33.4085 34.4148 31.6097C34.6076 31.4954 34.6859 31.369 34.6859 31.1404C34.6799 25.714 34.6799 20.2274 34.6859 14.819C34.6859 14.5904 34.6136 14.464 34.4208 14.3557L20.2199 6.16792C20.1717 6.14386 20.0693 6.09573 19.9729 6.09573C19.9367 6.09573 19.9006 6.10175 19.8765 6.1198L17.1833 7.67193L31.7156 16.0041L31.9024 16.1124L31.8903 29.6424V29.859L31.7036 29.9673C29.872 31.0382 27.8596 32.1932 25.5581 33.5107L25.3833 33.613L25.2026 33.5168L13.6045 26.8691L13.4117 26.7608V26.5442C13.4177 24.1378 13.4177 21.7314 13.4117 19.3972V19.1806L13.5984 19.0723C14.466 18.573 15.3336 18.0736 16.2073 17.5743L16.2193 17.5683C17.3942 16.8945 18.6052 16.1966 19.8162 15.5048L20.003 15.3965L20.1898 15.5048L26.3955 19.0663L26.5823 19.1746V26.7608L22.5576 29.0769L25.1484 30.5629C25.1905 30.587 25.2448 30.599 25.311 30.599C25.3894 30.599 25.4797 30.5809 25.54 30.5448L29.0586 28.5355C29.2875 28.4092 29.3719 28.2708 29.3659 28.0121C29.3538 24.7634 29.3538 21.3704 29.3659 17.9292C29.3659 17.6706 29.2875 17.5322 29.0586 17.3998L12.1103 7.68998L12.8513 7.26284C15.1288 5.94533 17.4906 4.58571 19.8102 3.25617L19.997 3.14788L20.1838 3.25617L37.0297 12.954L37.2044 13.0563C37.2044 13.0563 37.2104 13.0563 37.2104 13.1104L37.2164 13.2849V32.7347L37.2044 32.9212L37.0477 33.0234L25.4858 39.6952L25.293 39.8095L25.1002 39.6892L8.26028 29.9553L8.11568 29.853L8.10363 29.6725V16.4012C8.10363 16.341 8.10966 16.2929 8.11568 16.2448L8.13978 16.1244L8.23016 16.0462C8.26028 16.0162 8.30246 15.9921 8.35066 15.962L12.0801 13.8083L9.56771 12.3283C9.39298 12.2261 9.27248 12.2261 9.09776 12.3223C7.89878 13.0202 6.70583 13.712 5.543 14.3738C5.3743 14.47 5.30803 14.5843 5.30803 14.7829C5.31405 20.0709 5.31405 25.5876 5.30803 31.1825C5.30803 31.3811 5.3743 31.4954 5.543 31.5916L25.0459 42.8416C25.1423 42.8957 25.2267 42.9258 25.305 42.9258C25.3833 42.9258 25.4677 42.8957 25.5641 42.8416C31.0408 39.6772 35.5355 37.0843 39.7168 34.6839C39.9458 34.5515 39.988 34.4011 39.988 34.1966C39.994 25.8644 39.994 18.5369 40 11.7989Z" fill="url(#paint0_linear)"/>
<defs>
<linearGradient id="paint0_linear" x1="-1.49628" y1="17.2463" x2="42.0361" y2="26.0532" gradientUnits="userSpaceOnUse">
<stop offset="0.0969443" stop-color="#0089F4"/>
<stop offset="0.3015" stop-color="#4675F0"/>
<stop offset="0.545" stop-color="#935EEB"/>
<stop offset="0.7466" stop-color="#CB4EE8"/>
<stop offset="0.8956" stop-color="#EE44E6"/>
<stop offset="0.9758" stop-color="#FB40E5"/>
</linearGradient>
</defs>
</svg>
