<svg width="206" height="46" viewBox="0 0 206 46" fill="none" xmlns="http://www.w3.org/2000/svg">
                        <path fill-rule="evenodd" clip-rule="evenodd" d="M40 11.7989C40 11.5583 39.9156 11.4199 39.7048 11.2936L20.2741 0.0857283C20.0753 -0.0285761 19.9307 -0.0285761 19.7379 0.0857283L0.271125 11.3056C0.0723 11.4199 0 11.5462 0 11.7688C0.006025 18.982 0.006025 26.3216 0 34.2206C0 34.4372 0.066275 34.5575 0.25305 34.6658L19.7801 45.9158C19.8283 45.9459 19.9066 46 19.997 46C20.0331 46 20.0934 45.982 20.1175 45.9699L22.7504 44.4599L2.9643 33.0355L2.78958 32.9272L2.78355 32.7046C2.78958 26.0629 2.78958 19.5235 2.78355 13.2789V13.0683L2.98238 12.948C4.92845 11.835 7.00106 10.6438 9.03751 9.45267C9.15198 9.3865 9.25441 9.3504 9.35081 9.3504C9.45323 9.3504 9.55566 9.3865 9.68821 9.45869L17.2014 13.8143L15.9241 14.5482C14.2793 15.4928 12.5802 16.4674 10.9113 17.4239C10.7125 17.5382 10.6402 17.6645 10.6402 17.8932C10.6462 21.1959 10.6462 24.6191 10.6402 28.0542C10.6402 28.2768 10.7125 28.4031 10.9113 28.5174L25.1423 36.6571C25.2387 36.7113 25.3231 36.7353 25.4074 36.7353C25.4677 36.7353 25.5581 36.7233 25.7027 36.6391C28.426 35.0569 31.2758 33.4085 34.4148 31.6097C34.6076 31.4954 34.6859 31.369 34.6859 31.1404C34.6799 25.714 34.6799 20.2274 34.6859 14.819C34.6859 14.5904 34.6136 14.464 34.4208 14.3557L20.2199 6.16792C20.1717 6.14386 20.0693 6.09573 19.9729 6.09573C19.9367 6.09573 19.9006 6.10175 19.8765 6.1198L17.1833 7.67193L31.7156 16.0041L31.9024 16.1124L31.8903 29.6424V29.859L31.7036 29.9673C29.872 31.0382 27.8596 32.1932 25.5581 33.5107L25.3833 33.613L25.2026 33.5168L13.6045 26.8691L13.4117 26.7608V26.5442C13.4177 24.1378 13.4177 21.7314 13.4117 19.3972V19.1806L13.5984 19.0723C14.466 18.573 15.3336 18.0736 16.2073 17.5743L16.2193 17.5683C17.3942 16.8945 18.6052 16.1966 19.8162 15.5048L20.003 15.3965L20.1898 15.5048L26.3955 19.0663L26.5823 19.1746V26.7608L22.5576 29.0769L25.1484 30.5629C25.1905 30.587 25.2448 30.599 25.311 30.599C25.3894 30.599 25.4797 30.5809 25.54 30.5448L29.0586 28.5355C29.2875 28.4092 29.3719 28.2708 29.3659 28.0121C29.3538 24.7634 29.3538 21.3704 29.3659 17.9292C29.3659 17.6706 29.2875 17.5322 29.0586 17.3998L12.1103 7.68998L12.8513 7.26284C15.1288 5.94533 17.4906 4.58571 19.8102 3.25617L19.997 3.14788L20.1838 3.25617L37.0297 12.954L37.2044 13.0563C37.2044 13.0563 37.2104 13.0563 37.2104 13.1104L37.2164 13.2849V32.7347L37.2044 32.9212L37.0477 33.0234L25.4858 39.6952L25.293 39.8095L25.1002 39.6892L8.26028 29.9553L8.11568 29.853L8.10363 29.6725V16.4012C8.10363 16.341 8.10966 16.2929 8.11568 16.2448L8.13978 16.1244L8.23016 16.0462C8.26028 16.0162 8.30246 15.9921 8.35066 15.962L12.0801 13.8083L9.56771 12.3283C9.39298 12.2261 9.27248 12.2261 9.09776 12.3223C7.89878 13.0202 6.70583 13.712 5.543 14.3738C5.3743 14.47 5.30803 14.5843 5.30803 14.7829C5.31405 20.0709 5.31405 25.5876 5.30803 31.1825C5.30803 31.3811 5.3743 31.4954 5.543 31.5916L25.0459 42.8416C25.1423 42.8957 25.2267 42.9258 25.305 42.9258C25.3833 42.9258 25.4677 42.8957 25.5641 42.8416C31.0408 39.6772 35.5355 37.0843 39.7168 34.6839C39.9458 34.5515 39.988 34.4011 39.988 34.1966C39.994 25.8644 39.994 18.5369 40 11.7989Z" fill="url(#paint0_linear)"/>
                        <path fill-rule="evenodd" clip-rule="evenodd" d="M199.22 31.7624C199.226 31.7102 199.226 31.6291 199.226 31.5595V26.7549V26.7434C199.25 26.5579 199.297 26.3956 199.374 26.2681L199.568 25.9436C201.443 22.8487 205.104 16.7864 206 15.2853L204.697 15.2795C204.562 15.2737 204.503 15.3027 204.432 15.4244L198.596 25.1553L192.724 15.3839C192.653 15.2622 192.6 15.2332 192.459 15.239H192.453C191.604 15.239 191.333 15.2448 191.191 15.2448C191.179 15.2448 191.168 15.2448 191.156 15.2448C192.052 16.7458 195.707 22.7849 197.576 25.874L197.788 26.2275C197.865 26.355 197.918 26.5173 197.935 26.7028V26.726C197.935 28.4473 197.935 29.1138 197.935 31.5537C197.935 31.6233 197.935 31.7044 197.941 31.7566C198.136 31.7682 199.014 31.7682 199.22 31.7624Z" fill="#12224A"/>
                        <path fill-rule="evenodd" clip-rule="evenodd" d="M175.604 31.7624C175.651 31.7624 175.693 31.7624 175.74 31.7624V25.4219L181.046 25.4161C181.051 25.4161 181.051 25.4161 181.057 25.4161C181.387 25.4161 181.617 25.5378 181.812 25.8102C182.991 27.4852 184.241 29.247 185.868 31.5247C185.992 31.6986 186.051 31.7392 186.074 31.7508C186.493 31.7739 186.917 31.7739 187.365 31.7682C187.395 31.7682 187.424 31.7682 187.454 31.7682L182.938 25.4045L183.292 25.335C184.441 25.1147 185.331 24.6859 186.021 24.031C187.56 22.5531 187.972 20.8317 187.289 18.7627C186.664 16.8617 184.771 15.378 182.891 15.3085C181.01 15.2389 179.094 15.2389 177.243 15.2447C176.595 15.2447 175.928 15.2447 175.268 15.2447C175.268 15.2447 175.268 15.2447 175.262 15.2447C175.003 15.2447 174.667 15.3201 174.531 15.6678C174.461 15.8533 174.449 16.0967 174.449 16.3227C174.443 20.6811 174.443 25.1147 174.443 29.4035V31.5016C174.443 31.5363 174.443 31.5653 174.443 31.6001C174.443 31.658 174.437 31.716 174.449 31.7508C174.449 31.7566 174.455 31.7566 174.455 31.7624C174.838 31.7682 175.209 31.7682 175.604 31.7624ZM175.74 19.2785C175.74 18.4787 175.74 17.6847 175.74 16.8849C175.74 16.827 175.758 16.7748 175.769 16.74C175.775 16.7284 175.781 16.711 175.787 16.6937L175.828 16.5546L175.976 16.5314C175.993 16.5314 176.011 16.5256 176.029 16.5198C176.07 16.514 176.117 16.5024 176.17 16.5024C176.795 16.5024 177.438 16.5024 178.051 16.4966C179.507 16.4908 181.016 16.485 182.502 16.514C183.504 16.5372 184.447 16.9545 185.166 17.7021C185.927 18.4903 186.339 19.5509 186.304 20.6231C186.239 22.5357 184.571 24.1758 182.661 24.2048C181.234 24.228 179.784 24.228 178.375 24.228C177.668 24.228 176.96 24.228 176.259 24.2338H176.253C176.129 24.2338 175.976 24.2164 175.864 24.1063C175.781 24.0252 175.74 23.9034 175.74 23.7586C175.74 22.2691 175.74 20.7738 175.74 19.2785Z" fill="#12224A"/>
                        <path fill-rule="evenodd" clip-rule="evenodd" d="M140.58 22.7907C140.386 22.9646 140.286 23.1906 140.286 23.4398C140.286 23.6658 140.386 23.8803 140.551 24.0252L140.557 24.031L148.763 31.5247C148.822 31.5827 148.969 31.716 149.028 31.716C149.582 31.7334 150.142 31.7334 150.691 31.7276C150.738 31.7276 150.779 31.7276 150.826 31.7276L141.777 23.4166L150.708 15.2389C150.667 15.2389 150.632 15.2389 150.591 15.2389C150.131 15.2389 149.659 15.2447 149.193 15.2332C149.187 15.2332 149.176 15.2332 149.17 15.2332C148.993 15.2332 148.857 15.2911 148.71 15.4244C148.274 15.8243 147.832 16.2242 147.395 16.6241C145.161 18.6526 142.862 20.7506 140.58 22.7907Z" fill="#12224A"/>
                        <path fill-rule="evenodd" clip-rule="evenodd" d="M139.319 31.7334C139.337 31.7334 139.348 31.7334 139.354 31.7334C139.354 31.7219 139.36 31.7045 139.36 31.6813V15.3028C139.36 15.2912 139.36 15.2796 139.36 15.2622C139.36 15.2564 139.36 15.2506 139.36 15.239C139.348 15.239 139.337 15.239 139.319 15.239H138.116V31.7334H138.977H139.319Z" fill="#12224A"/>
                        <path fill-rule="evenodd" clip-rule="evenodd" d="M131.814 31.7393C132.528 31.7335 132.722 31.7335 132.993 31.7335L126.243 16.2301C126.161 16.0447 126.078 15.8476 125.984 15.668C125.872 15.4477 125.724 15.3202 125.536 15.2681L125.512 15.2623C125.506 15.2623 125.5 15.2623 125.495 15.2565H125.483C125.471 15.2565 125.459 15.2507 125.441 15.2507C125.418 15.2449 125.4 15.2449 125.377 15.2449C125.371 15.2449 125.371 15.2449 125.365 15.2449H125.353C125.329 15.2449 125.306 15.2449 125.288 15.2449H125.271C125.265 15.2449 125.265 15.2449 125.259 15.2449C125.235 15.2449 125.217 15.2507 125.194 15.2507C125.176 15.2507 125.164 15.2565 125.153 15.2565H125.147C125.141 15.2565 125.135 15.2565 125.129 15.2623H125.123L125.105 15.2681C124.917 15.3202 124.769 15.4535 124.657 15.668C124.563 15.8476 124.481 16.0389 124.398 16.2301L124.369 16.2997L117.648 31.7335C117.919 31.7335 118.108 31.7335 118.827 31.7393H118.839C119.016 31.7509 119.075 31.7219 119.163 31.5133L125.318 17.3951L131.478 31.5133C131.567 31.7219 131.631 31.7509 131.802 31.7393H131.814Z" fill="#12224A"/>
                        <path fill-rule="evenodd" clip-rule="evenodd" d="M112.496 15.9286C112.472 15.4939 112.177 15.2447 111.717 15.2621C111.387 15.2737 111.228 15.4881 111.016 15.8069C109.972 17.3891 108.929 18.9713 107.891 20.5535C107.078 21.7938 106.258 23.0341 105.445 24.2743C105.28 24.5235 104.897 25.0683 104.867 25.1147L104.679 25.3755L104.49 25.1147C104.46 25.0741 104.077 24.5293 103.912 24.2743C103.087 23.0167 102.261 21.7648 101.43 20.5072C100.399 18.9423 99.3669 17.3717 98.3352 15.8069C98.123 15.4881 97.9579 15.2737 97.6337 15.2621C97.1738 15.2447 96.885 15.4939 96.8555 15.9286C96.8496 16.0213 96.8496 16.114 96.8496 16.2126V16.2879C96.8496 21.3533 96.8496 26.4187 96.8496 31.4841C96.8496 31.5769 96.8496 31.6754 96.8555 31.7275C96.9145 31.7333 97.0206 31.7333 97.1208 31.7333H98.0876V17.534L104.673 27.5083L104.679 27.4967L104.684 27.5083L106.076 25.3871L111.269 17.534V31.7333H112.236C112.336 31.7333 112.443 31.7333 112.502 31.7275C112.507 31.6696 112.507 31.5711 112.507 31.4841C112.507 26.4187 112.507 21.3533 112.507 16.2879V16.2126C112.502 16.114 112.502 16.0213 112.496 15.9286Z" fill="#12224A"/>
                        <path fill-rule="evenodd" clip-rule="evenodd" d="M83.5677 15.0248C88.0422 14.9437 92.1807 18.4732 92.1571 23.4865C92.1335 28.1925 88.3488 31.896 83.7328 31.9539C78.9753 32.0177 75.1375 28.2563 75.0255 23.5444C74.9194 18.9311 78.881 14.9437 83.5677 15.0248ZM90.4711 23.4343C90.5006 19.7135 87.4056 16.6012 83.6739 16.6012C79.8478 16.6012 76.7528 19.5976 76.6998 23.3126C76.6467 27.1957 79.8773 30.3659 83.5854 30.3949C87.2287 30.4181 90.5418 27.2131 90.4711 23.4343Z" fill="#12224A"/>
                        <path d="M83.6147 31.9884C81.3568 31.9884 79.2345 31.1307 77.6192 29.5658C75.9862 27.9778 75.0548 25.845 74.9958 23.5499C74.9428 21.3186 75.8565 19.1047 77.5072 17.4761C79.1343 15.8649 81.345 14.9666 83.5616 15.0013C85.8077 14.9608 88.0302 15.8417 89.6514 17.4181C91.2903 19.0119 92.1923 21.1679 92.1805 23.4978C92.1687 25.7697 91.2844 27.8967 89.6809 29.4963C88.0951 31.0785 85.9787 31.9652 83.7267 32C83.6913 31.9884 83.6501 31.9884 83.6147 31.9884ZM83.4378 15.0535C81.2743 15.0535 79.1402 15.946 77.5544 17.5109C75.9155 19.1336 75.0076 21.3302 75.0607 23.5441C75.1137 25.8218 76.0393 27.943 77.6664 29.5195C79.2935 31.1017 81.4511 31.9594 83.7385 31.9247C85.9728 31.8957 88.0774 31.0089 89.6514 29.4383C91.2432 27.8561 92.1216 25.7407 92.1333 23.4804C92.1451 21.1679 91.2549 19.0235 89.622 17.4471C88.0067 15.8823 85.8018 15.0071 83.5734 15.0477C83.5204 15.0535 83.4791 15.0535 83.4378 15.0535ZM83.6324 30.4178C83.6147 30.4178 83.6029 30.4178 83.5852 30.4178C81.8049 30.4062 80.0363 29.647 78.7334 28.3371C77.3775 26.9752 76.6465 25.1901 76.6701 23.3065C76.6937 21.5041 77.4306 19.8117 78.7511 18.5425C80.0717 17.2732 81.8166 16.572 83.6737 16.572C85.4658 16.572 87.1695 17.279 88.4665 18.5657C89.7929 19.8813 90.5121 21.6084 90.5004 23.434C90.5357 25.2307 89.7811 27.0273 88.437 28.3661C87.1224 29.6701 85.3715 30.4178 83.6324 30.4178ZM83.6737 16.6299C81.8284 16.6299 80.0952 17.3254 78.7865 18.5831C77.4836 19.8407 76.7467 21.5215 76.7231 23.3065C76.6996 25.1727 77.4247 26.9462 78.7688 28.2966C80.0599 29.5948 81.8166 30.3424 83.5793 30.3598C83.597 30.3598 83.6088 30.3598 83.6265 30.3598C85.3538 30.3598 87.087 29.618 88.3899 28.3198C89.7222 26.9926 90.4709 25.2075 90.4355 23.4282C90.4473 21.62 89.734 19.9045 88.4193 18.6004C87.1401 17.3312 85.454 16.6299 83.6737 16.6299Z" fill="#12224A"/>
                        <path fill-rule="evenodd" clip-rule="evenodd" d="M71.5352 28.4996C71.4468 28.4301 71.3524 28.3605 71.264 28.291C70.981 28.0765 70.6922 27.8505 70.3915 27.6476C70.2382 27.5491 70.1026 27.6824 70.0614 27.723C69.9612 27.8273 69.8668 27.9374 69.7725 28.0476C69.6782 28.1635 69.578 28.2852 69.466 28.3953C68.4755 29.3574 67.2493 29.9659 65.8168 30.1977C64.4668 30.418 63.27 30.3079 62.1558 29.8616C60.3637 29.1487 58.9724 27.7983 58.2355 26.0654C57.5163 24.3731 57.5163 22.5069 58.2296 20.8088C58.8958 19.2324 60.1102 17.9747 61.6429 17.2734C63.1875 16.5664 64.962 16.4678 66.6421 16.9952C67.7504 17.343 68.7467 17.9921 69.5956 18.9252L69.6133 18.9426C69.69 19.0295 69.8197 19.1744 69.9729 19.0701C70.2677 18.844 70.5566 18.5948 70.8336 18.3572C70.9221 18.2819 71.0046 18.2065 71.093 18.137L71.1166 18.1196L71.0989 18.0964C70.0732 16.8388 68.7114 15.9114 67.1491 15.4072C65.4631 14.8682 63.6473 14.8682 61.8964 15.4246C58.0881 16.6243 55.73 20.1133 56.0248 24.1065C56.1545 25.88 56.8914 27.6187 58.094 29.0154C59.3615 30.4817 61.0181 31.4496 62.8986 31.8205C63.4941 31.9364 64.0895 31.9944 64.6849 31.9944C65.8109 31.9944 66.9192 31.7857 67.9686 31.3685C69.4777 30.7715 70.7511 29.7631 71.5588 28.5402L71.5765 28.517L71.5352 28.4996Z" fill="#12224A"/>
                        <path d="M168.901 22.8545H156.179V24.1469H168.901V22.8545Z" fill="#12224A"/>
                        <path d="M168.901 30.4526H156.179V31.7451H168.901V30.4526Z" fill="#12224A"/>
                        <path d="M168.901 15.2563H156.179V16.5488H168.901V15.2563Z" fill="#12224A"/>
                        <defs>
                        <linearGradient id="paint0_linear" x1="-1.49628" y1="17.2463" x2="42.0361" y2="26.0532" gradientUnits="userSpaceOnUse">
                        <stop offset="0.0969443" stop-color="#0089F4"/>
                        <stop offset="0.3015" stop-color="#4675F0"/>
                        <stop offset="0.545" stop-color="#935EEB"/>
                        <stop offset="0.7466" stop-color="#CB4EE8"/>
                        <stop offset="0.8956" stop-color="#EE44E6"/>
                        <stop offset="0.9758" stop-color="#FB40E5"/>
                        </linearGradient>
                        </defs>
                      </svg>       