<svg width="300" height="71" viewBox="0 0 300 71" fill="none" xmlns="http://www.w3.org/2000/svg">
<path fill-rule="evenodd" clip-rule="evenodd" d="M22.5943 12.8594C10.1158 12.8594 0 22.9752 0 35.4537C0 47.9322 10.1158 58.048 22.5943 58.048C35.0728 58.048 45.1887 47.9322 45.1887 35.4537C45.1887 22.9752 35.0728 12.8594 22.5943 12.8594ZM11.6644 45.4813L27.9143 35.9095L26.1051 42.9051L31.2091 44.2251L35.2762 28.4988L19.5499 24.4317L18.2299 29.5358L25.2605 31.354L8.98865 40.9388L11.6644 45.4813Z" fill="#FCFCFC"/>
<path fill-rule="evenodd" clip-rule="evenodd" d="M201.853 10.7206C200.676 11.8974 199.218 12.4858 197.477 12.4858C195.736 12.4858 194.265 11.8974 193.064 10.7206C191.887 9.54382 191.299 8.09735 191.299 6.3812C191.299 4.66505 191.887 3.21858 193.064 2.04179C194.265 0.865005 195.736 0.276611 197.477 0.276611C199.218 0.276611 200.676 0.865005 201.853 2.04179C203.054 3.21858 203.655 4.66505 203.655 6.3812C203.655 8.09735 203.054 9.54382 201.853 10.7206ZM130.437 17.2297C133.943 17.2297 137.118 18.1123 139.961 19.8775C142.83 21.6181 145.073 24.033 146.691 27.1221C148.309 30.1866 149.118 33.5944 149.118 37.3454C149.118 41.0964 148.309 44.5165 146.691 47.6055C145.073 50.6701 142.83 53.085 139.961 54.8501C137.118 56.5908 133.943 57.4611 130.437 57.4611C125.386 57.4611 121.219 55.6224 117.933 51.945V70.8471H108.151V18.1491H117.933V22.7091C121.194 19.0562 125.362 17.2297 130.437 17.2297ZM128.488 47.9733C131.528 47.9733 134.041 46.9681 136.027 44.9578C138.037 42.9229 139.042 40.3855 139.042 37.3454C139.042 34.3054 138.037 31.7802 136.027 29.7699C134.041 27.735 131.528 26.7176 128.488 26.7176C125.472 26.7176 122.959 27.735 120.949 29.7699C118.939 31.8047 117.933 34.3299 117.933 37.3454C117.933 40.3609 118.939 42.8861 120.949 44.921C122.959 46.9559 125.472 47.9733 128.488 47.9733ZM81.4898 57.4611C76.0717 57.4611 71.7323 55.9902 68.4716 53.0482C65.2109 50.0817 63.5806 46.1468 63.5806 41.2435V18.1491H73.3626V39.8829C73.3626 42.3345 74.0981 44.2958 75.5691 45.7668C77.0646 47.2378 79.0382 47.9733 81.4898 47.9733C83.9414 47.9733 85.9028 47.2378 87.3737 45.7668C88.8692 44.2958 89.617 42.3345 89.617 39.8829V18.1491H99.399V41.2435C99.399 46.1223 97.7564 50.0449 94.4712 53.0114C91.2106 55.9779 86.8834 57.4611 81.4898 57.4611ZM153.384 51.5772C157.944 55.4998 163.338 57.4611 169.565 57.4611C172.679 57.4611 175.461 56.9953 177.913 56.0637C180.365 55.1076 182.326 53.6611 183.797 51.7243C185.268 49.7875 186.003 47.5075 186.003 44.8842C186.003 43.6829 185.832 42.5674 185.488 41.5377C185.17 40.508 184.777 39.6377 184.312 38.9267C183.846 38.2158 183.196 37.5538 182.363 36.9409C181.554 36.3035 180.794 35.8009 180.083 35.4331C179.396 35.0654 178.501 34.6977 177.398 34.3299C176.295 33.9622 175.4 33.6925 174.713 33.5209C174.027 33.3493 173.12 33.1409 171.992 32.8957C170.693 32.626 169.675 32.3931 168.94 32.197C168.204 31.9763 167.444 31.7067 166.66 31.3879C165.875 31.0447 165.311 30.6524 164.968 30.2112C164.625 29.7453 164.453 29.206 164.453 28.5931C164.453 27.5143 165.017 26.693 166.145 26.1292C167.273 25.5653 168.719 25.2834 170.484 25.2834C173.966 25.2834 177.275 26.4601 180.414 28.8137L185.157 22.2678C180.892 18.9091 175.927 17.2297 170.264 17.2297C167.346 17.2297 164.723 17.671 162.394 18.5536C160.089 19.4117 158.214 20.7723 156.767 22.6356C155.321 24.4988 154.598 26.7421 154.598 29.3653C154.598 30.3215 154.696 31.2163 154.892 32.0499C155.088 32.8834 155.333 33.6189 155.627 34.2564C155.946 34.8938 156.363 35.4944 156.878 36.0583C157.417 36.6222 157.92 37.1003 158.386 37.4925C158.876 37.8848 159.501 38.2771 160.261 38.6693C161.021 39.0371 161.671 39.3313 162.21 39.5519C162.774 39.7726 163.497 40.0177 164.38 40.2874C165.287 40.5326 165.998 40.7164 166.513 40.839C167.028 40.9616 167.726 41.121 168.609 41.3171C169.908 41.6113 170.913 41.8687 171.624 42.0894C172.36 42.31 173.12 42.5919 173.904 42.9352C174.689 43.2784 175.253 43.6829 175.596 44.1487C175.964 44.6145 176.148 45.1539 176.148 45.7668C176.148 46.8946 175.51 47.7772 174.235 48.4146C172.985 49.052 171.355 49.3707 169.344 49.3707C165.128 49.3707 161.389 47.9488 158.128 45.1049L153.384 51.5772ZM250.58 2.29922H240.797V22.7091C237.463 19.0562 233.295 17.2297 228.294 17.2297C222.95 17.2297 218.488 19.1542 214.908 23.0033C211.329 26.8524 209.539 31.6331 209.539 37.3454C209.539 43.0578 211.329 47.8385 214.908 51.6875C218.488 55.5366 222.95 57.4611 228.294 57.4611C233.271 57.4611 237.439 55.6224 240.797 51.945V56.5418H250.58V2.29922ZM237.745 44.921C235.735 46.9559 233.21 47.9733 230.17 47.9733C227.154 47.9733 224.641 46.9559 222.631 44.921C220.62 42.8861 219.615 40.3609 219.615 37.3454C219.615 34.3299 220.62 31.8047 222.631 29.7699C224.641 27.735 227.154 26.7176 230.17 26.7176C233.21 26.7176 235.735 27.735 237.745 29.7699C239.78 31.8047 240.797 34.3299 240.797 37.3454C240.797 40.3609 239.78 42.8861 237.745 44.921ZM296.984 30.3634C296.572 29.3556 296.059 28.321 295.446 27.2594C292.553 22.2486 288.484 19.0495 283.238 17.6618C277.98 16.253 272.857 16.9889 267.867 19.8696C264.576 21.7696 262.007 24.2579 260.16 27.3344C258.334 30.3986 257.412 33.7052 257.394 37.254C257.386 40.7693 258.313 44.1406 260.176 47.3679C262.064 50.6376 264.582 53.161 267.731 54.938C270.868 56.6939 274.29 57.521 277.997 57.4193C281.703 57.3177 285.297 56.2617 288.779 54.2513C291.858 52.4739 294.355 50.2536 296.271 47.5903C298.209 44.9148 299.452 42.0173 300 38.898L291.463 37.2027C291.215 38.931 290.511 40.6538 289.351 42.371C288.179 44.0669 286.627 45.4727 284.695 46.5882C282.295 47.9733 279.902 48.5344 277.513 48.2714C275.125 48.0083 273.027 46.9974 271.219 45.2387L296.984 30.3634ZM192.586 56.5418V18.1491H202.368V56.5418H192.586ZM272.088 27.3269C274.147 26.1378 276.303 25.7284 278.555 26.0984C280.816 26.435 282.812 27.4905 284.544 29.2647L267.57 39.0652C266.899 36.678 266.973 34.4274 267.79 32.3134C268.596 30.1781 270.028 28.5159 272.088 27.3269Z" fill="#FCFCFC"/>
</svg>
